<?xml version="1.0" encoding="utf-8" standalone="no"?>
<!DOCTYPE svg PUBLIC "-//W3C//DTD SVG 1.1//EN"
  "http://www.w3.org/Graphics/SVG/1.1/DTD/svg11.dtd">
<!-- Created with matplotlib (https://matplotlib.org/) -->
<svg height="288pt" version="1.1" viewBox="0 0 432 288" width="432pt" xmlns="http://www.w3.org/2000/svg" xmlns:xlink="http://www.w3.org/1999/xlink">
 <metadata>
  <rdf:RDF xmlns:cc="http://creativecommons.org/ns#" xmlns:dc="http://purl.org/dc/elements/1.1/" xmlns:rdf="http://www.w3.org/1999/02/22-rdf-syntax-ns#">
   <cc:Work>
    <dc:type rdf:resource="http://purl.org/dc/dcmitype/StillImage"/>
    <dc:date>2020-10-16T17:07:12.634317</dc:date>
    <dc:format>image/svg+xml</dc:format>
    <dc:creator>
     <cc:Agent>
      <dc:title>Matplotlib v3.3.1, https://matplotlib.org/</dc:title>
     </cc:Agent>
    </dc:creator>
   </cc:Work>
  </rdf:RDF>
 </metadata>
 <defs>
  <style type="text/css">*{stroke-linecap:butt;stroke-linejoin:round;}</style>
 </defs>
 <g id="figure_1">
  <g id="patch_1">
   <path d="M 0 288 
L 432 288 
L 432 0 
L 0 0 
z
" style="fill:none;"/>
  </g>
  <g id="axes_1">
   <g id="patch_2">
    <path d="M 54 252 
L 388.8 252 
L 388.8 34.56 
L 54 34.56 
z
" style="fill:#ffffff;"/>
   </g>
   <g id="matplotlib.axis_1">
    <g id="xtick_1">
     <g id="line2d_1">
      <defs>
       <path d="M 0 0 
L 0 3.5 
" id="m638e0d0c74" style="stroke:#000000;stroke-width:0.8;"/>
      </defs>
      <g>
       <use style="stroke:#000000;stroke-width:0.8;" x="69.218182" xlink:href="#m638e0d0c74" y="252"/>
      </g>
     </g>
     <g id="text_1">
      <!-- 0.0 -->
      <g transform="translate(61.266619 266.598437)scale(0.1 -0.1)">
       <defs>
        <path d="M 31.78125 66.40625 
Q 24.171875 66.40625 20.328125 58.90625 
Q 16.5 51.421875 16.5 36.375 
Q 16.5 21.390625 20.328125 13.890625 
Q 24.171875 6.390625 31.78125 6.390625 
Q 39.453125 6.390625 43.28125 13.890625 
Q 47.125 21.390625 47.125 36.375 
Q 47.125 51.421875 43.28125 58.90625 
Q 39.453125 66.40625 31.78125 66.40625 
z
M 31.78125 74.21875 
Q 44.046875 74.21875 50.515625 64.515625 
Q 56.984375 54.828125 56.984375 36.375 
Q 56.984375 17.96875 50.515625 8.265625 
Q 44.046875 -1.421875 31.78125 -1.421875 
Q 19.53125 -1.421875 13.0625 8.265625 
Q 6.59375 17.96875 6.59375 36.375 
Q 6.59375 54.828125 13.0625 64.515625 
Q 19.53125 74.21875 31.78125 74.21875 
z
" id="DejaVuSans-48"/>
        <path d="M 10.6875 12.40625 
L 21 12.40625 
L 21 0 
L 10.6875 0 
z
" id="DejaVuSans-46"/>
       </defs>
       <use xlink:href="#DejaVuSans-48"/>
       <use x="63.623047" xlink:href="#DejaVuSans-46"/>
       <use x="95.410156" xlink:href="#DejaVuSans-48"/>
      </g>
     </g>
    </g>
    <g id="xtick_2">
     <g id="line2d_2">
      <g>
       <use style="stroke:#000000;stroke-width:0.8;" x="130.090909" xlink:href="#m638e0d0c74" y="252"/>
      </g>
     </g>
     <g id="text_2">
      <!-- 0.2 -->
      <g transform="translate(122.139347 266.598437)scale(0.1 -0.1)">
       <defs>
        <path d="M 19.1875 8.296875 
L 53.609375 8.296875 
L 53.609375 0 
L 7.328125 0 
L 7.328125 8.296875 
Q 12.9375 14.109375 22.625 23.890625 
Q 32.328125 33.6875 34.8125 36.53125 
Q 39.546875 41.84375 41.421875 45.53125 
Q 43.3125 49.21875 43.3125 52.78125 
Q 43.3125 58.59375 39.234375 62.25 
Q 35.15625 65.921875 28.609375 65.921875 
Q 23.96875 65.921875 18.8125 64.3125 
Q 13.671875 62.703125 7.8125 59.421875 
L 7.8125 69.390625 
Q 13.765625 71.78125 18.9375 73 
Q 24.125 74.21875 28.421875 74.21875 
Q 39.75 74.21875 46.484375 68.546875 
Q 53.21875 62.890625 53.21875 53.421875 
Q 53.21875 48.921875 51.53125 44.890625 
Q 49.859375 40.875 45.40625 35.40625 
Q 44.1875 33.984375 37.640625 27.21875 
Q 31.109375 20.453125 19.1875 8.296875 
z
" id="DejaVuSans-50"/>
       </defs>
       <use xlink:href="#DejaVuSans-48"/>
       <use x="63.623047" xlink:href="#DejaVuSans-46"/>
       <use x="95.410156" xlink:href="#DejaVuSans-50"/>
      </g>
     </g>
    </g>
    <g id="xtick_3">
     <g id="line2d_3">
      <g>
       <use style="stroke:#000000;stroke-width:0.8;" x="190.963636" xlink:href="#m638e0d0c74" y="252"/>
      </g>
     </g>
     <g id="text_3">
      <!-- 0.4 -->
      <g transform="translate(183.012074 266.598437)scale(0.1 -0.1)">
       <defs>
        <path d="M 37.796875 64.3125 
L 12.890625 25.390625 
L 37.796875 25.390625 
z
M 35.203125 72.90625 
L 47.609375 72.90625 
L 47.609375 25.390625 
L 58.015625 25.390625 
L 58.015625 17.1875 
L 47.609375 17.1875 
L 47.609375 0 
L 37.796875 0 
L 37.796875 17.1875 
L 4.890625 17.1875 
L 4.890625 26.703125 
z
" id="DejaVuSans-52"/>
       </defs>
       <use xlink:href="#DejaVuSans-48"/>
       <use x="63.623047" xlink:href="#DejaVuSans-46"/>
       <use x="95.410156" xlink:href="#DejaVuSans-52"/>
      </g>
     </g>
    </g>
    <g id="xtick_4">
     <g id="line2d_4">
      <g>
       <use style="stroke:#000000;stroke-width:0.8;" x="251.836364" xlink:href="#m638e0d0c74" y="252"/>
      </g>
     </g>
     <g id="text_4">
      <!-- 0.6 -->
      <g transform="translate(243.884801 266.598437)scale(0.1 -0.1)">
       <defs>
        <path d="M 33.015625 40.375 
Q 26.375 40.375 22.484375 35.828125 
Q 18.609375 31.296875 18.609375 23.390625 
Q 18.609375 15.53125 22.484375 10.953125 
Q 26.375 6.390625 33.015625 6.390625 
Q 39.65625 6.390625 43.53125 10.953125 
Q 47.40625 15.53125 47.40625 23.390625 
Q 47.40625 31.296875 43.53125 35.828125 
Q 39.65625 40.375 33.015625 40.375 
z
M 52.59375 71.296875 
L 52.59375 62.3125 
Q 48.875 64.0625 45.09375 64.984375 
Q 41.3125 65.921875 37.59375 65.921875 
Q 27.828125 65.921875 22.671875 59.328125 
Q 17.53125 52.734375 16.796875 39.40625 
Q 19.671875 43.65625 24.015625 45.921875 
Q 28.375 48.1875 33.59375 48.1875 
Q 44.578125 48.1875 50.953125 41.515625 
Q 57.328125 34.859375 57.328125 23.390625 
Q 57.328125 12.15625 50.6875 5.359375 
Q 44.046875 -1.421875 33.015625 -1.421875 
Q 20.359375 -1.421875 13.671875 8.265625 
Q 6.984375 17.96875 6.984375 36.375 
Q 6.984375 53.65625 15.1875 63.9375 
Q 23.390625 74.21875 37.203125 74.21875 
Q 40.921875 74.21875 44.703125 73.484375 
Q 48.484375 72.75 52.59375 71.296875 
z
" id="DejaVuSans-54"/>
       </defs>
       <use xlink:href="#DejaVuSans-48"/>
       <use x="63.623047" xlink:href="#DejaVuSans-46"/>
       <use x="95.410156" xlink:href="#DejaVuSans-54"/>
      </g>
     </g>
    </g>
    <g id="xtick_5">
     <g id="line2d_5">
      <g>
       <use style="stroke:#000000;stroke-width:0.8;" x="312.709091" xlink:href="#m638e0d0c74" y="252"/>
      </g>
     </g>
     <g id="text_5">
      <!-- 0.8 -->
      <g transform="translate(304.757528 266.598437)scale(0.1 -0.1)">
       <defs>
        <path d="M 31.78125 34.625 
Q 24.75 34.625 20.71875 30.859375 
Q 16.703125 27.09375 16.703125 20.515625 
Q 16.703125 13.921875 20.71875 10.15625 
Q 24.75 6.390625 31.78125 6.390625 
Q 38.8125 6.390625 42.859375 10.171875 
Q 46.921875 13.96875 46.921875 20.515625 
Q 46.921875 27.09375 42.890625 30.859375 
Q 38.875 34.625 31.78125 34.625 
z
M 21.921875 38.8125 
Q 15.578125 40.375 12.03125 44.71875 
Q 8.5 49.078125 8.5 55.328125 
Q 8.5 64.0625 14.71875 69.140625 
Q 20.953125 74.21875 31.78125 74.21875 
Q 42.671875 74.21875 48.875 69.140625 
Q 55.078125 64.0625 55.078125 55.328125 
Q 55.078125 49.078125 51.53125 44.71875 
Q 48 40.375 41.703125 38.8125 
Q 48.828125 37.15625 52.796875 32.3125 
Q 56.78125 27.484375 56.78125 20.515625 
Q 56.78125 9.90625 50.3125 4.234375 
Q 43.84375 -1.421875 31.78125 -1.421875 
Q 19.734375 -1.421875 13.25 4.234375 
Q 6.78125 9.90625 6.78125 20.515625 
Q 6.78125 27.484375 10.78125 32.3125 
Q 14.796875 37.15625 21.921875 38.8125 
z
M 18.3125 54.390625 
Q 18.3125 48.734375 21.84375 45.5625 
Q 25.390625 42.390625 31.78125 42.390625 
Q 38.140625 42.390625 41.71875 45.5625 
Q 45.3125 48.734375 45.3125 54.390625 
Q 45.3125 60.0625 41.71875 63.234375 
Q 38.140625 66.40625 31.78125 66.40625 
Q 25.390625 66.40625 21.84375 63.234375 
Q 18.3125 60.0625 18.3125 54.390625 
z
" id="DejaVuSans-56"/>
       </defs>
       <use xlink:href="#DejaVuSans-48"/>
       <use x="63.623047" xlink:href="#DejaVuSans-46"/>
       <use x="95.410156" xlink:href="#DejaVuSans-56"/>
      </g>
     </g>
    </g>
    <g id="xtick_6">
     <g id="line2d_6">
      <g>
       <use style="stroke:#000000;stroke-width:0.8;" x="373.581818" xlink:href="#m638e0d0c74" y="252"/>
      </g>
     </g>
     <g id="text_6">
      <!-- 1.0 -->
      <g transform="translate(365.630256 266.598437)scale(0.1 -0.1)">
       <defs>
        <path d="M 12.40625 8.296875 
L 28.515625 8.296875 
L 28.515625 63.921875 
L 10.984375 60.40625 
L 10.984375 69.390625 
L 28.421875 72.90625 
L 38.28125 72.90625 
L 38.28125 8.296875 
L 54.390625 8.296875 
L 54.390625 0 
L 12.40625 0 
z
" id="DejaVuSans-49"/>
       </defs>
       <use xlink:href="#DejaVuSans-49"/>
       <use x="63.623047" xlink:href="#DejaVuSans-46"/>
       <use x="95.410156" xlink:href="#DejaVuSans-48"/>
      </g>
     </g>
    </g>
    <g id="text_7">
     <!-- t (sec) -->
     <g transform="translate(205.51875 280.276563)scale(0.1 -0.1)">
      <defs>
       <path d="M 18.3125 70.21875 
L 18.3125 54.6875 
L 36.8125 54.6875 
L 36.8125 47.703125 
L 18.3125 47.703125 
L 18.3125 18.015625 
Q 18.3125 11.328125 20.140625 9.421875 
Q 21.96875 7.515625 27.59375 7.515625 
L 36.8125 7.515625 
L 36.8125 0 
L 27.59375 0 
Q 17.1875 0 13.234375 3.875 
Q 9.28125 7.765625 9.28125 18.015625 
L 9.28125 47.703125 
L 2.6875 47.703125 
L 2.6875 54.6875 
L 9.28125 54.6875 
L 9.28125 70.21875 
z
" id="DejaVuSans-116"/>
       <path id="DejaVuSans-32"/>
       <path d="M 31 75.875 
Q 24.46875 64.65625 21.28125 53.65625 
Q 18.109375 42.671875 18.109375 31.390625 
Q 18.109375 20.125 21.3125 9.0625 
Q 24.515625 -2 31 -13.1875 
L 23.1875 -13.1875 
Q 15.875 -1.703125 12.234375 9.375 
Q 8.59375 20.453125 8.59375 31.390625 
Q 8.59375 42.28125 12.203125 53.3125 
Q 15.828125 64.359375 23.1875 75.875 
z
" id="DejaVuSans-40"/>
       <path d="M 44.28125 53.078125 
L 44.28125 44.578125 
Q 40.484375 46.53125 36.375 47.5 
Q 32.28125 48.484375 27.875 48.484375 
Q 21.1875 48.484375 17.84375 46.4375 
Q 14.5 44.390625 14.5 40.28125 
Q 14.5 37.15625 16.890625 35.375 
Q 19.28125 33.59375 26.515625 31.984375 
L 29.59375 31.296875 
Q 39.15625 29.25 43.1875 25.515625 
Q 47.21875 21.78125 47.21875 15.09375 
Q 47.21875 7.46875 41.1875 3.015625 
Q 35.15625 -1.421875 24.609375 -1.421875 
Q 20.21875 -1.421875 15.453125 -0.5625 
Q 10.6875 0.296875 5.421875 2 
L 5.421875 11.28125 
Q 10.40625 8.6875 15.234375 7.390625 
Q 20.0625 6.109375 24.8125 6.109375 
Q 31.15625 6.109375 34.5625 8.28125 
Q 37.984375 10.453125 37.984375 14.40625 
Q 37.984375 18.0625 35.515625 20.015625 
Q 33.0625 21.96875 24.703125 23.78125 
L 21.578125 24.515625 
Q 13.234375 26.265625 9.515625 29.90625 
Q 5.8125 33.546875 5.8125 39.890625 
Q 5.8125 47.609375 11.28125 51.796875 
Q 16.75 56 26.8125 56 
Q 31.78125 56 36.171875 55.265625 
Q 40.578125 54.546875 44.28125 53.078125 
z
" id="DejaVuSans-115"/>
       <path d="M 56.203125 29.59375 
L 56.203125 25.203125 
L 14.890625 25.203125 
Q 15.484375 15.921875 20.484375 11.0625 
Q 25.484375 6.203125 34.421875 6.203125 
Q 39.59375 6.203125 44.453125 7.46875 
Q 49.3125 8.734375 54.109375 11.28125 
L 54.109375 2.78125 
Q 49.265625 0.734375 44.1875 -0.34375 
Q 39.109375 -1.421875 33.890625 -1.421875 
Q 20.796875 -1.421875 13.15625 6.1875 
Q 5.515625 13.8125 5.515625 26.8125 
Q 5.515625 40.234375 12.765625 48.109375 
Q 20.015625 56 32.328125 56 
Q 43.359375 56 49.78125 48.890625 
Q 56.203125 41.796875 56.203125 29.59375 
z
M 47.21875 32.234375 
Q 47.125 39.59375 43.09375 43.984375 
Q 39.0625 48.390625 32.421875 48.390625 
Q 24.90625 48.390625 20.390625 44.140625 
Q 15.875 39.890625 15.1875 32.171875 
z
" id="DejaVuSans-101"/>
       <path d="M 48.78125 52.59375 
L 48.78125 44.1875 
Q 44.96875 46.296875 41.140625 47.34375 
Q 37.3125 48.390625 33.40625 48.390625 
Q 24.65625 48.390625 19.8125 42.84375 
Q 14.984375 37.3125 14.984375 27.296875 
Q 14.984375 17.28125 19.8125 11.734375 
Q 24.65625 6.203125 33.40625 6.203125 
Q 37.3125 6.203125 41.140625 7.25 
Q 44.96875 8.296875 48.78125 10.40625 
L 48.78125 2.09375 
Q 45.015625 0.34375 40.984375 -0.53125 
Q 36.96875 -1.421875 32.421875 -1.421875 
Q 20.0625 -1.421875 12.78125 6.34375 
Q 5.515625 14.109375 5.515625 27.296875 
Q 5.515625 40.671875 12.859375 48.328125 
Q 20.21875 56 33.015625 56 
Q 37.15625 56 41.109375 55.140625 
Q 45.0625 54.296875 48.78125 52.59375 
z
" id="DejaVuSans-99"/>
       <path d="M 8.015625 75.875 
L 15.828125 75.875 
Q 23.140625 64.359375 26.78125 53.3125 
Q 30.421875 42.28125 30.421875 31.390625 
Q 30.421875 20.453125 26.78125 9.375 
Q 23.140625 -1.703125 15.828125 -13.1875 
L 8.015625 -13.1875 
Q 14.5 -2 17.703125 9.0625 
Q 20.90625 20.125 20.90625 31.390625 
Q 20.90625 42.671875 17.703125 53.65625 
Q 14.5 64.65625 8.015625 75.875 
z
" id="DejaVuSans-41"/>
      </defs>
      <use xlink:href="#DejaVuSans-116"/>
      <use x="39.208984" xlink:href="#DejaVuSans-32"/>
      <use x="70.996094" xlink:href="#DejaVuSans-40"/>
      <use x="110.009766" xlink:href="#DejaVuSans-115"/>
      <use x="162.109375" xlink:href="#DejaVuSans-101"/>
      <use x="223.632812" xlink:href="#DejaVuSans-99"/>
      <use x="278.613281" xlink:href="#DejaVuSans-41"/>
     </g>
    </g>
   </g>
   <g id="matplotlib.axis_2">
    <g id="ytick_1">
     <g id="line2d_7">
      <defs>
       <path d="M 0 0 
L -3.5 0 
" id="m65f49ea5b9" style="stroke:#000000;stroke-width:0.8;"/>
      </defs>
      <g>
       <use style="stroke:#000000;stroke-width:0.8;" x="54" xlink:href="#m65f49ea5b9" y="244.006187"/>
      </g>
     </g>
     <g id="text_8">
      <!-- −0.10 -->
      <g transform="translate(16.354687 247.805405)scale(0.1 -0.1)">
       <defs>
        <path d="M 10.59375 35.5 
L 73.1875 35.5 
L 73.1875 27.203125 
L 10.59375 27.203125 
z
" id="DejaVuSans-8722"/>
       </defs>
       <use xlink:href="#DejaVuSans-8722"/>
       <use x="83.789062" xlink:href="#DejaVuSans-48"/>
       <use x="147.412109" xlink:href="#DejaVuSans-46"/>
       <use x="179.199219" xlink:href="#DejaVuSans-49"/>
       <use x="242.822266" xlink:href="#DejaVuSans-48"/>
      </g>
     </g>
    </g>
    <g id="ytick_2">
     <g id="line2d_8">
      <g>
       <use style="stroke:#000000;stroke-width:0.8;" x="54" xlink:href="#m65f49ea5b9" y="204.093677"/>
      </g>
     </g>
     <g id="text_9">
      <!-- −0.05 -->
      <g transform="translate(16.354687 207.892895)scale(0.1 -0.1)">
       <defs>
        <path d="M 10.796875 72.90625 
L 49.515625 72.90625 
L 49.515625 64.59375 
L 19.828125 64.59375 
L 19.828125 46.734375 
Q 21.96875 47.46875 24.109375 47.828125 
Q 26.265625 48.1875 28.421875 48.1875 
Q 40.625 48.1875 47.75 41.5 
Q 54.890625 34.8125 54.890625 23.390625 
Q 54.890625 11.625 47.5625 5.09375 
Q 40.234375 -1.421875 26.90625 -1.421875 
Q 22.3125 -1.421875 17.546875 -0.640625 
Q 12.796875 0.140625 7.71875 1.703125 
L 7.71875 11.625 
Q 12.109375 9.234375 16.796875 8.0625 
Q 21.484375 6.890625 26.703125 6.890625 
Q 35.15625 6.890625 40.078125 11.328125 
Q 45.015625 15.765625 45.015625 23.390625 
Q 45.015625 31 40.078125 35.4375 
Q 35.15625 39.890625 26.703125 39.890625 
Q 22.75 39.890625 18.8125 39.015625 
Q 14.890625 38.140625 10.796875 36.28125 
z
" id="DejaVuSans-53"/>
       </defs>
       <use xlink:href="#DejaVuSans-8722"/>
       <use x="83.789062" xlink:href="#DejaVuSans-48"/>
       <use x="147.412109" xlink:href="#DejaVuSans-46"/>
       <use x="179.199219" xlink:href="#DejaVuSans-48"/>
       <use x="242.822266" xlink:href="#DejaVuSans-53"/>
      </g>
     </g>
    </g>
    <g id="ytick_3">
     <g id="line2d_9">
      <g>
       <use style="stroke:#000000;stroke-width:0.8;" x="54" xlink:href="#m65f49ea5b9" y="164.181167"/>
      </g>
     </g>
     <g id="text_10">
      <!-- 0.00 -->
      <g transform="translate(24.734375 167.980385)scale(0.1 -0.1)">
       <use xlink:href="#DejaVuSans-48"/>
       <use x="63.623047" xlink:href="#DejaVuSans-46"/>
       <use x="95.410156" xlink:href="#DejaVuSans-48"/>
       <use x="159.033203" xlink:href="#DejaVuSans-48"/>
      </g>
     </g>
    </g>
    <g id="ytick_4">
     <g id="line2d_10">
      <g>
       <use style="stroke:#000000;stroke-width:0.8;" x="54" xlink:href="#m65f49ea5b9" y="124.268656"/>
      </g>
     </g>
     <g id="text_11">
      <!-- 0.05 -->
      <g transform="translate(24.734375 128.067875)scale(0.1 -0.1)">
       <use xlink:href="#DejaVuSans-48"/>
       <use x="63.623047" xlink:href="#DejaVuSans-46"/>
       <use x="95.410156" xlink:href="#DejaVuSans-48"/>
       <use x="159.033203" xlink:href="#DejaVuSans-53"/>
      </g>
     </g>
    </g>
    <g id="ytick_5">
     <g id="line2d_11">
      <g>
       <use style="stroke:#000000;stroke-width:0.8;" x="54" xlink:href="#m65f49ea5b9" y="84.356146"/>
      </g>
     </g>
     <g id="text_12">
      <!-- 0.10 -->
      <g transform="translate(24.734375 88.155365)scale(0.1 -0.1)">
       <use xlink:href="#DejaVuSans-48"/>
       <use x="63.623047" xlink:href="#DejaVuSans-46"/>
       <use x="95.410156" xlink:href="#DejaVuSans-49"/>
       <use x="159.033203" xlink:href="#DejaVuSans-48"/>
      </g>
     </g>
    </g>
    <g id="ytick_6">
     <g id="line2d_12">
      <g>
       <use style="stroke:#000000;stroke-width:0.8;" x="54" xlink:href="#m65f49ea5b9" y="44.443636"/>
      </g>
     </g>
     <g id="text_13">
      <!-- 0.15 -->
      <g transform="translate(24.734375 48.242855)scale(0.1 -0.1)">
       <use xlink:href="#DejaVuSans-48"/>
       <use x="63.623047" xlink:href="#DejaVuSans-46"/>
       <use x="95.410156" xlink:href="#DejaVuSans-49"/>
       <use x="159.033203" xlink:href="#DejaVuSans-53"/>
      </g>
     </g>
    </g>
    <g id="text_14">
     <!-- x (m) -->
     <g transform="translate(10.275 156.600313)rotate(-90)scale(0.1 -0.1)">
      <defs>
       <path d="M 54.890625 54.6875 
L 35.109375 28.078125 
L 55.90625 0 
L 45.3125 0 
L 29.390625 21.484375 
L 13.484375 0 
L 2.875 0 
L 24.125 28.609375 
L 4.6875 54.6875 
L 15.28125 54.6875 
L 29.78125 35.203125 
L 44.28125 54.6875 
z
" id="DejaVuSans-120"/>
       <path d="M 52 44.1875 
Q 55.375 50.25 60.0625 53.125 
Q 64.75 56 71.09375 56 
Q 79.640625 56 84.28125 50.015625 
Q 88.921875 44.046875 88.921875 33.015625 
L 88.921875 0 
L 79.890625 0 
L 79.890625 32.71875 
Q 79.890625 40.578125 77.09375 44.375 
Q 74.3125 48.1875 68.609375 48.1875 
Q 61.625 48.1875 57.5625 43.546875 
Q 53.515625 38.921875 53.515625 30.90625 
L 53.515625 0 
L 44.484375 0 
L 44.484375 32.71875 
Q 44.484375 40.625 41.703125 44.40625 
Q 38.921875 48.1875 33.109375 48.1875 
Q 26.21875 48.1875 22.15625 43.53125 
Q 18.109375 38.875 18.109375 30.90625 
L 18.109375 0 
L 9.078125 0 
L 9.078125 54.6875 
L 18.109375 54.6875 
L 18.109375 46.1875 
Q 21.1875 51.21875 25.484375 53.609375 
Q 29.78125 56 35.6875 56 
Q 41.65625 56 45.828125 52.96875 
Q 50 49.953125 52 44.1875 
z
" id="DejaVuSans-109"/>
      </defs>
      <use xlink:href="#DejaVuSans-120"/>
      <use x="59.179688" xlink:href="#DejaVuSans-32"/>
      <use x="90.966797" xlink:href="#DejaVuSans-40"/>
      <use x="129.980469" xlink:href="#DejaVuSans-109"/>
      <use x="227.392578" xlink:href="#DejaVuSans-41"/>
     </g>
    </g>
   </g>
   <g id="line2d_13">
    <path clip-path="url(#p056d1316f2)" d="M 69.218182 44.443636 
L 79.262182 44.555591 
L 89.306182 44.884869 
L 99.350182 45.431471 
L 109.394182 46.195396 
L 119.438182 47.176645 
L 129.482182 48.375218 
L 139.830545 49.837413 
L 150.178909 51.530302 
L 160.527273 53.453886 
L 170.875636 55.608163 
L 181.224 57.993135 
L 191.572364 60.608802 
L 201.920727 63.455162 
L 212.269091 66.532217 
L 222.617455 69.839967 
L 232.965818 73.37841 
L 243.314182 77.147548 
L 253.662545 81.14738 
L 264.315273 85.505826 
L 274.968 90.108737 
L 282.881455 93.530531 
L 288.664364 94.809154 
L 292.012364 95.240753 
L 295.056 95.404818 
L 300.230182 95.374806 
L 317.274545 95.401698 
L 373.581818 95.405653 
L 373.581818 95.405653 
" style="fill:none;stroke:#1f77b4;stroke-linecap:square;stroke-width:1.5;"/>
   </g>
   <g id="line2d_14">
    <path clip-path="url(#p056d1316f2)" d="M 69.218182 44.443636 
L 76.522909 44.563374 
L 83.827636 44.913007 
L 91.132364 45.492537 
L 98.437091 46.301963 
L 105.741818 47.341285 
L 113.046545 48.610502 
L 120.351273 50.109616 
L 127.656 51.838626 
L 134.960727 53.797532 
L 142.265455 55.986334 
L 149.570182 58.405032 
L 156.874909 61.053627 
L 164.179636 63.932117 
L 171.788727 67.175008 
L 179.397818 70.667353 
L 187.006909 74.409151 
L 194.616 78.400402 
L 202.225091 82.641106 
L 209.834182 87.131263 
L 217.747636 92.065647 
L 220.182545 93.521183 
L 225.661091 95.522901 
L 229.617818 96.6246 
L 232.661455 97.254266 
L 235.705091 97.683068 
L 239.053091 97.923499 
L 242.705455 97.936913 
L 258.228 97.944352 
L 373.581818 97.963547 
L 373.581818 97.963547 
" style="fill:none;stroke:#ff7f0e;stroke-linecap:square;stroke-width:1.5;"/>
   </g>
   <g id="line2d_15">
    <path clip-path="url(#p056d1316f2)" d="M 69.218182 44.443636 
L 74.392364 44.565769 
L 79.566545 44.918595 
L 84.740727 45.502116 
L 89.914909 46.316331 
L 95.089091 47.361241 
L 100.263273 48.636845 
L 105.437455 50.143143 
L 110.611636 51.880135 
L 115.785818 53.847822 
L 120.96 56.046203 
L 126.134182 58.475278 
L 131.612727 61.298689 
L 137.091273 64.380733 
L 142.569818 67.72141 
L 148.048364 71.320721 
L 153.526909 75.178664 
L 159.309818 79.531522 
L 165.092727 84.172549 
L 170.875636 89.101744 
L 176.354182 93.780995 
L 183.658909 97.721216 
L 187.615636 99.49611 
L 191.268 100.929892 
L 195.529091 102.262952 
L 198.877091 103.076117 
L 202.529455 103.726597 
L 205.877455 104.105996 
L 209.225455 104.277863 
L 215.617091 104.282834 
L 323.361818 104.318343 
L 373.581818 104.335843 
L 373.581818 104.335843 
" style="fill:none;stroke:#2ca02c;stroke-linecap:square;stroke-width:1.5;"/>
   </g>
   <g id="line2d_16">
    <path clip-path="url(#p056d1316f2)" d="M 69.218182 44.443636 
L 72.870545 44.568163 
L 76.522909 44.922586 
L 80.175273 45.506906 
L 83.827636 46.321121 
L 87.48 47.365232 
L 91.132364 48.639239 
L 94.784727 50.143143 
L 98.437091 51.876942 
L 102.393818 54.014656 
L 106.350545 56.422179 
L 110.307273 59.09951 
L 114.264 62.04665 
L 118.220727 65.263598 
L 122.481818 69.029743 
L 126.742909 73.108801 
L 131.004 77.500774 
L 135.265091 82.20566 
L 139.830545 87.593849 
L 145.309091 94.144533 
L 149.874545 97.920441 
L 152.309455 99.907123 
L 159.614182 105.544324 
L 165.397091 109.54068 
L 169.962545 112.404703 
L 174.528 115.010481 
L 179.093455 117.357586 
L 183.658909 119.446051 
L 188.224364 121.275874 
L 192.485455 122.750356 
L 196.746545 123.999532 
L 201.007636 125.023403 
L 205.268727 125.821967 
L 209.529818 126.395226 
L 213.790909 126.743178 
L 218.052 126.865825 
L 373.581818 126.977615 
L 373.581818 126.977615 
" style="fill:none;stroke:#d62728;stroke-linecap:square;stroke-width:1.5;"/>
   </g>
   <g id="line2d_17">
    <path clip-path="url(#p056d1316f2)" d="M 69.218182 44.443636 
L 72.261818 44.575348 
L 75.305455 44.946534 
L 78.349091 45.557195 
L 81.392727 46.407332 
L 84.436364 47.496943 
L 87.48 48.82603 
L 90.523636 50.394592 
L 93.567273 52.202628 
L 96.915273 54.468062 
L 100.263273 57.023261 
L 103.611273 59.868225 
L 106.959273 63.002954 
L 110.307273 66.427447 
L 113.959636 70.493733 
L 117.612 74.904864 
L 121.264364 79.660839 
L 125.221091 85.202292 
L 129.177818 91.148457 
L 131.004 93.892242 
L 146.222182 109.784086 
L 152.005091 115.6848 
L 158.701091 122.18939 
L 165.701455 128.67841 
L 172.701818 134.858372 
L 179.397818 140.480659 
L 186.093818 145.820395 
L 192.789818 150.877578 
L 199.485818 155.652208 
L 206.181818 160.144286 
L 212.573455 164.168599 
L 218.965091 167.935463 
L 225.356727 171.444876 
L 231.748364 174.69684 
L 238.14 177.691354 
L 244.227273 180.30392 
L 250.314545 182.682972 
L 256.401818 184.828509 
L 262.489091 186.740531 
L 268.576364 188.419039 
L 274.663636 189.864033 
L 280.750909 191.075512 
L 286.838182 192.053476 
L 292.925455 192.797926 
L 299.012727 193.308862 
L 305.1 193.586283 
L 311.491636 193.639866 
L 373.581818 193.72168 
L 373.581818 193.72168 
" style="fill:none;stroke:#9467bd;stroke-linecap:square;stroke-width:1.5;"/>
   </g>
   <g id="line2d_18">
    <path clip-path="url(#p056d1316f2)" d="M 69.218182 44.443636 
L 71.653091 44.558584 
L 74.088 44.877884 
L 76.522909 45.401537 
L 78.957818 46.129541 
L 81.697091 47.19281 
L 84.436364 48.514712 
L 87.175636 50.095248 
L 89.914909 51.934416 
L 92.654182 54.032218 
L 95.393455 56.388652 
L 98.437091 59.310248 
L 101.480727 62.551144 
L 104.524364 66.11134 
L 107.872364 70.396347 
L 111.220364 75.067707 
L 114.568364 80.12542 
L 117.916364 85.569487 
L 121.568727 91.949102 
L 122.786182 94.017291 
L 128.569091 101.113367 
L 131.612727 104.963398 
L 140.439273 116.405526 
L 150.787636 129.932095 
L 237.531273 241.578697 
L 237.835636 241.810449 
L 238.444364 241.888999 
L 239.357455 241.631452 
L 242.705455 240.471312 
L 245.444727 239.801005 
L 247.879636 239.422301 
L 250.314545 239.247949 
L 252.749455 239.277949 
L 255.184364 239.512301 
L 257.619273 239.951005 
L 260.054182 240.594061 
L 262.489091 241.265994 
L 263.706545 241.363746 
L 269.489455 241.16073 
L 272.533091 241.248908 
L 282.577091 241.234909 
L 373.581818 241.234189 
L 373.581818 241.234189 
" style="fill:none;stroke:#8c564b;stroke-linecap:square;stroke-width:1.5;"/>
   </g>
   <g id="line2d_19">
    <path clip-path="url(#p056d1316f2)" d="M 69.218182 44.443636 
L 71.348727 44.555391 
L 73.479273 44.862718 
L 75.914182 45.453423 
L 78.349091 46.299568 
L 80.784 47.401153 
L 83.218909 48.758179 
L 85.653818 50.370644 
L 88.088727 52.23855 
L 90.828 54.645274 
L 93.567273 57.37529 
L 96.306545 60.428597 
L 99.045818 63.805195 
L 102.089455 67.93614 
L 105.133091 72.46621 
L 108.176727 77.395405 
L 111.220364 82.723725 
L 114.568364 89.045866 
L 117.307636 94.214488 
L 121.264364 99.674174 
L 131.917091 115.481013 
L 137.7 124.603082 
L 152.005091 147.899781 
L 160.222909 161.735022 
L 168.745091 176.505917 
L 177.571636 192.257004 
L 186.398182 208.468691 
L 195.224727 225.140978 
L 204.051273 242.003693 
L 204.355636 242.116364 
L 204.964364 242.038195 
L 206.486182 241.42505 
L 208.921091 240.49888 
L 211.356 239.827651 
L 213.790909 239.411862 
L 216.225818 239.251513 
L 218.356364 239.320748 
L 220.486909 239.585554 
L 222.921818 240.127666 
L 227.791636 241.38808 
L 229.313455 241.277109 
L 231.748364 241.113523 
L 234.183273 241.199437 
L 237.226909 241.253055 
L 248.792727 241.239599 
L 373.581818 241.239681 
L 373.581818 241.239681 
" style="fill:none;stroke:#e377c2;stroke-linecap:square;stroke-width:1.5;"/>
   </g>
   <g id="patch_3">
    <path d="M 54 252 
L 54 34.56 
" style="fill:none;stroke:#000000;stroke-linecap:square;stroke-linejoin:miter;stroke-width:0.8;"/>
   </g>
   <g id="patch_4">
    <path d="M 388.8 252 
L 388.8 34.56 
" style="fill:none;stroke:#000000;stroke-linecap:square;stroke-linejoin:miter;stroke-width:0.8;"/>
   </g>
   <g id="patch_5">
    <path d="M 54 252 
L 388.8 252 
" style="fill:none;stroke:#000000;stroke-linecap:square;stroke-linejoin:miter;stroke-width:0.8;"/>
   </g>
   <g id="patch_6">
    <path d="M 54 34.56 
L 388.8 34.56 
" style="fill:none;stroke:#000000;stroke-linecap:square;stroke-linejoin:miter;stroke-width:0.8;"/>
   </g>
   <g id="legend_1">
    <g id="patch_7">
     <path d="M 61 247 
L 141.2 247 
Q 143.2 247 143.2 245 
L 143.2 143.253125 
Q 143.2 141.253125 141.2 141.253125 
L 61 141.253125 
Q 59 141.253125 59 143.253125 
L 59 245 
Q 59 247 61 247 
z
" style="fill:#ffffff;opacity:0.8;stroke:#cccccc;stroke-linejoin:miter;"/>
    </g>
    <g id="line2d_20">
     <path d="M 63 149.351562 
L 83 149.351562 
" style="fill:none;stroke:#1f77b4;stroke-linecap:square;stroke-width:1.5;"/>
    </g>
    <g id="line2d_21"/>
    <g id="text_15">
     <!-- $f^{c_d}$ = 0.25 -->
     <g transform="translate(91 152.851562)scale(0.1 -0.1)">
      <defs>
       <path d="M 47.796875 75.984375 
L 46.390625 68.5 
L 37.796875 68.5 
Q 32.90625 68.5 30.6875 66.578125 
Q 28.46875 64.65625 27.390625 59.515625 
L 26.421875 54.6875 
L 41.21875 54.6875 
L 39.890625 47.703125 
L 25.09375 47.703125 
L 15.828125 0 
L 6.78125 0 
L 16.109375 47.703125 
L 7.515625 47.703125 
L 8.796875 54.6875 
L 17.390625 54.6875 
L 18.109375 58.5 
Q 19.96875 68.171875 24.625 72.078125 
Q 29.296875 75.984375 39.3125 75.984375 
z
" id="DejaVuSans-Oblique-102"/>
       <path d="M 53.609375 52.59375 
L 51.8125 43.703125 
Q 48.578125 46.046875 44.9375 47.21875 
Q 41.3125 48.390625 37.40625 48.390625 
Q 33.109375 48.390625 29.21875 46.875 
Q 25.34375 45.359375 22.703125 42.578125 
Q 18.5 38.328125 16.203125 32.609375 
Q 13.921875 26.90625 13.921875 20.796875 
Q 13.921875 13.421875 17.609375 9.8125 
Q 21.296875 6.203125 28.8125 6.203125 
Q 32.515625 6.203125 36.6875 7.328125 
Q 40.875 8.453125 45.40625 10.6875 
L 43.703125 1.8125 
Q 39.796875 0.203125 35.671875 -0.609375 
Q 31.546875 -1.421875 27.203125 -1.421875 
Q 16.3125 -1.421875 10.453125 4.015625 
Q 4.59375 9.46875 4.59375 19.578125 
Q 4.59375 28.078125 7.640625 35.234375 
Q 10.6875 42.390625 16.703125 48.09375 
Q 20.796875 52 26.3125 54 
Q 31.84375 56 38.375 56 
Q 42.1875 56 45.9375 55.140625 
Q 49.703125 54.296875 53.609375 52.59375 
z
" id="DejaVuSans-Oblique-99"/>
       <path d="M 41.796875 8.203125 
Q 38.1875 3.46875 33.25 1.015625 
Q 28.328125 -1.421875 22.3125 -1.421875 
Q 14.109375 -1.421875 9.34375 4.171875 
Q 4.59375 9.765625 4.59375 19.484375 
Q 4.59375 27.59375 7.46875 34.9375 
Q 10.359375 42.28125 15.828125 48.09375 
Q 19.4375 51.953125 23.96875 53.96875 
Q 28.515625 56 33.5 56 
Q 38.765625 56 42.796875 53.453125 
Q 46.828125 50.921875 49.03125 46.1875 
L 54.890625 75.984375 
L 63.921875 75.984375 
L 49.125 0 
L 40.09375 0 
z
M 13.921875 21.09375 
Q 13.921875 14.015625 17.109375 10.0625 
Q 20.3125 6.109375 25.984375 6.109375 
Q 30.171875 6.109375 33.765625 8.125 
Q 37.359375 10.15625 40.09375 14.109375 
Q 42.96875 18.21875 44.625 23.578125 
Q 46.296875 28.953125 46.296875 34.1875 
Q 46.296875 40.96875 43.09375 44.765625 
Q 39.890625 48.578125 34.28125 48.578125 
Q 30.03125 48.578125 26.359375 46.578125 
Q 22.703125 44.578125 20.125 40.828125 
Q 17.28125 36.765625 15.59375 31.390625 
Q 13.921875 26.03125 13.921875 21.09375 
z
" id="DejaVuSans-Oblique-100"/>
       <path d="M 10.59375 45.40625 
L 73.1875 45.40625 
L 73.1875 37.203125 
L 10.59375 37.203125 
z
M 10.59375 25.484375 
L 73.1875 25.484375 
L 73.1875 17.1875 
L 10.59375 17.1875 
z
" id="DejaVuSans-61"/>
      </defs>
      <use transform="translate(0 0.51875)" xlink:href="#DejaVuSans-Oblique-102"/>
      <use transform="translate(42.652786 38.8)scale(0.7)" xlink:href="#DejaVuSans-Oblique-99"/>
      <use transform="translate(81.139115 27.315625)scale(0.49)" xlink:href="#DejaVuSans-Oblique-100"/>
      <use transform="translate(116.891068 0.51875)" xlink:href="#DejaVuSans-32"/>
      <use transform="translate(148.678177 0.51875)" xlink:href="#DejaVuSans-61"/>
      <use transform="translate(232.46724 0.51875)" xlink:href="#DejaVuSans-32"/>
      <use transform="translate(264.254349 0.51875)" xlink:href="#DejaVuSans-48"/>
      <use transform="translate(327.877396 0.51875)" xlink:href="#DejaVuSans-46"/>
      <use transform="translate(354.164505 0.51875)" xlink:href="#DejaVuSans-50"/>
      <use transform="translate(417.787552 0.51875)" xlink:href="#DejaVuSans-53"/>
     </g>
    </g>
    <g id="line2d_22">
     <path d="M 63 164.029688 
L 83 164.029688 
" style="fill:none;stroke:#ff7f0e;stroke-linecap:square;stroke-width:1.5;"/>
    </g>
    <g id="line2d_23"/>
    <g id="text_16">
     <!-- $f^{c_d}$ = 0.5 -->
     <g transform="translate(91 167.529688)scale(0.1 -0.1)">
      <use transform="translate(0 0.51875)" xlink:href="#DejaVuSans-Oblique-102"/>
      <use transform="translate(42.652786 38.8)scale(0.7)" xlink:href="#DejaVuSans-Oblique-99"/>
      <use transform="translate(81.139115 27.315625)scale(0.49)" xlink:href="#DejaVuSans-Oblique-100"/>
      <use transform="translate(116.891068 0.51875)" xlink:href="#DejaVuSans-32"/>
      <use transform="translate(148.678177 0.51875)" xlink:href="#DejaVuSans-61"/>
      <use transform="translate(232.46724 0.51875)" xlink:href="#DejaVuSans-32"/>
      <use transform="translate(264.254349 0.51875)" xlink:href="#DejaVuSans-48"/>
      <use transform="translate(327.877396 0.51875)" xlink:href="#DejaVuSans-46"/>
      <use transform="translate(359.664505 0.51875)" xlink:href="#DejaVuSans-53"/>
     </g>
    </g>
    <g id="line2d_24">
     <path d="M 63 178.707812 
L 83 178.707812 
" style="fill:none;stroke:#2ca02c;stroke-linecap:square;stroke-width:1.5;"/>
    </g>
    <g id="line2d_25"/>
    <g id="text_17">
     <!-- $f^{c_d}$ = 1.0 -->
     <g transform="translate(91 182.207812)scale(0.1 -0.1)">
      <use transform="translate(0 0.51875)" xlink:href="#DejaVuSans-Oblique-102"/>
      <use transform="translate(42.652786 38.8)scale(0.7)" xlink:href="#DejaVuSans-Oblique-99"/>
      <use transform="translate(81.139115 27.315625)scale(0.49)" xlink:href="#DejaVuSans-Oblique-100"/>
      <use transform="translate(116.891068 0.51875)" xlink:href="#DejaVuSans-32"/>
      <use transform="translate(148.678177 0.51875)" xlink:href="#DejaVuSans-61"/>
      <use transform="translate(232.46724 0.51875)" xlink:href="#DejaVuSans-32"/>
      <use transform="translate(264.254349 0.51875)" xlink:href="#DejaVuSans-49"/>
      <use transform="translate(327.877396 0.51875)" xlink:href="#DejaVuSans-46"/>
      <use transform="translate(359.664505 0.51875)" xlink:href="#DejaVuSans-48"/>
     </g>
    </g>
    <g id="line2d_26">
     <path d="M 63 193.385938 
L 83 193.385938 
" style="fill:none;stroke:#d62728;stroke-linecap:square;stroke-width:1.5;"/>
    </g>
    <g id="line2d_27"/>
    <g id="text_18">
     <!-- $f^{c_d}$ = 2.0 -->
     <g transform="translate(91 196.885938)scale(0.1 -0.1)">
      <use transform="translate(0 0.51875)" xlink:href="#DejaVuSans-Oblique-102"/>
      <use transform="translate(42.652786 38.8)scale(0.7)" xlink:href="#DejaVuSans-Oblique-99"/>
      <use transform="translate(81.139115 27.315625)scale(0.49)" xlink:href="#DejaVuSans-Oblique-100"/>
      <use transform="translate(116.891068 0.51875)" xlink:href="#DejaVuSans-32"/>
      <use transform="translate(148.678177 0.51875)" xlink:href="#DejaVuSans-61"/>
      <use transform="translate(232.46724 0.51875)" xlink:href="#DejaVuSans-32"/>
      <use transform="translate(264.254349 0.51875)" xlink:href="#DejaVuSans-50"/>
      <use transform="translate(327.877396 0.51875)" xlink:href="#DejaVuSans-46"/>
      <use transform="translate(359.664505 0.51875)" xlink:href="#DejaVuSans-48"/>
     </g>
    </g>
    <g id="line2d_28">
     <path d="M 63 208.064063 
L 83 208.064063 
" style="fill:none;stroke:#9467bd;stroke-linecap:square;stroke-width:1.5;"/>
    </g>
    <g id="line2d_29"/>
    <g id="text_19">
     <!-- $f^{c_d}$ = 3.0 -->
     <g transform="translate(91 211.564063)scale(0.1 -0.1)">
      <defs>
       <path d="M 40.578125 39.3125 
Q 47.65625 37.796875 51.625 33 
Q 55.609375 28.21875 55.609375 21.1875 
Q 55.609375 10.40625 48.1875 4.484375 
Q 40.765625 -1.421875 27.09375 -1.421875 
Q 22.515625 -1.421875 17.65625 -0.515625 
Q 12.796875 0.390625 7.625 2.203125 
L 7.625 11.71875 
Q 11.71875 9.328125 16.59375 8.109375 
Q 21.484375 6.890625 26.8125 6.890625 
Q 36.078125 6.890625 40.9375 10.546875 
Q 45.796875 14.203125 45.796875 21.1875 
Q 45.796875 27.640625 41.28125 31.265625 
Q 36.765625 34.90625 28.71875 34.90625 
L 20.21875 34.90625 
L 20.21875 43.015625 
L 29.109375 43.015625 
Q 36.375 43.015625 40.234375 45.921875 
Q 44.09375 48.828125 44.09375 54.296875 
Q 44.09375 59.90625 40.109375 62.90625 
Q 36.140625 65.921875 28.71875 65.921875 
Q 24.65625 65.921875 20.015625 65.03125 
Q 15.375 64.15625 9.8125 62.3125 
L 9.8125 71.09375 
Q 15.4375 72.65625 20.34375 73.4375 
Q 25.25 74.21875 29.59375 74.21875 
Q 40.828125 74.21875 47.359375 69.109375 
Q 53.90625 64.015625 53.90625 55.328125 
Q 53.90625 49.265625 50.4375 45.09375 
Q 46.96875 40.921875 40.578125 39.3125 
z
" id="DejaVuSans-51"/>
      </defs>
      <use transform="translate(0 0.51875)" xlink:href="#DejaVuSans-Oblique-102"/>
      <use transform="translate(42.652786 38.8)scale(0.7)" xlink:href="#DejaVuSans-Oblique-99"/>
      <use transform="translate(81.139115 27.315625)scale(0.49)" xlink:href="#DejaVuSans-Oblique-100"/>
      <use transform="translate(116.891068 0.51875)" xlink:href="#DejaVuSans-32"/>
      <use transform="translate(148.678177 0.51875)" xlink:href="#DejaVuSans-61"/>
      <use transform="translate(232.46724 0.51875)" xlink:href="#DejaVuSans-32"/>
      <use transform="translate(264.254349 0.51875)" xlink:href="#DejaVuSans-51"/>
      <use transform="translate(327.877396 0.51875)" xlink:href="#DejaVuSans-46"/>
      <use transform="translate(359.664505 0.51875)" xlink:href="#DejaVuSans-48"/>
     </g>
    </g>
    <g id="line2d_30">
     <path d="M 63 222.742188 
L 83 222.742188 
" style="fill:none;stroke:#8c564b;stroke-linecap:square;stroke-width:1.5;"/>
    </g>
    <g id="line2d_31"/>
    <g id="text_20">
     <!-- $f^{c_d}$ = 4.0 -->
     <g transform="translate(91 226.242188)scale(0.1 -0.1)">
      <use transform="translate(0 0.51875)" xlink:href="#DejaVuSans-Oblique-102"/>
      <use transform="translate(42.652786 38.8)scale(0.7)" xlink:href="#DejaVuSans-Oblique-99"/>
      <use transform="translate(81.139115 27.315625)scale(0.49)" xlink:href="#DejaVuSans-Oblique-100"/>
      <use transform="translate(116.891068 0.51875)" xlink:href="#DejaVuSans-32"/>
      <use transform="translate(148.678177 0.51875)" xlink:href="#DejaVuSans-61"/>
      <use transform="translate(232.46724 0.51875)" xlink:href="#DejaVuSans-32"/>
      <use transform="translate(264.254349 0.51875)" xlink:href="#DejaVuSans-52"/>
      <use transform="translate(327.877396 0.51875)" xlink:href="#DejaVuSans-46"/>
      <use transform="translate(359.664505 0.51875)" xlink:href="#DejaVuSans-48"/>
     </g>
    </g>
    <g id="line2d_32">
     <path d="M 63 237.420312 
L 83 237.420312 
" style="fill:none;stroke:#e377c2;stroke-linecap:square;stroke-width:1.5;"/>
    </g>
    <g id="line2d_33"/>
    <g id="text_21">
     <!-- $f^{c_d}$ = 5.0 -->
     <g transform="translate(91 240.920312)scale(0.1 -0.1)">
      <use transform="translate(0 0.51875)" xlink:href="#DejaVuSans-Oblique-102"/>
      <use transform="translate(42.652786 38.8)scale(0.7)" xlink:href="#DejaVuSans-Oblique-99"/>
      <use transform="translate(81.139115 27.315625)scale(0.49)" xlink:href="#DejaVuSans-Oblique-100"/>
      <use transform="translate(116.891068 0.51875)" xlink:href="#DejaVuSans-32"/>
      <use transform="translate(148.678177 0.51875)" xlink:href="#DejaVuSans-61"/>
      <use transform="translate(232.46724 0.51875)" xlink:href="#DejaVuSans-32"/>
      <use transform="translate(264.254349 0.51875)" xlink:href="#DejaVuSans-53"/>
      <use transform="translate(327.877396 0.51875)" xlink:href="#DejaVuSans-46"/>
      <use transform="translate(359.664505 0.51875)" xlink:href="#DejaVuSans-48"/>
     </g>
    </g>
   </g>
  </g>
 </g>
 <defs>
  <clipPath id="p056d1316f2">
   <rect height="217.44" width="334.8" x="54" y="34.56"/>
  </clipPath>
 </defs>
</svg>
