<?xml version="1.0" encoding="utf-8" standalone="no"?>
<!DOCTYPE svg PUBLIC "-//W3C//DTD SVG 1.1//EN"
  "http://www.w3.org/Graphics/SVG/1.1/DTD/svg11.dtd">
<svg xmlns:xlink="http://www.w3.org/1999/xlink" width="432pt" height="288pt" viewBox="0 0 432 288" xmlns="http://www.w3.org/2000/svg" version="1.1">
 <metadata>
  <rdf:RDF xmlns:dc="http://purl.org/dc/elements/1.1/" xmlns:cc="http://creativecommons.org/ns#" xmlns:rdf="http://www.w3.org/1999/02/22-rdf-syntax-ns#">
   <cc:Work>
    <dc:type rdf:resource="http://purl.org/dc/dcmitype/StillImage"/>
    <dc:date>2022-11-01T07:03:55.097226</dc:date>
    <dc:format>image/svg+xml</dc:format>
    <dc:creator>
     <cc:Agent>
      <dc:title>Matplotlib v3.5.0, https://matplotlib.org/</dc:title>
     </cc:Agent>
    </dc:creator>
   </cc:Work>
  </rdf:RDF>
 </metadata>
 <defs>
  <style type="text/css">*{stroke-linejoin: round; stroke-linecap: butt}</style>
 </defs>
 <g id="figure_1">
  <g id="patch_1">
   <path d="M 0 288 
L 432 288 
L 432 0 
L 0 0 
L 0 288 
z
" style="fill: none"/>
  </g>
  <g id="axes_1">
   <g id="patch_2">
    <path d="M 54 252 
L 388.8 252 
L 388.8 34.56 
L 54 34.56 
z
" style="fill: #ffffff"/>
   </g>
   <g id="matplotlib.axis_1">
    <g id="xtick_1">
     <g id="line2d_1">
      <defs>
       <path id="mdfcd2c3b6b" d="M 0 0 
L 0 3.5 
" style="stroke: #000000; stroke-width: 0.8"/>
      </defs>
      <g>
       <use xlink:href="#mdfcd2c3b6b" x="69.218182" y="252" style="stroke: #000000; stroke-width: 0.8"/>
      </g>
     </g>
     <g id="text_1">
      <!-- 0.0 -->
      <g transform="translate(61.266619 266.598437)scale(0.1 -0.1)">
       <defs>
        <path id="DejaVuSans-30" d="M 2034 4250 
Q 1547 4250 1301 3770 
Q 1056 3291 1056 2328 
Q 1056 1369 1301 889 
Q 1547 409 2034 409 
Q 2525 409 2770 889 
Q 3016 1369 3016 2328 
Q 3016 3291 2770 3770 
Q 2525 4250 2034 4250 
z
M 2034 4750 
Q 2819 4750 3233 4129 
Q 3647 3509 3647 2328 
Q 3647 1150 3233 529 
Q 2819 -91 2034 -91 
Q 1250 -91 836 529 
Q 422 1150 422 2328 
Q 422 3509 836 4129 
Q 1250 4750 2034 4750 
z
" transform="scale(0.015625)"/>
        <path id="DejaVuSans-2e" d="M 684 794 
L 1344 794 
L 1344 0 
L 684 0 
L 684 794 
z
" transform="scale(0.015625)"/>
       </defs>
       <use xlink:href="#DejaVuSans-30"/>
       <use xlink:href="#DejaVuSans-2e" x="63.623047"/>
       <use xlink:href="#DejaVuSans-30" x="95.410156"/>
      </g>
     </g>
    </g>
    <g id="xtick_2">
     <g id="line2d_2">
      <g>
       <use xlink:href="#mdfcd2c3b6b" x="130.090909" y="252" style="stroke: #000000; stroke-width: 0.8"/>
      </g>
     </g>
     <g id="text_2">
      <!-- 0.2 -->
      <g transform="translate(122.139347 266.598437)scale(0.1 -0.1)">
       <defs>
        <path id="DejaVuSans-32" d="M 1228 531 
L 3431 531 
L 3431 0 
L 469 0 
L 469 531 
Q 828 903 1448 1529 
Q 2069 2156 2228 2338 
Q 2531 2678 2651 2914 
Q 2772 3150 2772 3378 
Q 2772 3750 2511 3984 
Q 2250 4219 1831 4219 
Q 1534 4219 1204 4116 
Q 875 4013 500 3803 
L 500 4441 
Q 881 4594 1212 4672 
Q 1544 4750 1819 4750 
Q 2544 4750 2975 4387 
Q 3406 4025 3406 3419 
Q 3406 3131 3298 2873 
Q 3191 2616 2906 2266 
Q 2828 2175 2409 1742 
Q 1991 1309 1228 531 
z
" transform="scale(0.015625)"/>
       </defs>
       <use xlink:href="#DejaVuSans-30"/>
       <use xlink:href="#DejaVuSans-2e" x="63.623047"/>
       <use xlink:href="#DejaVuSans-32" x="95.410156"/>
      </g>
     </g>
    </g>
    <g id="xtick_3">
     <g id="line2d_3">
      <g>
       <use xlink:href="#mdfcd2c3b6b" x="190.963636" y="252" style="stroke: #000000; stroke-width: 0.8"/>
      </g>
     </g>
     <g id="text_3">
      <!-- 0.4 -->
      <g transform="translate(183.012074 266.598437)scale(0.1 -0.1)">
       <defs>
        <path id="DejaVuSans-34" d="M 2419 4116 
L 825 1625 
L 2419 1625 
L 2419 4116 
z
M 2253 4666 
L 3047 4666 
L 3047 1625 
L 3713 1625 
L 3713 1100 
L 3047 1100 
L 3047 0 
L 2419 0 
L 2419 1100 
L 313 1100 
L 313 1709 
L 2253 4666 
z
" transform="scale(0.015625)"/>
       </defs>
       <use xlink:href="#DejaVuSans-30"/>
       <use xlink:href="#DejaVuSans-2e" x="63.623047"/>
       <use xlink:href="#DejaVuSans-34" x="95.410156"/>
      </g>
     </g>
    </g>
    <g id="xtick_4">
     <g id="line2d_4">
      <g>
       <use xlink:href="#mdfcd2c3b6b" x="251.836364" y="252" style="stroke: #000000; stroke-width: 0.8"/>
      </g>
     </g>
     <g id="text_4">
      <!-- 0.6 -->
      <g transform="translate(243.884801 266.598437)scale(0.1 -0.1)">
       <defs>
        <path id="DejaVuSans-36" d="M 2113 2584 
Q 1688 2584 1439 2293 
Q 1191 2003 1191 1497 
Q 1191 994 1439 701 
Q 1688 409 2113 409 
Q 2538 409 2786 701 
Q 3034 994 3034 1497 
Q 3034 2003 2786 2293 
Q 2538 2584 2113 2584 
z
M 3366 4563 
L 3366 3988 
Q 3128 4100 2886 4159 
Q 2644 4219 2406 4219 
Q 1781 4219 1451 3797 
Q 1122 3375 1075 2522 
Q 1259 2794 1537 2939 
Q 1816 3084 2150 3084 
Q 2853 3084 3261 2657 
Q 3669 2231 3669 1497 
Q 3669 778 3244 343 
Q 2819 -91 2113 -91 
Q 1303 -91 875 529 
Q 447 1150 447 2328 
Q 447 3434 972 4092 
Q 1497 4750 2381 4750 
Q 2619 4750 2861 4703 
Q 3103 4656 3366 4563 
z
" transform="scale(0.015625)"/>
       </defs>
       <use xlink:href="#DejaVuSans-30"/>
       <use xlink:href="#DejaVuSans-2e" x="63.623047"/>
       <use xlink:href="#DejaVuSans-36" x="95.410156"/>
      </g>
     </g>
    </g>
    <g id="xtick_5">
     <g id="line2d_5">
      <g>
       <use xlink:href="#mdfcd2c3b6b" x="312.709091" y="252" style="stroke: #000000; stroke-width: 0.8"/>
      </g>
     </g>
     <g id="text_5">
      <!-- 0.8 -->
      <g transform="translate(304.757528 266.598437)scale(0.1 -0.1)">
       <defs>
        <path id="DejaVuSans-38" d="M 2034 2216 
Q 1584 2216 1326 1975 
Q 1069 1734 1069 1313 
Q 1069 891 1326 650 
Q 1584 409 2034 409 
Q 2484 409 2743 651 
Q 3003 894 3003 1313 
Q 3003 1734 2745 1975 
Q 2488 2216 2034 2216 
z
M 1403 2484 
Q 997 2584 770 2862 
Q 544 3141 544 3541 
Q 544 4100 942 4425 
Q 1341 4750 2034 4750 
Q 2731 4750 3128 4425 
Q 3525 4100 3525 3541 
Q 3525 3141 3298 2862 
Q 3072 2584 2669 2484 
Q 3125 2378 3379 2068 
Q 3634 1759 3634 1313 
Q 3634 634 3220 271 
Q 2806 -91 2034 -91 
Q 1263 -91 848 271 
Q 434 634 434 1313 
Q 434 1759 690 2068 
Q 947 2378 1403 2484 
z
M 1172 3481 
Q 1172 3119 1398 2916 
Q 1625 2713 2034 2713 
Q 2441 2713 2670 2916 
Q 2900 3119 2900 3481 
Q 2900 3844 2670 4047 
Q 2441 4250 2034 4250 
Q 1625 4250 1398 4047 
Q 1172 3844 1172 3481 
z
" transform="scale(0.015625)"/>
       </defs>
       <use xlink:href="#DejaVuSans-30"/>
       <use xlink:href="#DejaVuSans-2e" x="63.623047"/>
       <use xlink:href="#DejaVuSans-38" x="95.410156"/>
      </g>
     </g>
    </g>
    <g id="xtick_6">
     <g id="line2d_6">
      <g>
       <use xlink:href="#mdfcd2c3b6b" x="373.581818" y="252" style="stroke: #000000; stroke-width: 0.8"/>
      </g>
     </g>
     <g id="text_6">
      <!-- 1.0 -->
      <g transform="translate(365.630256 266.598437)scale(0.1 -0.1)">
       <defs>
        <path id="DejaVuSans-31" d="M 794 531 
L 1825 531 
L 1825 4091 
L 703 3866 
L 703 4441 
L 1819 4666 
L 2450 4666 
L 2450 531 
L 3481 531 
L 3481 0 
L 794 0 
L 794 531 
z
" transform="scale(0.015625)"/>
       </defs>
       <use xlink:href="#DejaVuSans-31"/>
       <use xlink:href="#DejaVuSans-2e" x="63.623047"/>
       <use xlink:href="#DejaVuSans-30" x="95.410156"/>
      </g>
     </g>
    </g>
    <g id="text_7">
     <!-- t (sec) -->
     <g transform="translate(205.51875 280.276563)scale(0.1 -0.1)">
      <defs>
       <path id="DejaVuSans-74" d="M 1172 4494 
L 1172 3500 
L 2356 3500 
L 2356 3053 
L 1172 3053 
L 1172 1153 
Q 1172 725 1289 603 
Q 1406 481 1766 481 
L 2356 481 
L 2356 0 
L 1766 0 
Q 1100 0 847 248 
Q 594 497 594 1153 
L 594 3053 
L 172 3053 
L 172 3500 
L 594 3500 
L 594 4494 
L 1172 4494 
z
" transform="scale(0.015625)"/>
       <path id="DejaVuSans-20" transform="scale(0.015625)"/>
       <path id="DejaVuSans-28" d="M 1984 4856 
Q 1566 4138 1362 3434 
Q 1159 2731 1159 2009 
Q 1159 1288 1364 580 
Q 1569 -128 1984 -844 
L 1484 -844 
Q 1016 -109 783 600 
Q 550 1309 550 2009 
Q 550 2706 781 3412 
Q 1013 4119 1484 4856 
L 1984 4856 
z
" transform="scale(0.015625)"/>
       <path id="DejaVuSans-73" d="M 2834 3397 
L 2834 2853 
Q 2591 2978 2328 3040 
Q 2066 3103 1784 3103 
Q 1356 3103 1142 2972 
Q 928 2841 928 2578 
Q 928 2378 1081 2264 
Q 1234 2150 1697 2047 
L 1894 2003 
Q 2506 1872 2764 1633 
Q 3022 1394 3022 966 
Q 3022 478 2636 193 
Q 2250 -91 1575 -91 
Q 1294 -91 989 -36 
Q 684 19 347 128 
L 347 722 
Q 666 556 975 473 
Q 1284 391 1588 391 
Q 1994 391 2212 530 
Q 2431 669 2431 922 
Q 2431 1156 2273 1281 
Q 2116 1406 1581 1522 
L 1381 1569 
Q 847 1681 609 1914 
Q 372 2147 372 2553 
Q 372 3047 722 3315 
Q 1072 3584 1716 3584 
Q 2034 3584 2315 3537 
Q 2597 3491 2834 3397 
z
" transform="scale(0.015625)"/>
       <path id="DejaVuSans-65" d="M 3597 1894 
L 3597 1613 
L 953 1613 
Q 991 1019 1311 708 
Q 1631 397 2203 397 
Q 2534 397 2845 478 
Q 3156 559 3463 722 
L 3463 178 
Q 3153 47 2828 -22 
Q 2503 -91 2169 -91 
Q 1331 -91 842 396 
Q 353 884 353 1716 
Q 353 2575 817 3079 
Q 1281 3584 2069 3584 
Q 2775 3584 3186 3129 
Q 3597 2675 3597 1894 
z
M 3022 2063 
Q 3016 2534 2758 2815 
Q 2500 3097 2075 3097 
Q 1594 3097 1305 2825 
Q 1016 2553 972 2059 
L 3022 2063 
z
" transform="scale(0.015625)"/>
       <path id="DejaVuSans-63" d="M 3122 3366 
L 3122 2828 
Q 2878 2963 2633 3030 
Q 2388 3097 2138 3097 
Q 1578 3097 1268 2742 
Q 959 2388 959 1747 
Q 959 1106 1268 751 
Q 1578 397 2138 397 
Q 2388 397 2633 464 
Q 2878 531 3122 666 
L 3122 134 
Q 2881 22 2623 -34 
Q 2366 -91 2075 -91 
Q 1284 -91 818 406 
Q 353 903 353 1747 
Q 353 2603 823 3093 
Q 1294 3584 2113 3584 
Q 2378 3584 2631 3529 
Q 2884 3475 3122 3366 
z
" transform="scale(0.015625)"/>
       <path id="DejaVuSans-29" d="M 513 4856 
L 1013 4856 
Q 1481 4119 1714 3412 
Q 1947 2706 1947 2009 
Q 1947 1309 1714 600 
Q 1481 -109 1013 -844 
L 513 -844 
Q 928 -128 1133 580 
Q 1338 1288 1338 2009 
Q 1338 2731 1133 3434 
Q 928 4138 513 4856 
z
" transform="scale(0.015625)"/>
      </defs>
      <use xlink:href="#DejaVuSans-74"/>
      <use xlink:href="#DejaVuSans-20" x="39.208984"/>
      <use xlink:href="#DejaVuSans-28" x="70.996094"/>
      <use xlink:href="#DejaVuSans-73" x="110.009766"/>
      <use xlink:href="#DejaVuSans-65" x="162.109375"/>
      <use xlink:href="#DejaVuSans-63" x="223.632812"/>
      <use xlink:href="#DejaVuSans-29" x="278.613281"/>
     </g>
    </g>
   </g>
   <g id="matplotlib.axis_2">
    <g id="ytick_1">
     <g id="line2d_7">
      <defs>
       <path id="mf3bda6d304" d="M 0 0 
L -3.5 0 
" style="stroke: #000000; stroke-width: 0.8"/>
      </defs>
      <g>
       <use xlink:href="#mf3bda6d304" x="54" y="244.006187" style="stroke: #000000; stroke-width: 0.8"/>
      </g>
     </g>
     <g id="text_8">
      <!-- −0.10 -->
      <g transform="translate(16.354687 247.805405)scale(0.1 -0.1)">
       <defs>
        <path id="DejaVuSans-2212" d="M 678 2272 
L 4684 2272 
L 4684 1741 
L 678 1741 
L 678 2272 
z
" transform="scale(0.015625)"/>
       </defs>
       <use xlink:href="#DejaVuSans-2212"/>
       <use xlink:href="#DejaVuSans-30" x="83.789062"/>
       <use xlink:href="#DejaVuSans-2e" x="147.412109"/>
       <use xlink:href="#DejaVuSans-31" x="179.199219"/>
       <use xlink:href="#DejaVuSans-30" x="242.822266"/>
      </g>
     </g>
    </g>
    <g id="ytick_2">
     <g id="line2d_8">
      <g>
       <use xlink:href="#mf3bda6d304" x="54" y="204.093677" style="stroke: #000000; stroke-width: 0.8"/>
      </g>
     </g>
     <g id="text_9">
      <!-- −0.05 -->
      <g transform="translate(16.354687 207.892895)scale(0.1 -0.1)">
       <defs>
        <path id="DejaVuSans-35" d="M 691 4666 
L 3169 4666 
L 3169 4134 
L 1269 4134 
L 1269 2991 
Q 1406 3038 1543 3061 
Q 1681 3084 1819 3084 
Q 2600 3084 3056 2656 
Q 3513 2228 3513 1497 
Q 3513 744 3044 326 
Q 2575 -91 1722 -91 
Q 1428 -91 1123 -41 
Q 819 9 494 109 
L 494 744 
Q 775 591 1075 516 
Q 1375 441 1709 441 
Q 2250 441 2565 725 
Q 2881 1009 2881 1497 
Q 2881 1984 2565 2268 
Q 2250 2553 1709 2553 
Q 1456 2553 1204 2497 
Q 953 2441 691 2322 
L 691 4666 
z
" transform="scale(0.015625)"/>
       </defs>
       <use xlink:href="#DejaVuSans-2212"/>
       <use xlink:href="#DejaVuSans-30" x="83.789062"/>
       <use xlink:href="#DejaVuSans-2e" x="147.412109"/>
       <use xlink:href="#DejaVuSans-30" x="179.199219"/>
       <use xlink:href="#DejaVuSans-35" x="242.822266"/>
      </g>
     </g>
    </g>
    <g id="ytick_3">
     <g id="line2d_9">
      <g>
       <use xlink:href="#mf3bda6d304" x="54" y="164.181167" style="stroke: #000000; stroke-width: 0.8"/>
      </g>
     </g>
     <g id="text_10">
      <!-- 0.00 -->
      <g transform="translate(24.734375 167.980385)scale(0.1 -0.1)">
       <use xlink:href="#DejaVuSans-30"/>
       <use xlink:href="#DejaVuSans-2e" x="63.623047"/>
       <use xlink:href="#DejaVuSans-30" x="95.410156"/>
       <use xlink:href="#DejaVuSans-30" x="159.033203"/>
      </g>
     </g>
    </g>
    <g id="ytick_4">
     <g id="line2d_10">
      <g>
       <use xlink:href="#mf3bda6d304" x="54" y="124.268656" style="stroke: #000000; stroke-width: 0.8"/>
      </g>
     </g>
     <g id="text_11">
      <!-- 0.05 -->
      <g transform="translate(24.734375 128.067875)scale(0.1 -0.1)">
       <use xlink:href="#DejaVuSans-30"/>
       <use xlink:href="#DejaVuSans-2e" x="63.623047"/>
       <use xlink:href="#DejaVuSans-30" x="95.410156"/>
       <use xlink:href="#DejaVuSans-35" x="159.033203"/>
      </g>
     </g>
    </g>
    <g id="ytick_5">
     <g id="line2d_11">
      <g>
       <use xlink:href="#mf3bda6d304" x="54" y="84.356146" style="stroke: #000000; stroke-width: 0.8"/>
      </g>
     </g>
     <g id="text_12">
      <!-- 0.10 -->
      <g transform="translate(24.734375 88.155365)scale(0.1 -0.1)">
       <use xlink:href="#DejaVuSans-30"/>
       <use xlink:href="#DejaVuSans-2e" x="63.623047"/>
       <use xlink:href="#DejaVuSans-31" x="95.410156"/>
       <use xlink:href="#DejaVuSans-30" x="159.033203"/>
      </g>
     </g>
    </g>
    <g id="ytick_6">
     <g id="line2d_12">
      <g>
       <use xlink:href="#mf3bda6d304" x="54" y="44.443636" style="stroke: #000000; stroke-width: 0.8"/>
      </g>
     </g>
     <g id="text_13">
      <!-- 0.15 -->
      <g transform="translate(24.734375 48.242855)scale(0.1 -0.1)">
       <use xlink:href="#DejaVuSans-30"/>
       <use xlink:href="#DejaVuSans-2e" x="63.623047"/>
       <use xlink:href="#DejaVuSans-31" x="95.410156"/>
       <use xlink:href="#DejaVuSans-35" x="159.033203"/>
      </g>
     </g>
    </g>
    <g id="text_14">
     <!-- x (m) -->
     <g transform="translate(10.275 156.600313)rotate(-90)scale(0.1 -0.1)">
      <defs>
       <path id="DejaVuSans-78" d="M 3513 3500 
L 2247 1797 
L 3578 0 
L 2900 0 
L 1881 1375 
L 863 0 
L 184 0 
L 1544 1831 
L 300 3500 
L 978 3500 
L 1906 2253 
L 2834 3500 
L 3513 3500 
z
" transform="scale(0.015625)"/>
       <path id="DejaVuSans-6d" d="M 3328 2828 
Q 3544 3216 3844 3400 
Q 4144 3584 4550 3584 
Q 5097 3584 5394 3201 
Q 5691 2819 5691 2113 
L 5691 0 
L 5113 0 
L 5113 2094 
Q 5113 2597 4934 2840 
Q 4756 3084 4391 3084 
Q 3944 3084 3684 2787 
Q 3425 2491 3425 1978 
L 3425 0 
L 2847 0 
L 2847 2094 
Q 2847 2600 2669 2842 
Q 2491 3084 2119 3084 
Q 1678 3084 1418 2786 
Q 1159 2488 1159 1978 
L 1159 0 
L 581 0 
L 581 3500 
L 1159 3500 
L 1159 2956 
Q 1356 3278 1631 3431 
Q 1906 3584 2284 3584 
Q 2666 3584 2933 3390 
Q 3200 3197 3328 2828 
z
" transform="scale(0.015625)"/>
      </defs>
      <use xlink:href="#DejaVuSans-78"/>
      <use xlink:href="#DejaVuSans-20" x="59.179688"/>
      <use xlink:href="#DejaVuSans-28" x="90.966797"/>
      <use xlink:href="#DejaVuSans-6d" x="129.980469"/>
      <use xlink:href="#DejaVuSans-29" x="227.392578"/>
     </g>
    </g>
   </g>
   <g id="line2d_13">
    <path d="M 69.218182 44.443636 
L 79.262182 44.555591 
L 89.306182 44.884869 
L 99.350182 45.431471 
L 109.394182 46.195396 
L 119.438182 47.176645 
L 129.482182 48.375218 
L 139.830545 49.837413 
L 150.178909 51.530302 
L 160.527273 53.453886 
L 170.875636 55.608163 
L 181.224 57.993135 
L 191.572364 60.608802 
L 201.920727 63.455162 
L 212.269091 66.532217 
L 222.617455 69.839967 
L 232.965818 73.37841 
L 243.314182 77.147548 
L 253.662545 81.14738 
L 264.315273 85.505826 
L 274.968 90.108737 
L 282.881455 93.530531 
L 288.664364 94.809154 
L 292.012364 95.240753 
L 295.056 95.404818 
L 300.230182 95.374806 
L 317.274545 95.401698 
L 373.581818 95.405653 
L 373.581818 95.405653 
" clip-path="url(#p4284b917ad)" style="fill: none; stroke: #1f77b4; stroke-width: 1.5; stroke-linecap: square"/>
   </g>
   <g id="line2d_14">
    <path d="M 69.218182 44.443636 
L 76.522909 44.563374 
L 83.827636 44.913007 
L 91.132364 45.492537 
L 98.437091 46.301963 
L 105.741818 47.341285 
L 113.046545 48.610502 
L 120.351273 50.109616 
L 127.656 51.838626 
L 134.960727 53.797532 
L 142.265455 55.986334 
L 149.570182 58.405032 
L 156.874909 61.053627 
L 164.179636 63.932117 
L 171.788727 67.175008 
L 179.397818 70.667353 
L 187.006909 74.409151 
L 194.616 78.400402 
L 202.225091 82.641106 
L 209.834182 87.131263 
L 217.747636 92.065647 
L 220.182545 93.521183 
L 225.661091 95.522901 
L 229.617818 96.6246 
L 232.661455 97.254266 
L 235.705091 97.683068 
L 239.053091 97.923499 
L 242.705455 97.936913 
L 258.228 97.944352 
L 373.581818 97.963547 
L 373.581818 97.963547 
" clip-path="url(#p4284b917ad)" style="fill: none; stroke: #ff7f0e; stroke-width: 1.5; stroke-linecap: square"/>
   </g>
   <g id="line2d_15">
    <path d="M 69.218182 44.443636 
L 74.392364 44.565769 
L 79.566545 44.918595 
L 84.740727 45.502116 
L 89.914909 46.316331 
L 95.089091 47.361241 
L 100.263273 48.636845 
L 105.437455 50.143143 
L 110.611636 51.880135 
L 115.785818 53.847822 
L 120.96 56.046203 
L 126.134182 58.475278 
L 131.612727 61.298689 
L 137.091273 64.380733 
L 142.569818 67.72141 
L 148.048364 71.320721 
L 153.526909 75.178664 
L 159.309818 79.531522 
L 165.092727 84.172549 
L 170.875636 89.101744 
L 176.354182 93.780995 
L 183.658909 97.721216 
L 187.615636 99.49611 
L 191.268 100.929892 
L 195.529091 102.262952 
L 198.877091 103.076117 
L 202.529455 103.726597 
L 205.877455 104.105996 
L 209.225455 104.277863 
L 215.617091 104.282834 
L 323.361818 104.318343 
L 373.581818 104.335843 
L 373.581818 104.335843 
" clip-path="url(#p4284b917ad)" style="fill: none; stroke: #2ca02c; stroke-width: 1.5; stroke-linecap: square"/>
   </g>
   <g id="line2d_16">
    <path d="M 69.218182 44.443636 
L 72.870545 44.568163 
L 76.522909 44.922586 
L 80.175273 45.506906 
L 83.827636 46.321121 
L 87.48 47.365232 
L 91.132364 48.639239 
L 94.784727 50.143143 
L 98.437091 51.876942 
L 102.393818 54.014656 
L 106.350545 56.422179 
L 110.307273 59.09951 
L 114.264 62.04665 
L 118.220727 65.263598 
L 122.481818 69.029743 
L 126.742909 73.108801 
L 131.004 77.500774 
L 135.265091 82.20566 
L 139.830545 87.593849 
L 145.309091 94.144533 
L 149.874545 97.920441 
L 152.309455 99.907123 
L 159.614182 105.544324 
L 165.397091 109.54068 
L 169.962545 112.404703 
L 174.528 115.010481 
L 179.093455 117.357586 
L 183.658909 119.446051 
L 188.224364 121.275874 
L 192.485455 122.750356 
L 196.746545 123.999532 
L 201.007636 125.023403 
L 205.268727 125.821967 
L 209.529818 126.395226 
L 213.790909 126.743178 
L 218.052 126.865825 
L 373.581818 126.977615 
L 373.581818 126.977615 
" clip-path="url(#p4284b917ad)" style="fill: none; stroke: #d62728; stroke-width: 1.5; stroke-linecap: square"/>
   </g>
   <g id="line2d_17">
    <path d="M 69.218182 44.443636 
L 72.261818 44.575348 
L 75.305455 44.946534 
L 78.349091 45.557195 
L 81.392727 46.407332 
L 84.436364 47.496943 
L 87.48 48.82603 
L 90.523636 50.394592 
L 93.567273 52.202628 
L 96.915273 54.468062 
L 100.263273 57.023261 
L 103.611273 59.868225 
L 106.959273 63.002954 
L 110.307273 66.427447 
L 113.959636 70.493733 
L 117.612 74.904864 
L 121.264364 79.660839 
L 125.221091 85.202292 
L 129.177818 91.148457 
L 131.004 93.892242 
L 146.222182 109.784086 
L 152.005091 115.6848 
L 158.701091 122.18939 
L 165.701455 128.67841 
L 172.701818 134.858372 
L 179.397818 140.480659 
L 186.093818 145.820395 
L 192.789818 150.877578 
L 199.485818 155.652208 
L 206.181818 160.144286 
L 212.573455 164.168599 
L 218.965091 167.935463 
L 225.356727 171.444876 
L 231.748364 174.69684 
L 238.14 177.691354 
L 244.227273 180.30392 
L 250.314545 182.682972 
L 256.401818 184.828509 
L 262.489091 186.740531 
L 268.576364 188.419039 
L 274.663636 189.864033 
L 280.750909 191.075512 
L 286.838182 192.053476 
L 292.925455 192.797926 
L 299.012727 193.308862 
L 305.1 193.586283 
L 311.491636 193.639866 
L 373.581818 193.72168 
L 373.581818 193.72168 
" clip-path="url(#p4284b917ad)" style="fill: none; stroke: #9467bd; stroke-width: 1.5; stroke-linecap: square"/>
   </g>
   <g id="line2d_18">
    <path d="M 69.218182 44.443636 
L 71.653091 44.558584 
L 74.088 44.877884 
L 76.522909 45.401537 
L 78.957818 46.129541 
L 81.697091 47.19281 
L 84.436364 48.514712 
L 87.175636 50.095248 
L 89.914909 51.934416 
L 92.654182 54.032218 
L 95.393455 56.388652 
L 98.437091 59.310248 
L 101.480727 62.551144 
L 104.524364 66.11134 
L 107.872364 70.396347 
L 111.220364 75.067707 
L 114.568364 80.12542 
L 117.916364 85.569487 
L 121.568727 91.949102 
L 122.786182 94.017291 
L 128.569091 101.113367 
L 131.612727 104.963398 
L 140.439273 116.405526 
L 150.787636 129.932095 
L 237.531273 241.578697 
L 237.835636 241.810449 
L 238.444364 241.888999 
L 239.357455 241.631452 
L 242.705455 240.471312 
L 245.444727 239.801005 
L 247.879636 239.422301 
L 250.314545 239.247949 
L 252.749455 239.277949 
L 255.184364 239.512301 
L 257.619273 239.951005 
L 260.054182 240.594061 
L 262.489091 241.265994 
L 263.706545 241.363746 
L 269.489455 241.16073 
L 272.533091 241.248908 
L 282.577091 241.234909 
L 373.581818 241.234189 
L 373.581818 241.234189 
" clip-path="url(#p4284b917ad)" style="fill: none; stroke: #8c564b; stroke-width: 1.5; stroke-linecap: square"/>
   </g>
   <g id="line2d_19">
    <path d="M 69.218182 44.443636 
L 71.348727 44.555391 
L 73.479273 44.862718 
L 75.914182 45.453423 
L 78.349091 46.299568 
L 80.784 47.401153 
L 83.218909 48.758179 
L 85.653818 50.370644 
L 88.088727 52.23855 
L 90.828 54.645274 
L 93.567273 57.37529 
L 96.306545 60.428597 
L 99.045818 63.805195 
L 102.089455 67.93614 
L 105.133091 72.46621 
L 108.176727 77.395405 
L 111.220364 82.723725 
L 114.568364 89.045866 
L 117.307636 94.214488 
L 121.264364 99.674174 
L 131.917091 115.481013 
L 137.7 124.603082 
L 152.005091 147.899781 
L 160.222909 161.735022 
L 168.745091 176.505917 
L 177.571636 192.257004 
L 186.398182 208.468691 
L 195.224727 225.140978 
L 204.051273 242.003693 
L 204.355636 242.116364 
L 204.964364 242.038195 
L 206.486182 241.42505 
L 208.921091 240.49888 
L 211.356 239.827651 
L 213.790909 239.411862 
L 216.225818 239.251513 
L 218.356364 239.320748 
L 220.486909 239.585554 
L 222.921818 240.127666 
L 227.791636 241.38808 
L 229.313455 241.277109 
L 231.748364 241.113523 
L 234.183273 241.199437 
L 237.226909 241.253055 
L 248.792727 241.239599 
L 373.581818 241.239681 
L 373.581818 241.239681 
" clip-path="url(#p4284b917ad)" style="fill: none; stroke: #e377c2; stroke-width: 1.5; stroke-linecap: square"/>
   </g>
   <g id="patch_3">
    <path d="M 54 252 
L 54 34.56 
" style="fill: none; stroke: #000000; stroke-width: 0.8; stroke-linejoin: miter; stroke-linecap: square"/>
   </g>
   <g id="patch_4">
    <path d="M 388.8 252 
L 388.8 34.56 
" style="fill: none; stroke: #000000; stroke-width: 0.8; stroke-linejoin: miter; stroke-linecap: square"/>
   </g>
   <g id="patch_5">
    <path d="M 54 252 
L 388.8 252 
" style="fill: none; stroke: #000000; stroke-width: 0.8; stroke-linejoin: miter; stroke-linecap: square"/>
   </g>
   <g id="patch_6">
    <path d="M 54 34.56 
L 388.8 34.56 
" style="fill: none; stroke: #000000; stroke-width: 0.8; stroke-linejoin: miter; stroke-linecap: square"/>
   </g>
   <g id="legend_1">
    <g id="patch_7">
     <path d="M 61 247 
L 159.3 247 
Q 161.3 247 161.3 245 
L 161.3 119.3 
Q 161.3 117.3 159.3 117.3 
L 61 117.3 
Q 59 117.3 59 119.3 
L 59 245 
Q 59 247 61 247 
z
" style="fill: #ffffff; opacity: 0.8; stroke: #cccccc; stroke-linejoin: miter"/>
    </g>
    <g id="line2d_20">
     <path d="M 63 128 
L 73 128 
L 83 128 
" style="fill: none; stroke: #1f77b4; stroke-width: 1.5; stroke-linecap: square"/>
    </g>
    <g id="text_15">
     <!-- $f^{F_c}_{desired}$ = 0.25 -->
     <g transform="translate(91 131.5)scale(0.1 -0.1)">
      <defs>
       <path id="DejaVuSans-Oblique-66" d="M 3059 4863 
L 2969 4384 
L 2419 4384 
Q 2106 4384 1964 4261 
Q 1822 4138 1753 3809 
L 1691 3500 
L 2638 3500 
L 2553 3053 
L 1606 3053 
L 1013 0 
L 434 0 
L 1031 3053 
L 481 3053 
L 563 3500 
L 1113 3500 
L 1159 3744 
Q 1278 4363 1576 4613 
Q 1875 4863 2516 4863 
L 3059 4863 
z
" transform="scale(0.015625)"/>
       <path id="DejaVuSans-Oblique-46" d="M 1081 4666 
L 3756 4666 
L 3653 4134 
L 1606 4134 
L 1338 2759 
L 3188 2759 
L 3084 2228 
L 1234 2228 
L 800 0 
L 172 0 
L 1081 4666 
z
" transform="scale(0.015625)"/>
       <path id="DejaVuSans-Oblique-63" d="M 3431 3366 
L 3316 2797 
Q 3109 2947 2876 3022 
Q 2644 3097 2394 3097 
Q 2119 3097 1870 3000 
Q 1622 2903 1453 2725 
Q 1184 2453 1037 2087 
Q 891 1722 891 1331 
Q 891 859 1127 628 
Q 1363 397 1844 397 
Q 2081 397 2348 469 
Q 2616 541 2906 684 
L 2797 116 
Q 2547 13 2283 -39 
Q 2019 -91 1741 -91 
Q 1044 -91 669 257 
Q 294 606 294 1253 
Q 294 1797 489 2255 
Q 684 2713 1069 3078 
Q 1331 3328 1684 3456 
Q 2038 3584 2456 3584 
Q 2700 3584 2940 3529 
Q 3181 3475 3431 3366 
z
" transform="scale(0.015625)"/>
       <path id="DejaVuSans-Oblique-64" d="M 2675 525 
Q 2444 222 2128 65 
Q 1813 -91 1428 -91 
Q 903 -91 598 267 
Q 294 625 294 1247 
Q 294 1766 478 2236 
Q 663 2706 1013 3078 
Q 1244 3325 1534 3454 
Q 1825 3584 2144 3584 
Q 2481 3584 2739 3421 
Q 2997 3259 3138 2956 
L 3513 4863 
L 4091 4863 
L 3144 0 
L 2566 0 
L 2675 525 
z
M 891 1350 
Q 891 897 1095 644 
Q 1300 391 1663 391 
Q 1931 391 2161 520 
Q 2391 650 2566 903 
Q 2750 1166 2856 1509 
Q 2963 1853 2963 2188 
Q 2963 2622 2758 2865 
Q 2553 3109 2194 3109 
Q 1922 3109 1687 2981 
Q 1453 2853 1288 2613 
Q 1106 2353 998 2009 
Q 891 1666 891 1350 
z
" transform="scale(0.015625)"/>
       <path id="DejaVuSans-Oblique-65" d="M 3078 2063 
Q 3088 2113 3092 2166 
Q 3097 2219 3097 2272 
Q 3097 2653 2873 2875 
Q 2650 3097 2266 3097 
Q 1838 3097 1509 2826 
Q 1181 2556 1013 2059 
L 3078 2063 
z
M 3578 1613 
L 903 1613 
Q 884 1494 878 1425 
Q 872 1356 872 1306 
Q 872 872 1139 634 
Q 1406 397 1894 397 
Q 2269 397 2603 481 
Q 2938 566 3225 728 
L 3116 159 
Q 2806 34 2476 -28 
Q 2147 -91 1806 -91 
Q 1078 -91 686 257 
Q 294 606 294 1247 
Q 294 1794 489 2264 
Q 684 2734 1063 3103 
Q 1306 3334 1642 3459 
Q 1978 3584 2356 3584 
Q 2950 3584 3301 3228 
Q 3653 2872 3653 2272 
Q 3653 2128 3634 1964 
Q 3616 1800 3578 1613 
z
" transform="scale(0.015625)"/>
       <path id="DejaVuSans-Oblique-73" d="M 3200 3397 
L 3091 2853 
Q 2863 2978 2609 3040 
Q 2356 3103 2088 3103 
Q 1634 3103 1373 2948 
Q 1113 2794 1113 2528 
Q 1113 2219 1719 2053 
Q 1766 2041 1788 2034 
L 1972 1978 
Q 2547 1819 2739 1644 
Q 2931 1469 2931 1166 
Q 2931 609 2489 259 
Q 2047 -91 1331 -91 
Q 1053 -91 747 -37 
Q 441 16 72 128 
L 184 722 
Q 500 559 806 475 
Q 1113 391 1394 391 
Q 1816 391 2080 572 
Q 2344 753 2344 1031 
Q 2344 1331 1650 1516 
L 1591 1531 
L 1394 1581 
Q 956 1697 753 1886 
Q 550 2075 550 2369 
Q 550 2928 970 3256 
Q 1391 3584 2113 3584 
Q 2397 3584 2667 3537 
Q 2938 3491 3200 3397 
z
" transform="scale(0.015625)"/>
       <path id="DejaVuSans-Oblique-69" d="M 1172 4863 
L 1747 4863 
L 1606 4134 
L 1031 4134 
L 1172 4863 
z
M 909 3500 
L 1484 3500 
L 800 0 
L 225 0 
L 909 3500 
z
" transform="scale(0.015625)"/>
       <path id="DejaVuSans-Oblique-72" d="M 2853 2969 
Q 2766 3016 2653 3041 
Q 2541 3066 2413 3066 
Q 1953 3066 1609 2717 
Q 1266 2369 1153 1784 
L 800 0 
L 225 0 
L 909 3500 
L 1484 3500 
L 1375 2956 
Q 1603 3259 1920 3421 
Q 2238 3584 2597 3584 
Q 2691 3584 2781 3573 
Q 2872 3563 2963 3538 
L 2853 2969 
z
" transform="scale(0.015625)"/>
       <path id="DejaVuSans-3d" d="M 678 2906 
L 4684 2906 
L 4684 2381 
L 678 2381 
L 678 2906 
z
M 678 1631 
L 4684 1631 
L 4684 1100 
L 678 1100 
L 678 1631 
z
" transform="scale(0.015625)"/>
      </defs>
      <use xlink:href="#DejaVuSans-Oblique-66" transform="translate(0 0.439219)"/>
      <use xlink:href="#DejaVuSans-Oblique-46" transform="translate(42.652786 50.965625)scale(0.7)"/>
      <use xlink:href="#DejaVuSans-Oblique-63" transform="translate(82.916458 39.48125)scale(0.49)"/>
      <use xlink:href="#DejaVuSans-Oblique-64" transform="translate(35.205078 -26.904531)scale(0.7)"/>
      <use xlink:href="#DejaVuSans-Oblique-65" transform="translate(79.638672 -26.904531)scale(0.7)"/>
      <use xlink:href="#DejaVuSans-Oblique-73" transform="translate(122.705078 -26.904531)scale(0.7)"/>
      <use xlink:href="#DejaVuSans-Oblique-69" transform="translate(159.174805 -26.904531)scale(0.7)"/>
      <use xlink:href="#DejaVuSans-Oblique-72" transform="translate(178.623047 -26.904531)scale(0.7)"/>
      <use xlink:href="#DejaVuSans-Oblique-65" transform="translate(207.402344 -26.904531)scale(0.7)"/>
      <use xlink:href="#DejaVuSans-Oblique-64" transform="translate(250.46875 -26.904531)scale(0.7)"/>
      <use xlink:href="#DejaVuSans-20" transform="translate(297.636719 0.439219)"/>
      <use xlink:href="#DejaVuSans-3d" transform="translate(329.423828 0.439219)"/>
      <use xlink:href="#DejaVuSans-20" transform="translate(413.212891 0.439219)"/>
      <use xlink:href="#DejaVuSans-30" transform="translate(445 0.439219)"/>
      <use xlink:href="#DejaVuSans-2e" transform="translate(508.623047 0.439219)"/>
      <use xlink:href="#DejaVuSans-32" transform="translate(534.910156 0.439219)"/>
      <use xlink:href="#DejaVuSans-35" transform="translate(598.533203 0.439219)"/>
     </g>
    </g>
    <g id="line2d_21">
     <path d="M 63 146.1 
L 73 146.1 
L 83 146.1 
" style="fill: none; stroke: #ff7f0e; stroke-width: 1.5; stroke-linecap: square"/>
    </g>
    <g id="text_16">
     <!-- $f^{F_c}_{desired}$ = 0.5 -->
     <g transform="translate(91 149.6)scale(0.1 -0.1)">
      <use xlink:href="#DejaVuSans-Oblique-66" transform="translate(0 0.439219)"/>
      <use xlink:href="#DejaVuSans-Oblique-46" transform="translate(42.652786 50.965625)scale(0.7)"/>
      <use xlink:href="#DejaVuSans-Oblique-63" transform="translate(82.916458 39.48125)scale(0.49)"/>
      <use xlink:href="#DejaVuSans-Oblique-64" transform="translate(35.205078 -26.904531)scale(0.7)"/>
      <use xlink:href="#DejaVuSans-Oblique-65" transform="translate(79.638672 -26.904531)scale(0.7)"/>
      <use xlink:href="#DejaVuSans-Oblique-73" transform="translate(122.705078 -26.904531)scale(0.7)"/>
      <use xlink:href="#DejaVuSans-Oblique-69" transform="translate(159.174805 -26.904531)scale(0.7)"/>
      <use xlink:href="#DejaVuSans-Oblique-72" transform="translate(178.623047 -26.904531)scale(0.7)"/>
      <use xlink:href="#DejaVuSans-Oblique-65" transform="translate(207.402344 -26.904531)scale(0.7)"/>
      <use xlink:href="#DejaVuSans-Oblique-64" transform="translate(250.46875 -26.904531)scale(0.7)"/>
      <use xlink:href="#DejaVuSans-20" transform="translate(297.636719 0.439219)"/>
      <use xlink:href="#DejaVuSans-3d" transform="translate(329.423828 0.439219)"/>
      <use xlink:href="#DejaVuSans-20" transform="translate(413.212891 0.439219)"/>
      <use xlink:href="#DejaVuSans-30" transform="translate(445 0.439219)"/>
      <use xlink:href="#DejaVuSans-2e" transform="translate(508.623047 0.439219)"/>
      <use xlink:href="#DejaVuSans-35" transform="translate(540.410156 0.439219)"/>
     </g>
    </g>
    <g id="line2d_22">
     <path d="M 63 164.2 
L 73 164.2 
L 83 164.2 
" style="fill: none; stroke: #2ca02c; stroke-width: 1.5; stroke-linecap: square"/>
    </g>
    <g id="text_17">
     <!-- $f^{F_c}_{desired}$ = 1.0 -->
     <g transform="translate(91 167.7)scale(0.1 -0.1)">
      <use xlink:href="#DejaVuSans-Oblique-66" transform="translate(0 0.439219)"/>
      <use xlink:href="#DejaVuSans-Oblique-46" transform="translate(42.652786 50.965625)scale(0.7)"/>
      <use xlink:href="#DejaVuSans-Oblique-63" transform="translate(82.916458 39.48125)scale(0.49)"/>
      <use xlink:href="#DejaVuSans-Oblique-64" transform="translate(35.205078 -26.904531)scale(0.7)"/>
      <use xlink:href="#DejaVuSans-Oblique-65" transform="translate(79.638672 -26.904531)scale(0.7)"/>
      <use xlink:href="#DejaVuSans-Oblique-73" transform="translate(122.705078 -26.904531)scale(0.7)"/>
      <use xlink:href="#DejaVuSans-Oblique-69" transform="translate(159.174805 -26.904531)scale(0.7)"/>
      <use xlink:href="#DejaVuSans-Oblique-72" transform="translate(178.623047 -26.904531)scale(0.7)"/>
      <use xlink:href="#DejaVuSans-Oblique-65" transform="translate(207.402344 -26.904531)scale(0.7)"/>
      <use xlink:href="#DejaVuSans-Oblique-64" transform="translate(250.46875 -26.904531)scale(0.7)"/>
      <use xlink:href="#DejaVuSans-20" transform="translate(297.636719 0.439219)"/>
      <use xlink:href="#DejaVuSans-3d" transform="translate(329.423828 0.439219)"/>
      <use xlink:href="#DejaVuSans-20" transform="translate(413.212891 0.439219)"/>
      <use xlink:href="#DejaVuSans-31" transform="translate(445 0.439219)"/>
      <use xlink:href="#DejaVuSans-2e" transform="translate(508.623047 0.439219)"/>
      <use xlink:href="#DejaVuSans-30" transform="translate(540.410156 0.439219)"/>
     </g>
    </g>
    <g id="line2d_23">
     <path d="M 63 182.3 
L 73 182.3 
L 83 182.3 
" style="fill: none; stroke: #d62728; stroke-width: 1.5; stroke-linecap: square"/>
    </g>
    <g id="text_18">
     <!-- $f^{F_c}_{desired}$ = 2.0 -->
     <g transform="translate(91 185.8)scale(0.1 -0.1)">
      <use xlink:href="#DejaVuSans-Oblique-66" transform="translate(0 0.439219)"/>
      <use xlink:href="#DejaVuSans-Oblique-46" transform="translate(42.652786 50.965625)scale(0.7)"/>
      <use xlink:href="#DejaVuSans-Oblique-63" transform="translate(82.916458 39.48125)scale(0.49)"/>
      <use xlink:href="#DejaVuSans-Oblique-64" transform="translate(35.205078 -26.904531)scale(0.7)"/>
      <use xlink:href="#DejaVuSans-Oblique-65" transform="translate(79.638672 -26.904531)scale(0.7)"/>
      <use xlink:href="#DejaVuSans-Oblique-73" transform="translate(122.705078 -26.904531)scale(0.7)"/>
      <use xlink:href="#DejaVuSans-Oblique-69" transform="translate(159.174805 -26.904531)scale(0.7)"/>
      <use xlink:href="#DejaVuSans-Oblique-72" transform="translate(178.623047 -26.904531)scale(0.7)"/>
      <use xlink:href="#DejaVuSans-Oblique-65" transform="translate(207.402344 -26.904531)scale(0.7)"/>
      <use xlink:href="#DejaVuSans-Oblique-64" transform="translate(250.46875 -26.904531)scale(0.7)"/>
      <use xlink:href="#DejaVuSans-20" transform="translate(297.636719 0.439219)"/>
      <use xlink:href="#DejaVuSans-3d" transform="translate(329.423828 0.439219)"/>
      <use xlink:href="#DejaVuSans-20" transform="translate(413.212891 0.439219)"/>
      <use xlink:href="#DejaVuSans-32" transform="translate(445 0.439219)"/>
      <use xlink:href="#DejaVuSans-2e" transform="translate(508.623047 0.439219)"/>
      <use xlink:href="#DejaVuSans-30" transform="translate(540.410156 0.439219)"/>
     </g>
    </g>
    <g id="line2d_24">
     <path d="M 63 200.4 
L 73 200.4 
L 83 200.4 
" style="fill: none; stroke: #9467bd; stroke-width: 1.5; stroke-linecap: square"/>
    </g>
    <g id="text_19">
     <!-- $f^{F_c}_{desired}$ = 3.0 -->
     <g transform="translate(91 203.9)scale(0.1 -0.1)">
      <defs>
       <path id="DejaVuSans-33" d="M 2597 2516 
Q 3050 2419 3304 2112 
Q 3559 1806 3559 1356 
Q 3559 666 3084 287 
Q 2609 -91 1734 -91 
Q 1441 -91 1130 -33 
Q 819 25 488 141 
L 488 750 
Q 750 597 1062 519 
Q 1375 441 1716 441 
Q 2309 441 2620 675 
Q 2931 909 2931 1356 
Q 2931 1769 2642 2001 
Q 2353 2234 1838 2234 
L 1294 2234 
L 1294 2753 
L 1863 2753 
Q 2328 2753 2575 2939 
Q 2822 3125 2822 3475 
Q 2822 3834 2567 4026 
Q 2313 4219 1838 4219 
Q 1578 4219 1281 4162 
Q 984 4106 628 3988 
L 628 4550 
Q 988 4650 1302 4700 
Q 1616 4750 1894 4750 
Q 2613 4750 3031 4423 
Q 3450 4097 3450 3541 
Q 3450 3153 3228 2886 
Q 3006 2619 2597 2516 
z
" transform="scale(0.015625)"/>
      </defs>
      <use xlink:href="#DejaVuSans-Oblique-66" transform="translate(0 0.439219)"/>
      <use xlink:href="#DejaVuSans-Oblique-46" transform="translate(42.652786 50.965625)scale(0.7)"/>
      <use xlink:href="#DejaVuSans-Oblique-63" transform="translate(82.916458 39.48125)scale(0.49)"/>
      <use xlink:href="#DejaVuSans-Oblique-64" transform="translate(35.205078 -26.904531)scale(0.7)"/>
      <use xlink:href="#DejaVuSans-Oblique-65" transform="translate(79.638672 -26.904531)scale(0.7)"/>
      <use xlink:href="#DejaVuSans-Oblique-73" transform="translate(122.705078 -26.904531)scale(0.7)"/>
      <use xlink:href="#DejaVuSans-Oblique-69" transform="translate(159.174805 -26.904531)scale(0.7)"/>
      <use xlink:href="#DejaVuSans-Oblique-72" transform="translate(178.623047 -26.904531)scale(0.7)"/>
      <use xlink:href="#DejaVuSans-Oblique-65" transform="translate(207.402344 -26.904531)scale(0.7)"/>
      <use xlink:href="#DejaVuSans-Oblique-64" transform="translate(250.46875 -26.904531)scale(0.7)"/>
      <use xlink:href="#DejaVuSans-20" transform="translate(297.636719 0.439219)"/>
      <use xlink:href="#DejaVuSans-3d" transform="translate(329.423828 0.439219)"/>
      <use xlink:href="#DejaVuSans-20" transform="translate(413.212891 0.439219)"/>
      <use xlink:href="#DejaVuSans-33" transform="translate(445 0.439219)"/>
      <use xlink:href="#DejaVuSans-2e" transform="translate(508.623047 0.439219)"/>
      <use xlink:href="#DejaVuSans-30" transform="translate(540.410156 0.439219)"/>
     </g>
    </g>
    <g id="line2d_25">
     <path d="M 63 218.5 
L 73 218.5 
L 83 218.5 
" style="fill: none; stroke: #8c564b; stroke-width: 1.5; stroke-linecap: square"/>
    </g>
    <g id="text_20">
     <!-- $f^{F_c}_{desired}$ = 4.0 -->
     <g transform="translate(91 222)scale(0.1 -0.1)">
      <use xlink:href="#DejaVuSans-Oblique-66" transform="translate(0 0.439219)"/>
      <use xlink:href="#DejaVuSans-Oblique-46" transform="translate(42.652786 50.965625)scale(0.7)"/>
      <use xlink:href="#DejaVuSans-Oblique-63" transform="translate(82.916458 39.48125)scale(0.49)"/>
      <use xlink:href="#DejaVuSans-Oblique-64" transform="translate(35.205078 -26.904531)scale(0.7)"/>
      <use xlink:href="#DejaVuSans-Oblique-65" transform="translate(79.638672 -26.904531)scale(0.7)"/>
      <use xlink:href="#DejaVuSans-Oblique-73" transform="translate(122.705078 -26.904531)scale(0.7)"/>
      <use xlink:href="#DejaVuSans-Oblique-69" transform="translate(159.174805 -26.904531)scale(0.7)"/>
      <use xlink:href="#DejaVuSans-Oblique-72" transform="translate(178.623047 -26.904531)scale(0.7)"/>
      <use xlink:href="#DejaVuSans-Oblique-65" transform="translate(207.402344 -26.904531)scale(0.7)"/>
      <use xlink:href="#DejaVuSans-Oblique-64" transform="translate(250.46875 -26.904531)scale(0.7)"/>
      <use xlink:href="#DejaVuSans-20" transform="translate(297.636719 0.439219)"/>
      <use xlink:href="#DejaVuSans-3d" transform="translate(329.423828 0.439219)"/>
      <use xlink:href="#DejaVuSans-20" transform="translate(413.212891 0.439219)"/>
      <use xlink:href="#DejaVuSans-34" transform="translate(445 0.439219)"/>
      <use xlink:href="#DejaVuSans-2e" transform="translate(508.623047 0.439219)"/>
      <use xlink:href="#DejaVuSans-30" transform="translate(540.410156 0.439219)"/>
     </g>
    </g>
    <g id="line2d_26">
     <path d="M 63 236.6 
L 73 236.6 
L 83 236.6 
" style="fill: none; stroke: #e377c2; stroke-width: 1.5; stroke-linecap: square"/>
    </g>
    <g id="text_21">
     <!-- $f^{F_c}_{desired}$ = 5.0 -->
     <g transform="translate(91 240.1)scale(0.1 -0.1)">
      <use xlink:href="#DejaVuSans-Oblique-66" transform="translate(0 0.439219)"/>
      <use xlink:href="#DejaVuSans-Oblique-46" transform="translate(42.652786 50.965625)scale(0.7)"/>
      <use xlink:href="#DejaVuSans-Oblique-63" transform="translate(82.916458 39.48125)scale(0.49)"/>
      <use xlink:href="#DejaVuSans-Oblique-64" transform="translate(35.205078 -26.904531)scale(0.7)"/>
      <use xlink:href="#DejaVuSans-Oblique-65" transform="translate(79.638672 -26.904531)scale(0.7)"/>
      <use xlink:href="#DejaVuSans-Oblique-73" transform="translate(122.705078 -26.904531)scale(0.7)"/>
      <use xlink:href="#DejaVuSans-Oblique-69" transform="translate(159.174805 -26.904531)scale(0.7)"/>
      <use xlink:href="#DejaVuSans-Oblique-72" transform="translate(178.623047 -26.904531)scale(0.7)"/>
      <use xlink:href="#DejaVuSans-Oblique-65" transform="translate(207.402344 -26.904531)scale(0.7)"/>
      <use xlink:href="#DejaVuSans-Oblique-64" transform="translate(250.46875 -26.904531)scale(0.7)"/>
      <use xlink:href="#DejaVuSans-20" transform="translate(297.636719 0.439219)"/>
      <use xlink:href="#DejaVuSans-3d" transform="translate(329.423828 0.439219)"/>
      <use xlink:href="#DejaVuSans-20" transform="translate(413.212891 0.439219)"/>
      <use xlink:href="#DejaVuSans-35" transform="translate(445 0.439219)"/>
      <use xlink:href="#DejaVuSans-2e" transform="translate(508.623047 0.439219)"/>
      <use xlink:href="#DejaVuSans-30" transform="translate(540.410156 0.439219)"/>
     </g>
    </g>
   </g>
  </g>
 </g>
 <defs>
  <clipPath id="p4284b917ad">
   <rect x="54" y="34.56" width="334.8" height="217.44"/>
  </clipPath>
 </defs>
</svg>
