<?xml version="1.0" encoding="utf-8" standalone="no"?>
<!DOCTYPE svg PUBLIC "-//W3C//DTD SVG 1.1//EN"
  "http://www.w3.org/Graphics/SVG/1.1/DTD/svg11.dtd">
<!-- Created with matplotlib (https://matplotlib.org/) -->
<svg height="288pt" version="1.1" viewBox="0 0 432 288" width="432pt" xmlns="http://www.w3.org/2000/svg" xmlns:xlink="http://www.w3.org/1999/xlink">
 <defs>
  <style type="text/css">
*{stroke-linecap:butt;stroke-linejoin:round;}
  </style>
 </defs>
 <g id="figure_1">
  <g id="patch_1">
   <path d="M 0 288 
L 432 288 
L 432 0 
L 0 0 
z
" style="fill:#ffffff;"/>
  </g>
  <g id="axes_1">
   <g id="patch_2">
    <path d="M 54 252 
L 388.8 252 
L 388.8 34.56 
L 54 34.56 
z
" style="fill:#ffffff;"/>
   </g>
   <g id="patch_3">
    <path clip-path="url(#p99c5405fa9)" d="M 111.339798 86.299756 
L 147.822343 84.338555 
L 184.304889 82.377355 
L 220.787434 80.416154 
L 257.26998 78.454954 
L 293.752525 76.493753 
L 330.235071 74.532553 
L 366.717616 72.571352 
L 367.698217 90.812625 
L 368.678817 109.053898 
L 369.659417 127.29517 
L 370.640017 145.536443 
L 371.620618 163.777716 
L 372.601218 182.018989 
L 373.581818 200.260261 
L 337.099273 202.221462 
L 300.616727 204.182662 
L 264.134182 206.143863 
L 227.651636 208.105063 
L 191.169091 210.066264 
L 154.686545 212.027465 
L 118.204 213.988665 
L 117.2234 195.747392 
L 116.242799 177.50612 
L 115.262199 159.264847 
L 114.281599 141.023574 
L 113.300999 122.782301 
L 112.320398 104.541029 
z
" style="fill:#add8e6;opacity:0.5;"/>
   </g>
   <g id="patch_4">
    <path clip-path="url(#p99c5405fa9)" d="M 69.218182 106.022336 
L 105.025132 98.763908 
L 140.832081 91.50548 
L 176.639031 84.247052 
L 212.445981 76.988624 
L 248.252931 69.730196 
L 284.059881 62.471768 
L 319.86683 55.21334 
L 323.496044 73.116815 
L 327.125258 91.020289 
L 330.754472 108.923764 
L 334.383686 126.827239 
L 338.012901 144.730714 
L 341.642115 162.634189 
L 345.271329 180.537664 
L 309.464379 187.796092 
L 273.657429 195.05452 
L 237.850479 202.312948 
L 202.043529 209.571376 
L 166.23658 216.829804 
L 130.42963 224.088232 
L 94.62268 231.34666 
L 90.993466 213.443185 
L 87.364252 195.539711 
L 83.735038 177.636236 
L 80.105824 159.732761 
L 76.47661 141.829286 
L 72.847396 123.925811 
z
" style="fill:#ffa07a;"/>
   </g>
   <g id="matplotlib.axis_1">
    <g id="xtick_1">
     <g id="line2d_1">
      <defs>
       <path d="M 0 0 
L 0 3.5 
" id="me0db419deb" style="stroke:#000000;stroke-width:0.8;"/>
      </defs>
      <g>
       <use style="stroke:#000000;stroke-width:0.8;" x="111.339798" xlink:href="#me0db419deb" y="252"/>
      </g>
     </g>
     <g id="text_1">
      <!-- 0 -->
      <defs>
       <path d="M 31.78125 66.40625 
Q 24.171875 66.40625 20.328125 58.90625 
Q 16.5 51.421875 16.5 36.375 
Q 16.5 21.390625 20.328125 13.890625 
Q 24.171875 6.390625 31.78125 6.390625 
Q 39.453125 6.390625 43.28125 13.890625 
Q 47.125 21.390625 47.125 36.375 
Q 47.125 51.421875 43.28125 58.90625 
Q 39.453125 66.40625 31.78125 66.40625 
z
M 31.78125 74.21875 
Q 44.046875 74.21875 50.515625 64.515625 
Q 56.984375 54.828125 56.984375 36.375 
Q 56.984375 17.96875 50.515625 8.265625 
Q 44.046875 -1.421875 31.78125 -1.421875 
Q 19.53125 -1.421875 13.0625 8.265625 
Q 6.59375 17.96875 6.59375 36.375 
Q 6.59375 54.828125 13.0625 64.515625 
Q 19.53125 74.21875 31.78125 74.21875 
z
" id="DejaVuSans-48"/>
      </defs>
      <g transform="translate(108.158548 266.598437)scale(0.1 -0.1)">
       <use xlink:href="#DejaVuSans-48"/>
      </g>
     </g>
    </g>
    <g id="xtick_2">
     <g id="line2d_2">
      <g>
       <use style="stroke:#000000;stroke-width:0.8;" x="175.276436" xlink:href="#me0db419deb" y="252"/>
      </g>
     </g>
     <g id="text_2">
      <!-- 1 -->
      <defs>
       <path d="M 12.40625 8.296875 
L 28.515625 8.296875 
L 28.515625 63.921875 
L 10.984375 60.40625 
L 10.984375 69.390625 
L 28.421875 72.90625 
L 38.28125 72.90625 
L 38.28125 8.296875 
L 54.390625 8.296875 
L 54.390625 0 
L 12.40625 0 
z
" id="DejaVuSans-49"/>
      </defs>
      <g transform="translate(172.095186 266.598437)scale(0.1 -0.1)">
       <use xlink:href="#DejaVuSans-49"/>
      </g>
     </g>
    </g>
    <g id="xtick_3">
     <g id="line2d_3">
      <g>
       <use style="stroke:#000000;stroke-width:0.8;" x="239.213074" xlink:href="#me0db419deb" y="252"/>
      </g>
     </g>
     <g id="text_3">
      <!-- 2 -->
      <defs>
       <path d="M 19.1875 8.296875 
L 53.609375 8.296875 
L 53.609375 0 
L 7.328125 0 
L 7.328125 8.296875 
Q 12.9375 14.109375 22.625 23.890625 
Q 32.328125 33.6875 34.8125 36.53125 
Q 39.546875 41.84375 41.421875 45.53125 
Q 43.3125 49.21875 43.3125 52.78125 
Q 43.3125 58.59375 39.234375 62.25 
Q 35.15625 65.921875 28.609375 65.921875 
Q 23.96875 65.921875 18.8125 64.3125 
Q 13.671875 62.703125 7.8125 59.421875 
L 7.8125 69.390625 
Q 13.765625 71.78125 18.9375 73 
Q 24.125 74.21875 28.421875 74.21875 
Q 39.75 74.21875 46.484375 68.546875 
Q 53.21875 62.890625 53.21875 53.421875 
Q 53.21875 48.921875 51.53125 44.890625 
Q 49.859375 40.875 45.40625 35.40625 
Q 44.1875 33.984375 37.640625 27.21875 
Q 31.109375 20.453125 19.1875 8.296875 
z
" id="DejaVuSans-50"/>
      </defs>
      <g transform="translate(236.031824 266.598437)scale(0.1 -0.1)">
       <use xlink:href="#DejaVuSans-50"/>
      </g>
     </g>
    </g>
    <g id="xtick_4">
     <g id="line2d_4">
      <g>
       <use style="stroke:#000000;stroke-width:0.8;" x="303.149712" xlink:href="#me0db419deb" y="252"/>
      </g>
     </g>
     <g id="text_4">
      <!-- 3 -->
      <defs>
       <path d="M 40.578125 39.3125 
Q 47.65625 37.796875 51.625 33 
Q 55.609375 28.21875 55.609375 21.1875 
Q 55.609375 10.40625 48.1875 4.484375 
Q 40.765625 -1.421875 27.09375 -1.421875 
Q 22.515625 -1.421875 17.65625 -0.515625 
Q 12.796875 0.390625 7.625 2.203125 
L 7.625 11.71875 
Q 11.71875 9.328125 16.59375 8.109375 
Q 21.484375 6.890625 26.8125 6.890625 
Q 36.078125 6.890625 40.9375 10.546875 
Q 45.796875 14.203125 45.796875 21.1875 
Q 45.796875 27.640625 41.28125 31.265625 
Q 36.765625 34.90625 28.71875 34.90625 
L 20.21875 34.90625 
L 20.21875 43.015625 
L 29.109375 43.015625 
Q 36.375 43.015625 40.234375 45.921875 
Q 44.09375 48.828125 44.09375 54.296875 
Q 44.09375 59.90625 40.109375 62.90625 
Q 36.140625 65.921875 28.71875 65.921875 
Q 24.65625 65.921875 20.015625 65.03125 
Q 15.375 64.15625 9.8125 62.3125 
L 9.8125 71.09375 
Q 15.4375 72.65625 20.34375 73.4375 
Q 25.25 74.21875 29.59375 74.21875 
Q 40.828125 74.21875 47.359375 69.109375 
Q 53.90625 64.015625 53.90625 55.328125 
Q 53.90625 49.265625 50.4375 45.09375 
Q 46.96875 40.921875 40.578125 39.3125 
z
" id="DejaVuSans-51"/>
      </defs>
      <g transform="translate(299.968462 266.598437)scale(0.1 -0.1)">
       <use xlink:href="#DejaVuSans-51"/>
      </g>
     </g>
    </g>
    <g id="xtick_5">
     <g id="line2d_5">
      <g>
       <use style="stroke:#000000;stroke-width:0.8;" x="367.086351" xlink:href="#me0db419deb" y="252"/>
      </g>
     </g>
     <g id="text_5">
      <!-- 4 -->
      <defs>
       <path d="M 37.796875 64.3125 
L 12.890625 25.390625 
L 37.796875 25.390625 
z
M 35.203125 72.90625 
L 47.609375 72.90625 
L 47.609375 25.390625 
L 58.015625 25.390625 
L 58.015625 17.1875 
L 47.609375 17.1875 
L 47.609375 0 
L 37.796875 0 
L 37.796875 17.1875 
L 4.890625 17.1875 
L 4.890625 26.703125 
z
" id="DejaVuSans-52"/>
      </defs>
      <g transform="translate(363.905101 266.598437)scale(0.1 -0.1)">
       <use xlink:href="#DejaVuSans-52"/>
      </g>
     </g>
    </g>
   </g>
   <g id="matplotlib.axis_2">
    <g id="ytick_1">
     <g id="line2d_6">
      <defs>
       <path d="M 0 0 
L -3.5 0 
" id="m7010e676c4" style="stroke:#000000;stroke-width:0.8;"/>
      </defs>
      <g>
       <use style="stroke:#000000;stroke-width:0.8;" x="54" xlink:href="#m7010e676c4" y="251.972285"/>
      </g>
     </g>
     <g id="text_6">
      <!-- −0.5 -->
      <defs>
       <path d="M 10.59375 35.5 
L 73.1875 35.5 
L 73.1875 27.203125 
L 10.59375 27.203125 
z
" id="DejaVuSans-8722"/>
       <path d="M 10.6875 12.40625 
L 21 12.40625 
L 21 0 
L 10.6875 0 
z
" id="DejaVuSans-46"/>
       <path d="M 10.796875 72.90625 
L 49.515625 72.90625 
L 49.515625 64.59375 
L 19.828125 64.59375 
L 19.828125 46.734375 
Q 21.96875 47.46875 24.109375 47.828125 
Q 26.265625 48.1875 28.421875 48.1875 
Q 40.625 48.1875 47.75 41.5 
Q 54.890625 34.8125 54.890625 23.390625 
Q 54.890625 11.625 47.5625 5.09375 
Q 40.234375 -1.421875 26.90625 -1.421875 
Q 22.3125 -1.421875 17.546875 -0.640625 
Q 12.796875 0.140625 7.71875 1.703125 
L 7.71875 11.625 
Q 12.109375 9.234375 16.796875 8.0625 
Q 21.484375 6.890625 26.703125 6.890625 
Q 35.15625 6.890625 40.078125 11.328125 
Q 45.015625 15.765625 45.015625 23.390625 
Q 45.015625 31 40.078125 35.4375 
Q 35.15625 39.890625 26.703125 39.890625 
Q 22.75 39.890625 18.8125 39.015625 
Q 14.890625 38.140625 10.796875 36.28125 
z
" id="DejaVuSans-53"/>
      </defs>
      <g transform="translate(22.717187 255.771504)scale(0.1 -0.1)">
       <use xlink:href="#DejaVuSans-8722"/>
       <use x="83.789062" xlink:href="#DejaVuSans-48"/>
       <use x="147.412109" xlink:href="#DejaVuSans-46"/>
       <use x="179.199219" xlink:href="#DejaVuSans-53"/>
      </g>
     </g>
    </g>
    <g id="ytick_2">
     <g id="line2d_7">
      <g>
       <use style="stroke:#000000;stroke-width:0.8;" x="54" xlink:href="#m7010e676c4" y="220.003966"/>
      </g>
     </g>
     <g id="text_7">
      <!-- 0.0 -->
      <g transform="translate(31.096875 223.803185)scale(0.1 -0.1)">
       <use xlink:href="#DejaVuSans-48"/>
       <use x="63.623047" xlink:href="#DejaVuSans-46"/>
       <use x="95.410156" xlink:href="#DejaVuSans-48"/>
      </g>
     </g>
    </g>
    <g id="ytick_3">
     <g id="line2d_8">
      <g>
       <use style="stroke:#000000;stroke-width:0.8;" x="54" xlink:href="#m7010e676c4" y="188.035647"/>
      </g>
     </g>
     <g id="text_8">
      <!-- 0.5 -->
      <g transform="translate(31.096875 191.834865)scale(0.1 -0.1)">
       <use xlink:href="#DejaVuSans-48"/>
       <use x="63.623047" xlink:href="#DejaVuSans-46"/>
       <use x="95.410156" xlink:href="#DejaVuSans-53"/>
      </g>
     </g>
    </g>
    <g id="ytick_4">
     <g id="line2d_9">
      <g>
       <use style="stroke:#000000;stroke-width:0.8;" x="54" xlink:href="#m7010e676c4" y="156.067328"/>
      </g>
     </g>
     <g id="text_9">
      <!-- 1.0 -->
      <g transform="translate(31.096875 159.866546)scale(0.1 -0.1)">
       <use xlink:href="#DejaVuSans-49"/>
       <use x="63.623047" xlink:href="#DejaVuSans-46"/>
       <use x="95.410156" xlink:href="#DejaVuSans-48"/>
      </g>
     </g>
    </g>
    <g id="ytick_5">
     <g id="line2d_10">
      <g>
       <use style="stroke:#000000;stroke-width:0.8;" x="54" xlink:href="#m7010e676c4" y="124.099009"/>
      </g>
     </g>
     <g id="text_10">
      <!-- 1.5 -->
      <g transform="translate(31.096875 127.898227)scale(0.1 -0.1)">
       <use xlink:href="#DejaVuSans-49"/>
       <use x="63.623047" xlink:href="#DejaVuSans-46"/>
       <use x="95.410156" xlink:href="#DejaVuSans-53"/>
      </g>
     </g>
    </g>
    <g id="ytick_6">
     <g id="line2d_11">
      <g>
       <use style="stroke:#000000;stroke-width:0.8;" x="54" xlink:href="#m7010e676c4" y="92.130689"/>
      </g>
     </g>
     <g id="text_11">
      <!-- 2.0 -->
      <g transform="translate(31.096875 95.929908)scale(0.1 -0.1)">
       <use xlink:href="#DejaVuSans-50"/>
       <use x="63.623047" xlink:href="#DejaVuSans-46"/>
       <use x="95.410156" xlink:href="#DejaVuSans-48"/>
      </g>
     </g>
    </g>
    <g id="ytick_7">
     <g id="line2d_12">
      <g>
       <use style="stroke:#000000;stroke-width:0.8;" x="54" xlink:href="#m7010e676c4" y="60.16237"/>
      </g>
     </g>
     <g id="text_12">
      <!-- 2.5 -->
      <g transform="translate(31.096875 63.961589)scale(0.1 -0.1)">
       <use xlink:href="#DejaVuSans-50"/>
       <use x="63.623047" xlink:href="#DejaVuSans-46"/>
       <use x="95.410156" xlink:href="#DejaVuSans-53"/>
      </g>
     </g>
    </g>
   </g>
   <g id="line2d_13">
    <defs>
     <path d="M 0 3 
C 0.795609 3 1.55874 2.683901 2.12132 2.12132 
C 2.683901 1.55874 3 0.795609 3 0 
C 3 -0.795609 2.683901 -1.55874 2.12132 -2.12132 
C 1.55874 -2.683901 0.795609 -3 0 -3 
C -0.795609 -3 -1.55874 -2.683901 -2.12132 -2.12132 
C -2.683901 -1.55874 -3 -0.795609 -3 0 
C -3 0.795609 -2.683901 1.55874 -2.12132 2.12132 
C -1.55874 2.683901 -0.795609 3 0 3 
z
" id="ma898ceba65" style="stroke:#0000ff;"/>
    </defs>
    <g clip-path="url(#p99c5405fa9)">
     <use style="fill:#0000ff;stroke:#0000ff;" x="111.339798" xlink:href="#ma898ceba65" y="86.299756"/>
     <use style="fill:#0000ff;stroke:#0000ff;" x="147.822343" xlink:href="#ma898ceba65" y="84.338555"/>
     <use style="fill:#0000ff;stroke:#0000ff;" x="184.304889" xlink:href="#ma898ceba65" y="82.377355"/>
     <use style="fill:#0000ff;stroke:#0000ff;" x="220.787434" xlink:href="#ma898ceba65" y="80.416154"/>
     <use style="fill:#0000ff;stroke:#0000ff;" x="257.26998" xlink:href="#ma898ceba65" y="78.454954"/>
     <use style="fill:#0000ff;stroke:#0000ff;" x="293.752525" xlink:href="#ma898ceba65" y="76.493753"/>
     <use style="fill:#0000ff;stroke:#0000ff;" x="330.235071" xlink:href="#ma898ceba65" y="74.532553"/>
     <use style="fill:#0000ff;stroke:#0000ff;" x="366.717616" xlink:href="#ma898ceba65" y="72.571352"/>
     <use style="fill:#0000ff;stroke:#0000ff;" x="367.698217" xlink:href="#ma898ceba65" y="90.812625"/>
     <use style="fill:#0000ff;stroke:#0000ff;" x="368.678817" xlink:href="#ma898ceba65" y="109.053898"/>
     <use style="fill:#0000ff;stroke:#0000ff;" x="369.659417" xlink:href="#ma898ceba65" y="127.29517"/>
     <use style="fill:#0000ff;stroke:#0000ff;" x="370.640017" xlink:href="#ma898ceba65" y="145.536443"/>
     <use style="fill:#0000ff;stroke:#0000ff;" x="371.620618" xlink:href="#ma898ceba65" y="163.777716"/>
     <use style="fill:#0000ff;stroke:#0000ff;" x="372.601218" xlink:href="#ma898ceba65" y="182.018989"/>
     <use style="fill:#0000ff;stroke:#0000ff;" x="373.581818" xlink:href="#ma898ceba65" y="200.260261"/>
     <use style="fill:#0000ff;stroke:#0000ff;" x="337.099273" xlink:href="#ma898ceba65" y="202.221462"/>
     <use style="fill:#0000ff;stroke:#0000ff;" x="300.616727" xlink:href="#ma898ceba65" y="204.182662"/>
     <use style="fill:#0000ff;stroke:#0000ff;" x="264.134182" xlink:href="#ma898ceba65" y="206.143863"/>
     <use style="fill:#0000ff;stroke:#0000ff;" x="227.651636" xlink:href="#ma898ceba65" y="208.105063"/>
     <use style="fill:#0000ff;stroke:#0000ff;" x="191.169091" xlink:href="#ma898ceba65" y="210.066264"/>
     <use style="fill:#0000ff;stroke:#0000ff;" x="154.686545" xlink:href="#ma898ceba65" y="212.027465"/>
     <use style="fill:#0000ff;stroke:#0000ff;" x="118.204" xlink:href="#ma898ceba65" y="213.988665"/>
     <use style="fill:#0000ff;stroke:#0000ff;" x="117.2234" xlink:href="#ma898ceba65" y="195.747392"/>
     <use style="fill:#0000ff;stroke:#0000ff;" x="116.242799" xlink:href="#ma898ceba65" y="177.50612"/>
     <use style="fill:#0000ff;stroke:#0000ff;" x="115.262199" xlink:href="#ma898ceba65" y="159.264847"/>
     <use style="fill:#0000ff;stroke:#0000ff;" x="114.281599" xlink:href="#ma898ceba65" y="141.023574"/>
     <use style="fill:#0000ff;stroke:#0000ff;" x="113.300999" xlink:href="#ma898ceba65" y="122.782301"/>
     <use style="fill:#0000ff;stroke:#0000ff;" x="112.320398" xlink:href="#ma898ceba65" y="104.541029"/>
    </g>
   </g>
   <g id="line2d_14">
    <defs>
     <path d="M 0 3 
C 0.795609 3 1.55874 2.683901 2.12132 2.12132 
C 2.683901 1.55874 3 0.795609 3 0 
C 3 -0.795609 2.683901 -1.55874 2.12132 -2.12132 
C 1.55874 -2.683901 0.795609 -3 0 -3 
C -0.795609 -3 -1.55874 -2.683901 -2.12132 -2.12132 
C -2.683901 -1.55874 -3 -0.795609 -3 0 
C -3 0.795609 -2.683901 1.55874 -2.12132 2.12132 
C -1.55874 2.683901 -0.795609 3 0 3 
z
" id="mf5e48be260" style="stroke:#ff0000;"/>
    </defs>
    <g clip-path="url(#p99c5405fa9)">
     <use style="fill:#ff0000;stroke:#ff0000;" x="69.218182" xlink:href="#mf5e48be260" y="106.022336"/>
     <use style="fill:#ff0000;stroke:#ff0000;" x="105.025132" xlink:href="#mf5e48be260" y="98.763908"/>
     <use style="fill:#ff0000;stroke:#ff0000;" x="140.832081" xlink:href="#mf5e48be260" y="91.50548"/>
     <use style="fill:#ff0000;stroke:#ff0000;" x="176.639031" xlink:href="#mf5e48be260" y="84.247052"/>
     <use style="fill:#ff0000;stroke:#ff0000;" x="212.445981" xlink:href="#mf5e48be260" y="76.988624"/>
     <use style="fill:#ff0000;stroke:#ff0000;" x="248.252931" xlink:href="#mf5e48be260" y="69.730196"/>
     <use style="fill:#ff0000;stroke:#ff0000;" x="284.059881" xlink:href="#mf5e48be260" y="62.471768"/>
     <use style="fill:#ff0000;stroke:#ff0000;" x="319.86683" xlink:href="#mf5e48be260" y="55.21334"/>
     <use style="fill:#ff0000;stroke:#ff0000;" x="323.496044" xlink:href="#mf5e48be260" y="73.116815"/>
     <use style="fill:#ff0000;stroke:#ff0000;" x="327.125258" xlink:href="#mf5e48be260" y="91.020289"/>
     <use style="fill:#ff0000;stroke:#ff0000;" x="330.754472" xlink:href="#mf5e48be260" y="108.923764"/>
     <use style="fill:#ff0000;stroke:#ff0000;" x="334.383686" xlink:href="#mf5e48be260" y="126.827239"/>
     <use style="fill:#ff0000;stroke:#ff0000;" x="338.012901" xlink:href="#mf5e48be260" y="144.730714"/>
     <use style="fill:#ff0000;stroke:#ff0000;" x="341.642115" xlink:href="#mf5e48be260" y="162.634189"/>
     <use style="fill:#ff0000;stroke:#ff0000;" x="345.271329" xlink:href="#mf5e48be260" y="180.537664"/>
     <use style="fill:#ff0000;stroke:#ff0000;" x="309.464379" xlink:href="#mf5e48be260" y="187.796092"/>
     <use style="fill:#ff0000;stroke:#ff0000;" x="273.657429" xlink:href="#mf5e48be260" y="195.05452"/>
     <use style="fill:#ff0000;stroke:#ff0000;" x="237.850479" xlink:href="#mf5e48be260" y="202.312948"/>
     <use style="fill:#ff0000;stroke:#ff0000;" x="202.043529" xlink:href="#mf5e48be260" y="209.571376"/>
     <use style="fill:#ff0000;stroke:#ff0000;" x="166.23658" xlink:href="#mf5e48be260" y="216.829804"/>
     <use style="fill:#ff0000;stroke:#ff0000;" x="130.42963" xlink:href="#mf5e48be260" y="224.088232"/>
     <use style="fill:#ff0000;stroke:#ff0000;" x="94.62268" xlink:href="#mf5e48be260" y="231.34666"/>
     <use style="fill:#ff0000;stroke:#ff0000;" x="90.993466" xlink:href="#mf5e48be260" y="213.443185"/>
     <use style="fill:#ff0000;stroke:#ff0000;" x="87.364252" xlink:href="#mf5e48be260" y="195.539711"/>
     <use style="fill:#ff0000;stroke:#ff0000;" x="83.735038" xlink:href="#mf5e48be260" y="177.636236"/>
     <use style="fill:#ff0000;stroke:#ff0000;" x="80.105824" xlink:href="#mf5e48be260" y="159.732761"/>
     <use style="fill:#ff0000;stroke:#ff0000;" x="76.47661" xlink:href="#mf5e48be260" y="141.829286"/>
     <use style="fill:#ff0000;stroke:#ff0000;" x="72.847396" xlink:href="#mf5e48be260" y="123.925811"/>
    </g>
   </g>
   <g id="line2d_15">
    <path clip-path="url(#p99c5405fa9)" d="M 111.339798 86.299756 
L 69.218182 106.022336 
" style="fill:none;stroke:#008000;stroke-dasharray:5.55,2.4;stroke-dashoffset:0;stroke-width:1.5;"/>
   </g>
   <g id="line2d_16">
    <path clip-path="url(#p99c5405fa9)" d="M 147.822343 84.338555 
L 105.025132 98.763908 
" style="fill:none;stroke:#008000;stroke-dasharray:5.55,2.4;stroke-dashoffset:0;stroke-width:1.5;"/>
   </g>
   <g id="line2d_17">
    <path clip-path="url(#p99c5405fa9)" d="M 184.304889 82.377355 
L 140.832081 91.50548 
" style="fill:none;stroke:#008000;stroke-dasharray:5.55,2.4;stroke-dashoffset:0;stroke-width:1.5;"/>
   </g>
   <g id="line2d_18">
    <path clip-path="url(#p99c5405fa9)" d="M 220.787434 80.416154 
L 176.639031 84.247052 
" style="fill:none;stroke:#008000;stroke-dasharray:5.55,2.4;stroke-dashoffset:0;stroke-width:1.5;"/>
   </g>
   <g id="line2d_19">
    <path clip-path="url(#p99c5405fa9)" d="M 257.26998 78.454954 
L 212.445981 76.988624 
" style="fill:none;stroke:#008000;stroke-dasharray:5.55,2.4;stroke-dashoffset:0;stroke-width:1.5;"/>
   </g>
   <g id="line2d_20">
    <path clip-path="url(#p99c5405fa9)" d="M 293.752525 76.493753 
L 248.252931 69.730196 
" style="fill:none;stroke:#008000;stroke-dasharray:5.55,2.4;stroke-dashoffset:0;stroke-width:1.5;"/>
   </g>
   <g id="line2d_21">
    <path clip-path="url(#p99c5405fa9)" d="M 330.235071 74.532553 
L 284.059881 62.471768 
" style="fill:none;stroke:#008000;stroke-dasharray:5.55,2.4;stroke-dashoffset:0;stroke-width:1.5;"/>
   </g>
   <g id="line2d_22">
    <path clip-path="url(#p99c5405fa9)" d="M 366.717616 72.571352 
L 319.86683 55.21334 
" style="fill:none;stroke:#008000;stroke-dasharray:5.55,2.4;stroke-dashoffset:0;stroke-width:1.5;"/>
   </g>
   <g id="line2d_23">
    <path clip-path="url(#p99c5405fa9)" d="M 367.698217 90.812625 
L 323.496044 73.116815 
" style="fill:none;stroke:#008000;stroke-dasharray:5.55,2.4;stroke-dashoffset:0;stroke-width:1.5;"/>
   </g>
   <g id="line2d_24">
    <path clip-path="url(#p99c5405fa9)" d="M 368.678817 109.053898 
L 327.125258 91.020289 
" style="fill:none;stroke:#008000;stroke-dasharray:5.55,2.4;stroke-dashoffset:0;stroke-width:1.5;"/>
   </g>
   <g id="line2d_25">
    <path clip-path="url(#p99c5405fa9)" d="M 369.659417 127.29517 
L 330.754472 108.923764 
" style="fill:none;stroke:#008000;stroke-dasharray:5.55,2.4;stroke-dashoffset:0;stroke-width:1.5;"/>
   </g>
   <g id="line2d_26">
    <path clip-path="url(#p99c5405fa9)" d="M 370.640017 145.536443 
L 334.383686 126.827239 
" style="fill:none;stroke:#008000;stroke-dasharray:5.55,2.4;stroke-dashoffset:0;stroke-width:1.5;"/>
   </g>
   <g id="line2d_27">
    <path clip-path="url(#p99c5405fa9)" d="M 371.620618 163.777716 
L 338.012901 144.730714 
" style="fill:none;stroke:#008000;stroke-dasharray:5.55,2.4;stroke-dashoffset:0;stroke-width:1.5;"/>
   </g>
   <g id="line2d_28">
    <path clip-path="url(#p99c5405fa9)" d="M 372.601218 182.018989 
L 341.642115 162.634189 
" style="fill:none;stroke:#008000;stroke-dasharray:5.55,2.4;stroke-dashoffset:0;stroke-width:1.5;"/>
   </g>
   <g id="line2d_29">
    <path clip-path="url(#p99c5405fa9)" d="M 373.581818 200.260261 
L 345.271329 180.537664 
" style="fill:none;stroke:#008000;stroke-dasharray:5.55,2.4;stroke-dashoffset:0;stroke-width:1.5;"/>
   </g>
   <g id="line2d_30">
    <path clip-path="url(#p99c5405fa9)" d="M 337.099273 202.221462 
L 309.464379 187.796092 
" style="fill:none;stroke:#008000;stroke-dasharray:5.55,2.4;stroke-dashoffset:0;stroke-width:1.5;"/>
   </g>
   <g id="line2d_31">
    <path clip-path="url(#p99c5405fa9)" d="M 300.616727 204.182662 
L 273.657429 195.05452 
" style="fill:none;stroke:#008000;stroke-dasharray:5.55,2.4;stroke-dashoffset:0;stroke-width:1.5;"/>
   </g>
   <g id="line2d_32">
    <path clip-path="url(#p99c5405fa9)" d="M 264.134182 206.143863 
L 237.850479 202.312948 
" style="fill:none;stroke:#008000;stroke-dasharray:5.55,2.4;stroke-dashoffset:0;stroke-width:1.5;"/>
   </g>
   <g id="line2d_33">
    <path clip-path="url(#p99c5405fa9)" d="M 227.651636 208.105063 
L 202.043529 209.571376 
" style="fill:none;stroke:#008000;stroke-dasharray:5.55,2.4;stroke-dashoffset:0;stroke-width:1.5;"/>
   </g>
   <g id="line2d_34">
    <path clip-path="url(#p99c5405fa9)" d="M 191.169091 210.066264 
L 166.23658 216.829804 
" style="fill:none;stroke:#008000;stroke-dasharray:5.55,2.4;stroke-dashoffset:0;stroke-width:1.5;"/>
   </g>
   <g id="line2d_35">
    <path clip-path="url(#p99c5405fa9)" d="M 154.686545 212.027465 
L 130.42963 224.088232 
" style="fill:none;stroke:#008000;stroke-dasharray:5.55,2.4;stroke-dashoffset:0;stroke-width:1.5;"/>
   </g>
   <g id="line2d_36">
    <path clip-path="url(#p99c5405fa9)" d="M 118.204 213.988665 
L 94.62268 231.34666 
" style="fill:none;stroke:#008000;stroke-dasharray:5.55,2.4;stroke-dashoffset:0;stroke-width:1.5;"/>
   </g>
   <g id="line2d_37">
    <path clip-path="url(#p99c5405fa9)" d="M 117.2234 195.747392 
L 90.993466 213.443185 
" style="fill:none;stroke:#008000;stroke-dasharray:5.55,2.4;stroke-dashoffset:0;stroke-width:1.5;"/>
   </g>
   <g id="line2d_38">
    <path clip-path="url(#p99c5405fa9)" d="M 116.242799 177.50612 
L 87.364252 195.539711 
" style="fill:none;stroke:#008000;stroke-dasharray:5.55,2.4;stroke-dashoffset:0;stroke-width:1.5;"/>
   </g>
   <g id="line2d_39">
    <path clip-path="url(#p99c5405fa9)" d="M 115.262199 159.264847 
L 83.735038 177.636236 
" style="fill:none;stroke:#008000;stroke-dasharray:5.55,2.4;stroke-dashoffset:0;stroke-width:1.5;"/>
   </g>
   <g id="line2d_40">
    <path clip-path="url(#p99c5405fa9)" d="M 114.281599 141.023574 
L 80.105824 159.732761 
" style="fill:none;stroke:#008000;stroke-dasharray:5.55,2.4;stroke-dashoffset:0;stroke-width:1.5;"/>
   </g>
   <g id="line2d_41">
    <path clip-path="url(#p99c5405fa9)" d="M 113.300999 122.782301 
L 76.47661 141.829286 
" style="fill:none;stroke:#008000;stroke-dasharray:5.55,2.4;stroke-dashoffset:0;stroke-width:1.5;"/>
   </g>
   <g id="line2d_42">
    <path clip-path="url(#p99c5405fa9)" d="M 112.320398 104.541029 
L 72.847396 123.925811 
" style="fill:none;stroke:#008000;stroke-dasharray:5.55,2.4;stroke-dashoffset:0;stroke-width:1.5;"/>
   </g>
   <g id="line2d_43">
    <path clip-path="url(#p99c5405fa9)" d="M 111.339798 220.003966 
L 111.339798 60.16237 
" style="fill:none;stroke:#008000;stroke-linecap:square;stroke-width:3;"/>
   </g>
   <g id="line2d_44">
    <path clip-path="url(#p99c5405fa9)" d="M 111.339798 220.003966 
L 367.086351 220.003966 
" style="fill:none;stroke:#008000;stroke-linecap:square;stroke-width:3;"/>
   </g>
   <g id="patch_5">
    <path d="M 54 252 
L 54 34.56 
" style="fill:none;stroke:#000000;stroke-linecap:square;stroke-linejoin:miter;stroke-width:0.8;"/>
   </g>
   <g id="patch_6">
    <path d="M 388.8 252 
L 388.8 34.56 
" style="fill:none;stroke:#000000;stroke-linecap:square;stroke-linejoin:miter;stroke-width:0.8;"/>
   </g>
   <g id="patch_7">
    <path d="M 54 252 
L 388.8 252 
" style="fill:none;stroke:#000000;stroke-linecap:square;stroke-linejoin:miter;stroke-width:0.8;"/>
   </g>
   <g id="patch_8">
    <path d="M 54 34.56 
L 388.8 34.56 
" style="fill:none;stroke:#000000;stroke-linecap:square;stroke-linejoin:miter;stroke-width:0.8;"/>
   </g>
  </g>
 </g>
 <defs>
  <clipPath id="p99c5405fa9">
   <rect height="217.44" width="334.8" x="54" y="34.56"/>
  </clipPath>
 </defs>
</svg>
