<?xml version="1.0" encoding="UTF-8" standalone="no"?>
<!DOCTYPE svg PUBLIC "-//W3C//DTD SVG 1.1//EN"
 "http://www.w3.org/Graphics/SVG/1.1/DTD/svg11.dtd">
<!-- Generated by graphviz version 9.0.0 (20230911.1827)
 -->
<!-- Title: _11027009616 Pages: 1 -->
<svg width="2453pt" height="1008pt"
 viewBox="0.00 0.00 2452.51 1008.00" xmlns="http://www.w3.org/2000/svg" xmlns:xlink="http://www.w3.org/1999/xlink">
<g id="graph0" class="graph" transform="scale(1 1) rotate(0) translate(4 1004)">
<title>_11027009616</title>
<polygon fill="white" stroke="none" points="-4,4 -4,-1004 2448.51,-1004 2448.51,4 -4,4"/>
<g id="clust1" class="cluster">
<title>cluster11027009616diagram</title>
<polygon fill="none" stroke="black" points="8,-8 8,-992 2436.51,-992 2436.51,-8 8,-8"/>
<text text-anchor="middle" x="1222.25" y="-974.7" font-family="Times,serif" font-size="14.00">depth_camera_demo_system</text>
</g>
<g id="clust3" class="cluster">
<title>cluster11027009616outputports</title>
<polygon fill="lightgrey" stroke="lightgrey" points="2158.73,-774 2158.73,-959 2292.79,-959 2292.79,-774 2158.73,-774"/>
<text text-anchor="middle" x="2225.76" y="-941.7" font-family="Times,serif" font-size="14.00">output ports</text>
</g>
<g id="clust4" class="cluster">
<title>cluster11027009616subsystems</title>
<polygon fill="none" stroke="white" points="16,-16 16,-766 2428.51,-766 2428.51,-16 16,-16"/>
</g>
<g id="clust5" class="cluster">
<title>cluster11026910864diagram</title>
<polygon fill="none" stroke="black" points="24,-24 24,-758 1602.01,-758 1602.01,-24 24,-24"/>
<text text-anchor="middle" x="813" y="-740.7" font-family="Times,serif" font-size="14.00">HardwareStation</text>
</g>
<g id="clust7" class="cluster">
<title>cluster11026910864outputports</title>
<polygon fill="lightgrey" stroke="lightgrey" points="1386.25,-324 1386.25,-725 1594.01,-725 1594.01,-324 1386.25,-324"/>
<text text-anchor="middle" x="1490.13" y="-707.7" font-family="Times,serif" font-size="14.00">output ports</text>
</g>
<g id="clust8" class="cluster">
<title>cluster11026910864subsystems</title>
<polygon fill="none" stroke="white" points="32,-32 32,-653 1366.25,-653 1366.25,-32 32,-32"/>
</g>
<!-- _11027009616_y0 -->
<g id="node1" class="node">
<title>_11027009616_y0</title>
<ellipse fill="none" stroke="green" cx="2225.76" cy="-908" rx="50.84" ry="18"/>
<text text-anchor="middle" x="2225.76" y="-902.95" font-family="Times,serif" font-size="14.00">rgb_image</text>
</g>
<!-- _11027009616_y1 -->
<g id="node2" class="node">
<title>_11027009616_y1</title>
<ellipse fill="none" stroke="green" cx="2225.76" cy="-854" rx="59.03" ry="18"/>
<text text-anchor="middle" x="2225.76" y="-848.95" font-family="Times,serif" font-size="14.00">depth_image</text>
</g>
<!-- _11027009616_y2 -->
<g id="node3" class="node">
<title>_11027009616_y2</title>
<ellipse fill="none" stroke="green" cx="2225.76" cy="-800" rx="54.93" ry="18"/>
<text text-anchor="middle" x="2225.76" y="-794.95" font-family="Times,serif" font-size="14.00">point_cloud</text>
</g>
<!-- _11026910864_y0 -->
<g id="node4" class="node">
<title>_11026910864_y0</title>
<ellipse fill="none" stroke="green" cx="1490.13" cy="-458" rx="85.13" ry="18"/>
<text text-anchor="middle" x="1490.13" y="-452.95" font-family="Times,serif" font-size="14.00">camera0.rgb_image</text>
</g>
<!-- _11026910864_y0&#45;&gt;_11027009616_y0 -->
<g id="edge26" class="edge">
<title>_11026910864_y0&#45;&gt;_11027009616_y0</title>
<path fill="none" stroke="green" d="M1570.14,-464.38C1582.3,-468.71 1593.59,-475.25 1602.01,-485 1633.51,-521.49 1593.83,-661.89 1622.01,-701 1749.32,-877.73 2037.24,-905.06 2163.49,-908.26"/>
<polygon fill="green" stroke="green" points="2163.25,-911.75 2173.32,-908.46 2163.39,-904.75 2163.25,-911.75"/>
</g>
<!-- 11027127280 -->
<g id="node24" class="node">
<title>11027127280</title>
<polygon fill="none" stroke="black" points="1622.01,-421 1622.01,-519 1995.01,-519 1995.01,-421 1622.01,-421"/>
<text text-anchor="middle" x="1808.51" y="-501.7" font-family="Times,serif" font-size="14.00">drake/perception/DepthImageToPointCloud@0000000291449bf0</text>
<polyline fill="none" stroke="black" points="1622.01,-494.5 1995.01,-494.5"/>
<text text-anchor="middle" x="1716.63" y="-477.2" font-family="Times,serif" font-size="14.00">depth_image</text>
<polyline fill="none" stroke="black" points="1622.01,-470 1811.26,-470"/>
<text text-anchor="middle" x="1716.63" y="-452.7" font-family="Times,serif" font-size="14.00">color_image</text>
<polyline fill="none" stroke="black" points="1622.01,-445.5 1811.26,-445.5"/>
<text text-anchor="middle" x="1716.63" y="-428.2" font-family="Times,serif" font-size="14.00">camera_pose</text>
<polyline fill="none" stroke="black" points="1811.26,-421 1811.26,-494.5"/>
<text text-anchor="middle" x="1903.01" y="-452.7" font-family="Times,serif" font-size="14.00">point_cloud</text>
</g>
<!-- _11026910864_y0&#45;&gt;11027127280 -->
<g id="edge23" class="edge">
<title>_11026910864_y0&#45;&gt;11027127280:u1</title>
<path fill="none" stroke="black" d="M1575.61,-458C1587.19,-458 1599.06,-458 1610.6,-458"/>
<polygon fill="black" stroke="black" points="1610.49,-461.5 1620.49,-458 1610.49,-454.5 1610.49,-461.5"/>
</g>
<!-- _11026910864_y1 -->
<g id="node5" class="node">
<title>_11026910864_y1</title>
<ellipse fill="none" stroke="green" cx="1490.13" cy="-404" rx="93.32" ry="18"/>
<text text-anchor="middle" x="1490.13" y="-398.95" font-family="Times,serif" font-size="14.00">camera0.depth_image</text>
</g>
<!-- _11026910864_y1&#45;&gt;_11027009616_y1 -->
<g id="edge27" class="edge">
<title>_11026910864_y1&#45;&gt;_11027009616_y1</title>
<path fill="none" stroke="green" d="M1574.71,-411.98C1585.14,-416.28 1594.69,-422.39 1602.01,-431 1639.53,-475.16 1580.02,-651.06 1622.01,-691 1637.03,-705.29 1978.63,-688.3 1995.01,-701 2041.03,-736.69 1987.05,-788.8 2031.01,-827 2065.8,-857.24 2118.17,-863 2159.69,-861.74"/>
<polygon fill="green" stroke="green" points="2159.75,-865.24 2169.58,-861.29 2159.43,-858.25 2159.75,-865.24"/>
</g>
<!-- _11026910864_y1&#45;&gt;11027127280 -->
<g id="edge22" class="edge">
<title>_11026910864_y1&#45;&gt;11027127280:u0</title>
<path fill="none" stroke="black" d="M1570.56,-413.39C1582.03,-417.45 1592.98,-423.11 1602.01,-431 1616.19,-443.39 1605.83,-467.12 1611.68,-477.24"/>
<polygon fill="black" stroke="black" points="1610.09,-480.36 1620.63,-481.37 1613.02,-474 1610.09,-480.36"/>
</g>
<!-- _11026910864_y2 -->
<g id="node6" class="node">
<title>_11026910864_y2</title>
<ellipse fill="none" stroke="green" cx="1490.13" cy="-350" rx="90.76" ry="18"/>
<text text-anchor="middle" x="1490.13" y="-344.95" font-family="Times,serif" font-size="14.00">camera0.label_image</text>
</g>
<!-- _11026910864_y3 -->
<g id="node7" class="node">
<title>_11026910864_y3</title>
<ellipse fill="none" stroke="green" cx="1490.13" cy="-512" rx="59.03" ry="18"/>
<text text-anchor="middle" x="1490.13" y="-506.95" font-family="Times,serif" font-size="14.00">query_object</text>
</g>
<!-- _11026910864_y4 -->
<g id="node8" class="node">
<title>_11026910864_y4</title>
<ellipse fill="none" stroke="green" cx="1490.13" cy="-566" rx="66.19" ry="18"/>
<text text-anchor="middle" x="1490.13" y="-560.95" font-family="Times,serif" font-size="14.00">contact_results</text>
</g>
<!-- _11026910864_y5 -->
<g id="node9" class="node">
<title>_11026910864_y5</title>
<ellipse fill="none" stroke="green" cx="1490.13" cy="-674" rx="95.88" ry="18"/>
<text text-anchor="middle" x="1490.13" y="-668.95" font-family="Times,serif" font-size="14.00">plant_continuous_state</text>
</g>
<!-- _11026910864_y6 -->
<g id="node10" class="node">
<title>_11026910864_y6</title>
<ellipse fill="none" stroke="green" cx="1490.13" cy="-620" rx="54.42" ry="18"/>
<text text-anchor="middle" x="1490.13" y="-614.95" font-family="Times,serif" font-size="14.00">body_poses</text>
</g>
<!-- 5305680896 -->
<g id="node11" class="node">
<title>5305680896</title>
<polygon fill="none" stroke="black" points="40,-120.75 40,-635.25 546.75,-635.25 546.75,-120.75 40,-120.75"/>
<text text-anchor="middle" x="293.38" y="-617.95" font-family="Times,serif" font-size="14.00">plant</text>
<polyline fill="none" stroke="black" points="40,-610.75 546.75,-610.75"/>
<text text-anchor="middle" x="147.38" y="-585.45" font-family="Times,serif" font-size="14.00">geometry_query</text>
<polyline fill="none" stroke="black" points="40,-570.25 254.75,-570.25"/>
<text text-anchor="middle" x="147.38" y="-544.95" font-family="Times,serif" font-size="14.00">WorldModelInstance_actuation</text>
<polyline fill="none" stroke="black" points="40,-529.75 254.75,-529.75"/>
<text text-anchor="middle" x="147.38" y="-503.95" font-family="Times,serif" font-size="14.00">DefaultModelInstance_actuation</text>
<polyline fill="none" stroke="black" points="40,-488.25 254.75,-488.25"/>
<text text-anchor="middle" x="147.38" y="-462.95" font-family="Times,serif" font-size="14.00">mustard_actuation</text>
<polyline fill="none" stroke="black" points="40,-447.75 254.75,-447.75"/>
<text text-anchor="middle" x="147.38" y="-422.45" font-family="Times,serif" font-size="14.00">camera_actuation</text>
<polyline fill="none" stroke="black" points="40,-407.25 254.75,-407.25"/>
<text text-anchor="middle" x="147.38" y="-381.45" font-family="Times,serif" font-size="14.00">actuation</text>
<polyline fill="none" stroke="black" points="40,-365.75 254.75,-365.75"/>
<text text-anchor="middle" x="147.38" y="-340.45" font-family="Times,serif" font-size="14.00">WorldModelInstance_desired_state</text>
<polyline fill="none" stroke="black" points="40,-325.25 254.75,-325.25"/>
<text text-anchor="middle" x="147.38" y="-299.95" font-family="Times,serif" font-size="14.00">DefaultModelInstance_desired_state</text>
<polyline fill="none" stroke="black" points="40,-284.75 254.75,-284.75"/>
<text text-anchor="middle" x="147.38" y="-258.95" font-family="Times,serif" font-size="14.00">mustard_desired_state</text>
<polyline fill="none" stroke="black" points="40,-243.25 254.75,-243.25"/>
<text text-anchor="middle" x="147.38" y="-217.95" font-family="Times,serif" font-size="14.00">camera_desired_state</text>
<polyline fill="none" stroke="black" points="40,-202.75 254.75,-202.75"/>
<text text-anchor="middle" x="147.38" y="-177.45" font-family="Times,serif" font-size="14.00">applied_generalized_force</text>
<polyline fill="none" stroke="black" points="40,-162.25 254.75,-162.25"/>
<text text-anchor="middle" x="147.38" y="-136.45" font-family="Times,serif" font-size="14.00">applied_spatial_force</text>
<polyline fill="none" stroke="black" points="254.75,-120.75 254.75,-610.75"/>
<text text-anchor="middle" x="400.75" y="-593.45" font-family="Times,serif" font-size="14.00">geometry_pose</text>
<polyline fill="none" stroke="black" points="254.75,-586.25 546.75,-586.25"/>
<text text-anchor="middle" x="400.75" y="-568.95" font-family="Times,serif" font-size="14.00">state</text>
<polyline fill="none" stroke="black" points="254.75,-561.75 546.75,-561.75"/>
<text text-anchor="middle" x="400.75" y="-544.45" font-family="Times,serif" font-size="14.00">body_poses</text>
<polyline fill="none" stroke="black" points="254.75,-537.25 546.75,-537.25"/>
<text text-anchor="middle" x="400.75" y="-519.95" font-family="Times,serif" font-size="14.00">spatial_velocities</text>
<polyline fill="none" stroke="black" points="254.75,-512.75 546.75,-512.75"/>
<text text-anchor="middle" x="400.75" y="-495.45" font-family="Times,serif" font-size="14.00">spatial_accelerations</text>
<polyline fill="none" stroke="black" points="254.75,-488.25 546.75,-488.25"/>
<text text-anchor="middle" x="400.75" y="-470.95" font-family="Times,serif" font-size="14.00">generalized_acceleration</text>
<polyline fill="none" stroke="black" points="254.75,-463.75 546.75,-463.75"/>
<text text-anchor="middle" x="400.75" y="-446.45" font-family="Times,serif" font-size="14.00">WorldModelInstance_state</text>
<polyline fill="none" stroke="black" points="254.75,-439.25 546.75,-439.25"/>
<text text-anchor="middle" x="400.75" y="-421.95" font-family="Times,serif" font-size="14.00">WorldModelInstance_generalized_acceleration</text>
<polyline fill="none" stroke="black" points="254.75,-414.75 546.75,-414.75"/>
<text text-anchor="middle" x="400.75" y="-397.45" font-family="Times,serif" font-size="14.00">DefaultModelInstance_state</text>
<polyline fill="none" stroke="black" points="254.75,-390.25 546.75,-390.25"/>
<text text-anchor="middle" x="400.75" y="-372.95" font-family="Times,serif" font-size="14.00">DefaultModelInstance_generalized_acceleration</text>
<polyline fill="none" stroke="black" points="254.75,-365.75 546.75,-365.75"/>
<text text-anchor="middle" x="400.75" y="-348.45" font-family="Times,serif" font-size="14.00">mustard_state</text>
<polyline fill="none" stroke="black" points="254.75,-341.25 546.75,-341.25"/>
<text text-anchor="middle" x="400.75" y="-323.95" font-family="Times,serif" font-size="14.00">mustard_generalized_acceleration</text>
<polyline fill="none" stroke="black" points="254.75,-316.75 546.75,-316.75"/>
<text text-anchor="middle" x="400.75" y="-299.45" font-family="Times,serif" font-size="14.00">camera_state</text>
<polyline fill="none" stroke="black" points="254.75,-292.25 546.75,-292.25"/>
<text text-anchor="middle" x="400.75" y="-274.95" font-family="Times,serif" font-size="14.00">camera_generalized_acceleration</text>
<polyline fill="none" stroke="black" points="254.75,-267.75 546.75,-267.75"/>
<text text-anchor="middle" x="400.75" y="-250.45" font-family="Times,serif" font-size="14.00">WorldModelInstance_generalized_contact_forces</text>
<polyline fill="none" stroke="black" points="254.75,-243.25 546.75,-243.25"/>
<text text-anchor="middle" x="400.75" y="-225.95" font-family="Times,serif" font-size="14.00">DefaultModelInstance_generalized_contact_forces</text>
<polyline fill="none" stroke="black" points="254.75,-218.75 546.75,-218.75"/>
<text text-anchor="middle" x="400.75" y="-201.45" font-family="Times,serif" font-size="14.00">mustard_generalized_contact_forces</text>
<polyline fill="none" stroke="black" points="254.75,-194.25 546.75,-194.25"/>
<text text-anchor="middle" x="400.75" y="-176.95" font-family="Times,serif" font-size="14.00">camera_generalized_contact_forces</text>
<polyline fill="none" stroke="black" points="254.75,-169.75 546.75,-169.75"/>
<text text-anchor="middle" x="400.75" y="-152.45" font-family="Times,serif" font-size="14.00">reaction_forces</text>
<polyline fill="none" stroke="black" points="254.75,-145.25 546.75,-145.25"/>
<text text-anchor="middle" x="400.75" y="-127.95" font-family="Times,serif" font-size="14.00">contact_results</text>
</g>
<!-- 5305680896&#45;&gt;_11026910864_y4 -->
<g id="edge19" class="edge">
<title>5305680896:y19&#45;&gt;_11026910864_y4</title>
<path fill="none" stroke="green" d="M546.75,-133C598.57,-133 546.96,-560.52 582.75,-598 643.09,-661.19 1296.69,-717.87 1366.25,-665 1392.69,-644.9 1362.6,-616.32 1386.25,-593 1394.52,-584.85 1404.94,-579.07 1415.95,-574.99"/>
<polygon fill="green" stroke="green" points="1416.73,-578.42 1425.19,-572.04 1414.6,-571.75 1416.73,-578.42"/>
</g>
<!-- 5305680896&#45;&gt;_11026910864_y5 -->
<g id="edge20" class="edge">
<title>5305680896:y1&#45;&gt;_11026910864_y5</title>
<path fill="none" stroke="green" d="M546.75,-574C595.24,-574 544.39,-647.34 582.75,-677 760.21,-814.22 862.68,-700.2 1087,-699 1211.12,-698.33 1242.68,-707.64 1366.25,-696 1381.7,-694.54 1398.13,-692.18 1413.77,-689.53"/>
<polygon fill="green" stroke="green" points="1414.26,-693 1423.5,-687.82 1413.05,-686.1 1414.26,-693"/>
</g>
<!-- 5305680896&#45;&gt;_11026910864_y6 -->
<g id="edge21" class="edge">
<title>5305680896:y2&#45;&gt;_11026910864_y6</title>
<path fill="none" stroke="green" d="M546.75,-550C586.55,-550 551.35,-607.54 582.75,-632 772.94,-780.11 881.95,-678.67 1123,-680 1231.11,-680.6 1272.05,-733.06 1366.25,-680 1381.19,-671.58 1372.51,-657.26 1386.25,-647 1398.1,-638.15 1412.6,-632.2 1426.94,-628.19"/>
<polygon fill="green" stroke="green" points="1427.49,-631.66 1436.36,-625.86 1425.81,-624.87 1427.49,-631.66"/>
</g>
<!-- 6067122400 -->
<g id="node12" class="node">
<title>6067122400</title>
<polygon fill="none" stroke="black" points="851,-486.75 851,-609.25 1087,-609.25 1087,-486.75 851,-486.75"/>
<text text-anchor="middle" x="969" y="-591.95" font-family="Times,serif" font-size="14.00">scene_graph</text>
<polyline fill="none" stroke="black" points="851,-584.75 1087,-584.75"/>
<text text-anchor="middle" x="945.62" y="-567.45" font-family="Times,serif" font-size="14.00">plant_pose</text>
<polyline fill="none" stroke="black" points="851,-560.25 1040.25,-560.25"/>
<text text-anchor="middle" x="945.62" y="-542.95" font-family="Times,serif" font-size="14.00">plant_configuration</text>
<polyline fill="none" stroke="black" points="851,-535.75 1040.25,-535.75"/>
<text text-anchor="middle" x="945.62" y="-518.45" font-family="Times,serif" font-size="14.00">inertia_visualizer_pose</text>
<polyline fill="none" stroke="black" points="851,-511.25 1040.25,-511.25"/>
<text text-anchor="middle" x="945.62" y="-493.95" font-family="Times,serif" font-size="14.00">inertia_visualizer_configuration</text>
<polyline fill="none" stroke="black" points="1040.25,-486.75 1040.25,-584.75"/>
<text text-anchor="middle" x="1063.62" y="-530.95" font-family="Times,serif" font-size="14.00">query</text>
</g>
<!-- 5305680896&#45;&gt;6067122400 -->
<g id="edge3" class="edge">
<title>5305680896:y0&#45;&gt;6067122400:u0</title>
<path fill="none" stroke="black" d="M546.75,-599C666.11,-599 697.96,-609.42 815,-586 827.12,-583.58 831.65,-577.81 839.75,-574.84"/>
<polygon fill="black" stroke="black" points="840.2,-578.31 849.51,-573.24 839.07,-571.4 840.2,-578.31"/>
</g>
<!-- 11026856096 -->
<g id="node17" class="node">
<title>11026856096</title>
<polygon fill="none" stroke="black" points="648.88,-120.5 648.88,-169.5 748.88,-169.5 748.88,-120.5 648.88,-120.5"/>
<text text-anchor="middle" x="698.88" y="-152.2" font-family="Times,serif" font-size="14.00">contact_to_lcm</text>
<polyline fill="none" stroke="black" points="648.88,-145 748.88,-145"/>
<text text-anchor="middle" x="673.62" y="-127.7" font-family="Times,serif" font-size="14.00">u0</text>
<polyline fill="none" stroke="black" points="698.38,-120.5 698.38,-145"/>
<text text-anchor="middle" x="723.62" y="-127.7" font-family="Times,serif" font-size="14.00">y0</text>
</g>
<!-- 5305680896&#45;&gt;11026856096 -->
<g id="edge7" class="edge">
<title>5305680896:y19&#45;&gt;11026856096:u0</title>
<path fill="none" stroke="black" d="M546.75,-133C587.66,-133 600.64,-133 636.53,-133"/>
<polygon fill="black" stroke="black" points="636.36,-136.5 646.36,-133 636.36,-129.5 636.36,-136.5"/>
</g>
<!-- 11026872096 -->
<g id="node19" class="node">
<title>11026872096</title>
<polygon fill="none" stroke="black" points="582.75,-510.5 582.75,-559.5 815,-559.5 815,-510.5 582.75,-510.5"/>
<text text-anchor="middle" x="698.88" y="-542.2" font-family="Times,serif" font-size="14.00">inertia_visualizer</text>
<polyline fill="none" stroke="black" points="582.75,-535 815,-535"/>
<text text-anchor="middle" x="649.25" y="-517.7" font-family="Times,serif" font-size="14.00">plant_geometry_pose</text>
<polyline fill="none" stroke="black" points="715.75,-510.5 715.75,-535"/>
<text text-anchor="middle" x="765.38" y="-517.7" font-family="Times,serif" font-size="14.00">geometry_pose</text>
</g>
<!-- 5305680896&#45;&gt;11026872096 -->
<g id="edge9" class="edge">
<title>5305680896:y0&#45;&gt;11026872096:u0</title>
<path fill="none" stroke="black" d="M546.75,-599C579.45,-599 553.87,-540.81 572.01,-526.27"/>
<polygon fill="black" stroke="black" points="572.75,-529.7 581.3,-523.44 570.72,-523 572.75,-529.7"/>
</g>
<!-- 11026902080 -->
<g id="node23" class="node">
<title>11026902080</title>
<polygon fill="none" stroke="black" points="1157.62,-40.25 1157.62,-113.75 1323.62,-113.75 1323.62,-40.25 1157.62,-40.25"/>
<text text-anchor="middle" x="1240.62" y="-96.45" font-family="Times,serif" font-size="14.00">meshcat_contact_visualizer</text>
<polyline fill="none" stroke="black" points="1157.62,-89.25 1323.62,-89.25"/>
<text text-anchor="middle" x="1218.12" y="-71.95" font-family="Times,serif" font-size="14.00">contact_results</text>
<polyline fill="none" stroke="black" points="1157.62,-64.75 1278.62,-64.75"/>
<text text-anchor="middle" x="1218.12" y="-47.45" font-family="Times,serif" font-size="14.00">query_object</text>
<polyline fill="none" stroke="black" points="1278.62,-40.25 1278.62,-89.25"/>
<text text-anchor="middle" x="1301" y="-59.95" font-family="Times,serif" font-size="14.00"> </text>
</g>
<!-- 5305680896&#45;&gt;11026902080 -->
<g id="edge13" class="edge">
<title>5305680896:y19&#45;&gt;11026902080:u0</title>
<path fill="none" stroke="black" d="M546.75,-133C565.5,-133 564.86,-116.61 582.75,-111 822.86,-35.71 898.83,-75.74 1145.15,-76.97"/>
<polygon fill="black" stroke="black" points="1145.1,-80.47 1155.11,-77 1145.12,-73.47 1145.1,-80.47"/>
</g>
<!-- 6067122400&#45;&gt;_11026910864_y3 -->
<g id="edge18" class="edge">
<title>6067122400:y0&#45;&gt;_11026910864_y3</title>
<path fill="none" stroke="green" d="M1087,-536C1141.83,-536 1078.93,-621.37 1123,-654 1144.72,-670.08 1345.57,-671.4 1366.25,-654 1405.95,-620.61 1351.15,-577.2 1386.25,-539 1395.43,-529.01 1407.8,-522.54 1420.79,-518.37"/>
<polygon fill="green" stroke="green" points="1421.59,-521.79 1430.32,-515.79 1419.76,-515.03 1421.59,-521.79"/>
</g>
<!-- 6067122400&#45;&gt;5305680896 -->
<g id="edge1" class="edge">
<title>6067122400:y0&#45;&gt;5305680896:u0</title>
<path fill="none" stroke="black" d="M1064,-486C1064,-391.33 930.14,-435.05 851,-487 817.73,-508.84 847.11,-545.48 815,-569 731.24,-630.35 674.68,-545.76 582.75,-594 561.05,-605.38 569.02,-625.54 546.75,-635.75 342.15,-729.49 201.28,-793.1 40.38,-635.75 29.71,-625.32 23.29,-605.36 29.14,-596.04"/>
<polygon fill="black" stroke="black" points="30.59,-599.22 38.02,-591.67 27.5,-592.94 30.59,-599.22"/>
</g>
<!-- 5308272640 -->
<g id="node13" class="node">
<title>5308272640</title>
<polygon fill="none" stroke="black" points="1123,-133.25 1123,-304.75 1358.25,-304.75 1358.25,-133.25 1123,-133.25"/>
<text text-anchor="middle" x="1240.62" y="-287.45" font-family="Times,serif" font-size="14.00">rgbd_sensor_camera0</text>
<polyline fill="none" stroke="black" points="1123,-280.25 1358.25,-280.25"/>
<text text-anchor="middle" x="1175.62" y="-201.95" font-family="Times,serif" font-size="14.00">geometry_query</text>
<polyline fill="none" stroke="black" points="1228.25,-133.25 1228.25,-280.25"/>
<text text-anchor="middle" x="1293.25" y="-262.95" font-family="Times,serif" font-size="14.00">color_image</text>
<polyline fill="none" stroke="black" points="1228.25,-255.75 1358.25,-255.75"/>
<text text-anchor="middle" x="1293.25" y="-238.45" font-family="Times,serif" font-size="14.00">depth_image_32f</text>
<polyline fill="none" stroke="black" points="1228.25,-231.25 1358.25,-231.25"/>
<text text-anchor="middle" x="1293.25" y="-213.95" font-family="Times,serif" font-size="14.00">depth_image_16u</text>
<polyline fill="none" stroke="black" points="1228.25,-206.75 1358.25,-206.75"/>
<text text-anchor="middle" x="1293.25" y="-189.45" font-family="Times,serif" font-size="14.00">label_image</text>
<polyline fill="none" stroke="black" points="1228.25,-182.25 1358.25,-182.25"/>
<text text-anchor="middle" x="1293.25" y="-164.95" font-family="Times,serif" font-size="14.00">body_pose_in_world</text>
<polyline fill="none" stroke="black" points="1228.25,-157.75 1358.25,-157.75"/>
<text text-anchor="middle" x="1293.25" y="-140.45" font-family="Times,serif" font-size="14.00">image_time</text>
</g>
<!-- 6067122400&#45;&gt;5308272640 -->
<g id="edge2" class="edge">
<title>6067122400:y0&#45;&gt;5308272640:u0</title>
<path fill="none" stroke="black" d="M1064,-486C1064,-457.41 1086.24,-253.25 1113.86,-213.64"/>
<polygon fill="black" stroke="black" points="1115.75,-216.6 1121.78,-207.89 1111.63,-210.94 1115.75,-216.6"/>
</g>
<!-- 11026841728 -->
<g id="node15" class="node">
<title>11026841728</title>
<polygon fill="none" stroke="black" points="1154.25,-323.5 1154.25,-372.5 1327,-372.5 1327,-323.5 1154.25,-323.5"/>
<text text-anchor="middle" x="1240.62" y="-355.2" font-family="Times,serif" font-size="14.00">drake_visualizer(illustration)</text>
<polyline fill="none" stroke="black" points="1154.25,-348 1327,-348"/>
<text text-anchor="middle" x="1214" y="-330.7" font-family="Times,serif" font-size="14.00">query_object</text>
<polyline fill="none" stroke="black" points="1273.75,-323.5 1273.75,-348"/>
<text text-anchor="middle" x="1300.12" y="-330.7" font-family="Times,serif" font-size="14.00"> </text>
</g>
<!-- 6067122400&#45;&gt;11026841728 -->
<g id="edge5" class="edge">
<title>6067122400:y0&#45;&gt;11026841728:u0</title>
<path fill="none" stroke="black" d="M1064,-486C1064,-412.28 1074.78,-343.36 1142.3,-336.55"/>
<polygon fill="black" stroke="black" points="1142.3,-340.06 1152.11,-336.07 1141.96,-333.06 1142.3,-340.06"/>
</g>
<!-- 11026848560 -->
<g id="node16" class="node">
<title>11026848560</title>
<polygon fill="none" stroke="black" points="1156.5,-391.5 1156.5,-440.5 1324.75,-440.5 1324.75,-391.5 1156.5,-391.5"/>
<text text-anchor="middle" x="1240.62" y="-423.2" font-family="Times,serif" font-size="14.00">drake_visualizer(proximity)</text>
<polyline fill="none" stroke="black" points="1156.5,-416 1324.75,-416"/>
<text text-anchor="middle" x="1215.25" y="-398.7" font-family="Times,serif" font-size="14.00">query_object</text>
<polyline fill="none" stroke="black" points="1274,-391.5 1274,-416"/>
<text text-anchor="middle" x="1299.38" y="-398.7" font-family="Times,serif" font-size="14.00"> </text>
</g>
<!-- 6067122400&#45;&gt;11026848560 -->
<g id="edge6" class="edge">
<title>6067122400:y0&#45;&gt;11026848560:u0</title>
<path fill="none" stroke="black" d="M1064,-486C1064,-435.19 1095.96,-407.98 1144.37,-404.41"/>
<polygon fill="black" stroke="black" points="1144.24,-407.91 1154.11,-404.05 1143.99,-400.92 1144.24,-407.91"/>
</g>
<!-- 11026880992 -->
<g id="node20" class="node">
<title>11026880992</title>
<polygon fill="none" stroke="black" points="1146.75,-459.5 1146.75,-508.5 1334.5,-508.5 1334.5,-459.5 1146.75,-459.5"/>
<text text-anchor="middle" x="1240.62" y="-491.2" font-family="Times,serif" font-size="14.00">meshcat_visualizer(illustration)</text>
<polyline fill="none" stroke="black" points="1146.75,-484 1334.5,-484"/>
<text text-anchor="middle" x="1210" y="-466.7" font-family="Times,serif" font-size="14.00">query_object</text>
<polyline fill="none" stroke="black" points="1273.25,-459.5 1273.25,-484"/>
<text text-anchor="middle" x="1303.62" y="-466.7" font-family="Times,serif" font-size="14.00"> </text>
</g>
<!-- 6067122400&#45;&gt;11026880992 -->
<g id="edge10" class="edge">
<title>6067122400:y0&#45;&gt;11026880992:u0</title>
<path fill="none" stroke="black" d="M1087,-536C1121.2,-536 1110.51,-485.68 1134.55,-474.28"/>
<polygon fill="black" stroke="black" points="1135.05,-477.75 1144.14,-472.3 1133.64,-470.89 1135.05,-477.75"/>
</g>
<!-- 11026888000 -->
<g id="node21" class="node">
<title>11026888000</title>
<polygon fill="none" stroke="black" points="1158.75,-527.5 1158.75,-576.5 1322.5,-576.5 1322.5,-527.5 1158.75,-527.5"/>
<text text-anchor="middle" x="1240.62" y="-559.2" font-family="Times,serif" font-size="14.00">meshcat_visualizer(inertia)</text>
<polyline fill="none" stroke="black" points="1158.75,-552 1322.5,-552"/>
<text text-anchor="middle" x="1216" y="-534.7" font-family="Times,serif" font-size="14.00">query_object</text>
<polyline fill="none" stroke="black" points="1273.25,-527.5 1273.25,-552"/>
<text text-anchor="middle" x="1297.62" y="-534.7" font-family="Times,serif" font-size="14.00"> </text>
</g>
<!-- 6067122400&#45;&gt;11026888000 -->
<g id="edge11" class="edge">
<title>6067122400:y0&#45;&gt;11026888000:u0</title>
<path fill="none" stroke="black" d="M1087,-536C1114.26,-536 1123.71,-539.01 1146.24,-539.81"/>
<polygon fill="black" stroke="black" points="1146.05,-543.3 1156.11,-539.97 1146.17,-536.31 1146.05,-543.3"/>
</g>
<!-- 11026894992 -->
<g id="node22" class="node">
<title>11026894992</title>
<polygon fill="none" stroke="black" points="1149,-595.5 1149,-644.5 1332.25,-644.5 1332.25,-595.5 1149,-595.5"/>
<text text-anchor="middle" x="1240.62" y="-627.2" font-family="Times,serif" font-size="14.00">meshcat_visualizer(proximity)</text>
<polyline fill="none" stroke="black" points="1149,-620 1332.25,-620"/>
<text text-anchor="middle" x="1211.25" y="-602.7" font-family="Times,serif" font-size="14.00">query_object</text>
<polyline fill="none" stroke="black" points="1273.5,-595.5 1273.5,-620"/>
<text text-anchor="middle" x="1302.88" y="-602.7" font-family="Times,serif" font-size="14.00"> </text>
</g>
<!-- 6067122400&#45;&gt;11026894992 -->
<g id="edge12" class="edge">
<title>6067122400:y0&#45;&gt;11026894992:u0</title>
<path fill="none" stroke="black" d="M1087,-536C1124.42,-536 1109.93,-593.61 1136.4,-605.77"/>
<polygon fill="black" stroke="black" points="1135.65,-609.19 1146.14,-607.7 1137.02,-602.32 1135.65,-609.19"/>
</g>
<!-- 6067122400&#45;&gt;11026902080 -->
<g id="edge14" class="edge">
<title>6067122400:y0&#45;&gt;11026902080:u1</title>
<path fill="none" stroke="black" d="M1064,-486C1064,-440.06 1101.6,-103.03 1146.61,-57.16"/>
<polygon fill="black" stroke="black" points="1147.99,-60.39 1155.28,-52.69 1144.79,-54.16 1147.99,-60.39"/>
</g>
<!-- 5308272640&#45;&gt;_11026910864_y0 -->
<g id="edge15" class="edge">
<title>5308272640:y0&#45;&gt;_11026910864_y0</title>
<path fill="none" stroke="green" d="M1359.62,-268C1396.33,-268 1361.56,-403.85 1386.25,-431 1391.38,-436.64 1397.54,-441.17 1404.26,-444.79"/>
<polygon fill="green" stroke="green" points="1402.52,-447.85 1413.07,-448.84 1405.44,-441.49 1402.52,-447.85"/>
</g>
<!-- 5308272640&#45;&gt;_11026910864_y1 -->
<g id="edge16" class="edge">
<title>5308272640:y1&#45;&gt;_11026910864_y1</title>
<path fill="none" stroke="green" d="M1359.62,-244C1419.91,-244 1344.9,-333.13 1386.25,-377 1390.75,-381.78 1395.99,-385.75 1401.67,-389.05"/>
<polygon fill="green" stroke="green" points="1399.73,-391.99 1410.24,-393.31 1402.84,-385.72 1399.73,-391.99"/>
</g>
<!-- 5308272640&#45;&gt;_11026910864_y2 -->
<g id="edge17" class="edge">
<title>5308272640:y3&#45;&gt;_11026910864_y2</title>
<path fill="none" stroke="green" d="M1359.62,-194C1424.87,-194 1463.53,-275.79 1479.89,-320.92"/>
<polygon fill="green" stroke="green" points="1476.59,-322.07 1483.17,-330.37 1483.2,-319.77 1476.59,-322.07"/>
</g>
<!-- 6060761808 -->
<g id="node14" class="node">
<title>6060761808</title>
<polygon fill="none" stroke="black" points="127.5,-48.5 127.5,-97.5 459.25,-97.5 459.25,-48.5 127.5,-48.5"/>
<text text-anchor="middle" x="293.38" y="-80.2" font-family="Times,serif" font-size="14.00">drake/systems/SharedPointerSystem@00000001693fe2d0</text>
<polyline fill="none" stroke="black" points="127.5,-73 459.25,-73"/>
<text text-anchor="middle" x="210.38" y="-55.7" font-family="Times,serif" font-size="14.00"> </text>
<polyline fill="none" stroke="black" points="293.25,-48.5 293.25,-73"/>
<text text-anchor="middle" x="376.12" y="-55.7" font-family="Times,serif" font-size="14.00"> </text>
</g>
<!-- 11026865056 -->
<g id="node18" class="node">
<title>11026865056</title>
<polygon fill="none" stroke="black" points="892,-120.5 892,-169.5 1046,-169.5 1046,-120.5 892,-120.5"/>
<text text-anchor="middle" x="969" y="-152.2" font-family="Times,serif" font-size="14.00">contact_results_publisher</text>
<polyline fill="none" stroke="black" points="892,-145 1046,-145"/>
<text text-anchor="middle" x="948.12" y="-127.7" font-family="Times,serif" font-size="14.00">lcm_message</text>
<polyline fill="none" stroke="black" points="1004.25,-120.5 1004.25,-145"/>
<text text-anchor="middle" x="1025.12" y="-127.7" font-family="Times,serif" font-size="14.00"> </text>
</g>
<!-- 11026856096&#45;&gt;11026865056 -->
<g id="edge8" class="edge">
<title>11026856096:y0&#45;&gt;11026865056:u0</title>
<path fill="none" stroke="black" d="M749.88,-133C808.68,-133 826.13,-133 879.77,-133"/>
<polygon fill="black" stroke="black" points="879.49,-136.5 889.49,-133 879.49,-129.5 879.49,-136.5"/>
</g>
<!-- 11026872096&#45;&gt;6067122400 -->
<g id="edge4" class="edge">
<title>11026872096:y0&#45;&gt;6067122400:u2</title>
<path fill="none" stroke="black" d="M815,-523C826.38,-523 831.68,-523 839.55,-523"/>
<polygon fill="black" stroke="black" points="839.49,-526.5 849.49,-523 839.49,-519.5 839.49,-526.5"/>
</g>
<!-- 11027127280&#45;&gt;_11027009616_y2 -->
<g id="edge28" class="edge">
<title>11027127280:y0&#45;&gt;_11027009616_y2</title>
<path fill="none" stroke="green" d="M1995.01,-458C2064.8,-458 1982.62,-719.7 2031.01,-770 2064.58,-804.9 2120.69,-810.28 2163.91,-808.16"/>
<polygon fill="green" stroke="green" points="2163.9,-811.67 2173.65,-807.53 2163.44,-804.68 2163.9,-811.67"/>
</g>
<!-- 11027134384 -->
<g id="node25" class="node">
<title>11027134384</title>
<polygon fill="none" stroke="black" points="2031.01,-387.25 2031.01,-460.75 2420.51,-460.75 2420.51,-387.25 2031.01,-387.25"/>
<text text-anchor="middle" x="2225.76" y="-443.45" font-family="Times,serif" font-size="14.00">drake/geometry/MeshcatPointCloudVisualizer@000000029144b7b0</text>
<polyline fill="none" stroke="black" points="2031.01,-436.25 2420.51,-436.25"/>
<text text-anchor="middle" x="2148.01" y="-418.95" font-family="Times,serif" font-size="14.00">cloud</text>
<polyline fill="none" stroke="black" points="2031.01,-411.75 2265.01,-411.75"/>
<text text-anchor="middle" x="2148.01" y="-394.45" font-family="Times,serif" font-size="14.00">X_ParentCloud</text>
<polyline fill="none" stroke="black" points="2265.01,-387.25 2265.01,-436.25"/>
<text text-anchor="middle" x="2342.38" y="-406.95" font-family="Times,serif" font-size="14.00"> </text>
</g>
<!-- 11027127280&#45;&gt;11027134384 -->
<g id="edge24" class="edge">
<title>11027127280:y0&#45;&gt;11027134384:u0</title>
<path fill="none" stroke="black" d="M1995.01,-458C2012.37,-458 2011.05,-436.83 2020.52,-427.9"/>
<polygon fill="black" stroke="black" points="2021.44,-431.3 2029.59,-424.53 2019,-424.73 2021.44,-431.3"/>
</g>
<!-- 11027003024 -->
<g id="node26" class="node">
<title>11027003024</title>
<polygon fill="none" stroke="black" points="1641.51,-352.5 1641.51,-401.5 1975.51,-401.5 1975.51,-352.5 1641.51,-352.5"/>
<text text-anchor="middle" x="1808.51" y="-384.2" font-family="Times,serif" font-size="14.00">drake/systems/ConstantValueSource@000000029142b690</text>
<polyline fill="none" stroke="black" points="1641.51,-377 1975.51,-377"/>
<text text-anchor="middle" x="1722.38" y="-359.7" font-family="Times,serif" font-size="14.00"> </text>
<polyline fill="none" stroke="black" points="1803.26,-352.5 1803.26,-377"/>
<text text-anchor="middle" x="1889.01" y="-359.7" font-family="Times,serif" font-size="14.00">y0</text>
</g>
<!-- 11027003024&#45;&gt;11027134384 -->
<g id="edge25" class="edge">
<title>11027003024:y0&#45;&gt;11027134384:u1</title>
<path fill="none" stroke="black" d="M1975.51,-365C2000.14,-365 2002.09,-389.66 2019.99,-396.97"/>
<polygon fill="black" stroke="black" points="2019.05,-400.36 2029.52,-398.73 2020.32,-393.48 2019.05,-400.36"/>
</g>
</g>
</svg>
