<?xml version="1.0" encoding="UTF-8" standalone="no"?>
<!DOCTYPE svg PUBLIC "-//W3C//DTD SVG 1.1//EN"
 "http://www.w3.org/Graphics/SVG/1.1/DTD/svg11.dtd">
<!-- Generated by graphviz version 2.44.1 (20200629.0846)
 -->
<!-- Title: _140499563918016 Pages: 1 -->
<svg width="1728pt" height="754pt"
 viewBox="0.00 0.00 1728.00 754.00" xmlns="http://www.w3.org/2000/svg" xmlns:xlink="http://www.w3.org/1999/xlink">
<g id="graph0" class="graph" transform="scale(1 1) rotate(0) translate(4 750)">
<title>_140499563918016</title>
<polygon fill="white" stroke="transparent" points="-4,4 -4,-750 1724,-750 1724,4 -4,4"/>
<g id="clust1" class="cluster">
<title>cluster140499563918016diagram</title>
<polygon fill="none" stroke="black" points="8,-8 8,-738 1712,-738 1712,-8 8,-8"/>
<text text-anchor="middle" x="860" y="-722.8" font-family="Times,serif" font-size="14.00">depth_camera_demo_system</text>
</g>
<g id="clust3" class="cluster">
<title>cluster140499563918016outputports</title>
<polygon fill="lightgrey" stroke="lightgrey" points="1499.96,-524 1499.96,-707 1629.04,-707 1629.04,-524 1499.96,-524"/>
<text text-anchor="middle" x="1564.5" y="-691.8" font-family="Times,serif" font-size="14.00">output ports</text>
</g>
<g id="clust4" class="cluster">
<title>cluster140499563918016subsystems</title>
<polygon fill="none" stroke="white" points="16,-16 16,-516 1704,-516 1704,-16 16,-16"/>
</g>
<!-- _140499563918016_y0 -->
<g id="node1" class="node">
<title>_140499563918016_y0</title>
<ellipse fill="none" stroke="green" cx="1564.5" cy="-658" rx="55.49" ry="18"/>
<text text-anchor="middle" x="1564.5" y="-654.3" font-family="Times,serif" font-size="14.00">color_image</text>
</g>
<!-- _140499563918016_y1 -->
<g id="node2" class="node">
<title>_140499563918016_y1</title>
<ellipse fill="none" stroke="green" cx="1564.5" cy="-604" rx="56.59" ry="18"/>
<text text-anchor="middle" x="1564.5" y="-600.3" font-family="Times,serif" font-size="14.00">depth_image</text>
</g>
<!-- _140499563918016_y2 -->
<g id="node3" class="node">
<title>_140499563918016_y2</title>
<ellipse fill="none" stroke="green" cx="1564.5" cy="-550" rx="52.79" ry="18"/>
<text text-anchor="middle" x="1564.5" y="-546.3" font-family="Times,serif" font-size="14.00">point_cloud</text>
</g>
<!-- 140499525251584 -->
<g id="node4" class="node">
<title>140499525251584</title>
<polygon fill="none" stroke="black" points="24,-24.5 24,-507.5 511,-507.5 511,-24.5 24,-24.5"/>
<text text-anchor="middle" x="267.5" y="-492.3" font-family="Times,serif" font-size="14.00">plant</text>
<polyline fill="none" stroke="black" points="24,-484.5 511,-484.5 "/>
<text text-anchor="middle" x="121" y="-448.3" font-family="Times,serif" font-size="14.00">geometry_query</text>
<polyline fill="none" stroke="black" points="24,-419.5 218,-419.5 "/>
<text text-anchor="middle" x="121" y="-382.8" font-family="Times,serif" font-size="14.00">WorldModelInstance_actuation</text>
<polyline fill="none" stroke="black" points="24,-353.5 218,-353.5 "/>
<text text-anchor="middle" x="121" y="-316.8" font-family="Times,serif" font-size="14.00">DefaultModelInstance_actuation</text>
<polyline fill="none" stroke="black" points="24,-287.5 218,-287.5 "/>
<text text-anchor="middle" x="121" y="-251.3" font-family="Times,serif" font-size="14.00">006_mustard_bottle_actuation</text>
<polyline fill="none" stroke="black" points="24,-222.5 218,-222.5 "/>
<text text-anchor="middle" x="121" y="-185.8" font-family="Times,serif" font-size="14.00">cameras_actuation</text>
<polyline fill="none" stroke="black" points="24,-156.5 218,-156.5 "/>
<text text-anchor="middle" x="121" y="-119.8" font-family="Times,serif" font-size="14.00">applied_generalized_force</text>
<polyline fill="none" stroke="black" points="24,-90.5 218,-90.5 "/>
<text text-anchor="middle" x="121" y="-53.8" font-family="Times,serif" font-size="14.00">applied_spatial_force</text>
<polyline fill="none" stroke="black" points="218,-24.5 218,-484.5 "/>
<text text-anchor="middle" x="364.5" y="-469.3" font-family="Times,serif" font-size="14.00">geometry_pose</text>
<polyline fill="none" stroke="black" points="218,-461.5 511,-461.5 "/>
<text text-anchor="middle" x="364.5" y="-446.3" font-family="Times,serif" font-size="14.00">continuous_state</text>
<polyline fill="none" stroke="black" points="218,-438.5 511,-438.5 "/>
<text text-anchor="middle" x="364.5" y="-423.3" font-family="Times,serif" font-size="14.00">body_poses</text>
<polyline fill="none" stroke="black" points="218,-415.5 511,-415.5 "/>
<text text-anchor="middle" x="364.5" y="-400.3" font-family="Times,serif" font-size="14.00">spatial_velocities</text>
<polyline fill="none" stroke="black" points="218,-392.5 511,-392.5 "/>
<text text-anchor="middle" x="364.5" y="-377.3" font-family="Times,serif" font-size="14.00">spatial_accelerations</text>
<polyline fill="none" stroke="black" points="218,-369.5 511,-369.5 "/>
<text text-anchor="middle" x="364.5" y="-354.3" font-family="Times,serif" font-size="14.00">generalized_acceleration</text>
<polyline fill="none" stroke="black" points="218,-346.5 511,-346.5 "/>
<text text-anchor="middle" x="364.5" y="-331.3" font-family="Times,serif" font-size="14.00">WorldModelInstance_continuous_state</text>
<polyline fill="none" stroke="black" points="218,-323.5 511,-323.5 "/>
<text text-anchor="middle" x="364.5" y="-308.3" font-family="Times,serif" font-size="14.00">WorldModelInstance_generalized_acceleration</text>
<polyline fill="none" stroke="black" points="218,-300.5 511,-300.5 "/>
<text text-anchor="middle" x="364.5" y="-285.3" font-family="Times,serif" font-size="14.00">DefaultModelInstance_continuous_state</text>
<polyline fill="none" stroke="black" points="218,-277.5 511,-277.5 "/>
<text text-anchor="middle" x="364.5" y="-262.3" font-family="Times,serif" font-size="14.00">DefaultModelInstance_generalized_acceleration</text>
<polyline fill="none" stroke="black" points="218,-254.5 511,-254.5 "/>
<text text-anchor="middle" x="364.5" y="-239.3" font-family="Times,serif" font-size="14.00">006_mustard_bottle_continuous_state</text>
<polyline fill="none" stroke="black" points="218,-231.5 511,-231.5 "/>
<text text-anchor="middle" x="364.5" y="-216.3" font-family="Times,serif" font-size="14.00">006_mustard_bottle_generalized_acceleration</text>
<polyline fill="none" stroke="black" points="218,-208.5 511,-208.5 "/>
<text text-anchor="middle" x="364.5" y="-193.3" font-family="Times,serif" font-size="14.00">cameras_continuous_state</text>
<polyline fill="none" stroke="black" points="218,-185.5 511,-185.5 "/>
<text text-anchor="middle" x="364.5" y="-170.3" font-family="Times,serif" font-size="14.00">cameras_generalized_acceleration</text>
<polyline fill="none" stroke="black" points="218,-162.5 511,-162.5 "/>
<text text-anchor="middle" x="364.5" y="-147.3" font-family="Times,serif" font-size="14.00">WorldModelInstance_generalized_contact_forces</text>
<polyline fill="none" stroke="black" points="218,-139.5 511,-139.5 "/>
<text text-anchor="middle" x="364.5" y="-124.3" font-family="Times,serif" font-size="14.00">DefaultModelInstance_generalized_contact_forces</text>
<polyline fill="none" stroke="black" points="218,-116.5 511,-116.5 "/>
<text text-anchor="middle" x="364.5" y="-101.3" font-family="Times,serif" font-size="14.00">006_mustard_bottle_generalized_contact_forces</text>
<polyline fill="none" stroke="black" points="218,-93.5 511,-93.5 "/>
<text text-anchor="middle" x="364.5" y="-78.3" font-family="Times,serif" font-size="14.00">cameras_generalized_contact_forces</text>
<polyline fill="none" stroke="black" points="218,-70.5 511,-70.5 "/>
<text text-anchor="middle" x="364.5" y="-55.3" font-family="Times,serif" font-size="14.00">reaction_forces</text>
<polyline fill="none" stroke="black" points="218,-47.5 511,-47.5 "/>
<text text-anchor="middle" x="364.5" y="-32.3" font-family="Times,serif" font-size="14.00">contact_results</text>
</g>
<!-- 140499562022048 -->
<g id="node5" class="node">
<title>140499562022048</title>
<polygon fill="none" stroke="black" points="547,-438.5 547,-507.5 735,-507.5 735,-438.5 547,-438.5"/>
<text text-anchor="middle" x="641" y="-492.3" font-family="Times,serif" font-size="14.00">scene_graph</text>
<polyline fill="none" stroke="black" points="547,-484.5 735,-484.5 "/>
<text text-anchor="middle" x="584.5" y="-457.8" font-family="Times,serif" font-size="14.00">plant_pose</text>
<polyline fill="none" stroke="black" points="622,-438.5 622,-484.5 "/>
<text text-anchor="middle" x="678.5" y="-469.3" font-family="Times,serif" font-size="14.00">lcm_visualization</text>
<polyline fill="none" stroke="black" points="622,-461.5 735,-461.5 "/>
<text text-anchor="middle" x="678.5" y="-446.3" font-family="Times,serif" font-size="14.00">query</text>
</g>
<!-- 140499525251584&#45;&gt;140499562022048 -->
<g id="edge3" class="edge">
<title>140499525251584:y0&#45;&gt;140499562022048:u0</title>
<path fill="none" stroke="black" d="M511,-473C523.78,-473 528.18,-466.11 536.9,-462.77"/>
<polygon fill="black" stroke="black" points="537.75,-466.17 547,-461 536.55,-459.28 537.75,-466.17"/>
</g>
<!-- 140499562022048&#45;&gt;140499525251584 -->
<g id="edge2" class="edge">
<title>140499562022048:y1&#45;&gt;140499525251584:u0</title>
<path fill="none" stroke="black" d="M679,-437C679,-378.33 596.96,-407.25 547,-438 517.21,-456.34 540.86,-489.78 511,-508 326.05,-620.86 178.07,-659.83 23.5,-508 8.66,-493.42 0.54,-464.08 12.81,-454.85"/>
<polygon fill="black" stroke="black" points="13.89,-458.18 22.5,-452 11.92,-451.46 13.89,-458.18"/>
</g>
<!-- 140499562954880 -->
<g id="node6" class="node">
<title>140499562954880</title>
<polygon fill="none" stroke="black" points="814.5,-461 814.5,-507 947.5,-507 947.5,-461 814.5,-461"/>
<text text-anchor="middle" x="881" y="-491.8" font-family="Times,serif" font-size="14.00">meshcat_visualizer</text>
<polyline fill="none" stroke="black" points="814.5,-484 947.5,-484 "/>
<text text-anchor="middle" x="871" y="-468.8" font-family="Times,serif" font-size="14.00">lcm_visualization</text>
<polyline fill="none" stroke="black" points="927.5,-461 927.5,-484 "/>
<text text-anchor="middle" x="937.5" y="-468.8" font-family="Times,serif" font-size="14.00"> </text>
</g>
<!-- 140499562022048&#45;&gt;140499562954880 -->
<g id="edge4" class="edge">
<title>140499562022048:y0&#45;&gt;140499562954880:u0</title>
<path fill="none" stroke="black" d="M735,-473C766.01,-473 776.21,-472.2 802.84,-472.03"/>
<polygon fill="black" stroke="black" points="803.01,-475.53 813,-472 802.99,-468.53 803.01,-475.53"/>
</g>
<!-- 140499525207040 -->
<g id="node7" class="node">
<title>140499525207040</title>
<polygon fill="none" stroke="black" points="771,-304 771,-442 991,-442 991,-304 771,-304"/>
<text text-anchor="middle" x="881" y="-426.8" font-family="Times,serif" font-size="14.00">rgbd_sensor</text>
<polyline fill="none" stroke="black" points="771,-419 991,-419 "/>
<text text-anchor="middle" x="824" y="-357.8" font-family="Times,serif" font-size="14.00">geometry_query</text>
<polyline fill="none" stroke="black" points="877,-304 877,-419 "/>
<text text-anchor="middle" x="934" y="-403.8" font-family="Times,serif" font-size="14.00">color_image</text>
<polyline fill="none" stroke="black" points="877,-396 991,-396 "/>
<text text-anchor="middle" x="934" y="-380.8" font-family="Times,serif" font-size="14.00">depth_image_32f</text>
<polyline fill="none" stroke="black" points="877,-373 991,-373 "/>
<text text-anchor="middle" x="934" y="-357.8" font-family="Times,serif" font-size="14.00">depth_image_16u</text>
<polyline fill="none" stroke="black" points="877,-350 991,-350 "/>
<text text-anchor="middle" x="934" y="-334.8" font-family="Times,serif" font-size="14.00">label_image</text>
<polyline fill="none" stroke="black" points="877,-327 991,-327 "/>
<text text-anchor="middle" x="934" y="-311.8" font-family="Times,serif" font-size="14.00">X_WB</text>
</g>
<!-- 140499562022048&#45;&gt;140499525207040 -->
<g id="edge1" class="edge">
<title>140499562022048:y1&#45;&gt;140499525207040:u0</title>
<path fill="none" stroke="black" d="M735,-450C773.5,-450 737.09,-377.53 760.96,-363.38"/>
<polygon fill="black" stroke="black" points="762.08,-366.71 771,-361 760.46,-359.9 762.08,-366.71"/>
</g>
<!-- 140499525207040&#45;&gt;_140499563918016_y0 -->
<g id="edge8" class="edge">
<title>140499525207040:y0&#45;&gt;_140499563918016_y0</title>
<path fill="none" stroke="green" d="M991,-408C1053.53,-408 981.75,-500.85 1027,-544 1158.16,-669.05 1390.8,-671.18 1501.56,-664.03"/>
<polygon fill="green" stroke="green" points="1501.83,-667.52 1511.57,-663.34 1501.35,-660.54 1501.83,-667.52"/>
</g>
<!-- 140499525207040&#45;&gt;_140499563918016_y1 -->
<g id="edge9" class="edge">
<title>140499525207040:y1&#45;&gt;_140499563918016_y1</title>
<path fill="none" stroke="green" d="M991,-385C1034.49,-385 994.27,-447.35 1027,-476 1162.38,-594.49 1388.03,-608 1498.52,-606.8"/>
<polygon fill="green" stroke="green" points="1498.58,-610.3 1508.52,-606.65 1498.47,-603.3 1498.58,-610.3"/>
</g>
<!-- 140499563908080 -->
<g id="node8" class="node">
<title>140499563908080</title>
<polygon fill="none" stroke="black" points="1027,-374 1027,-466 1397,-466 1397,-374 1027,-374"/>
<text text-anchor="middle" x="1212" y="-450.8" font-family="Times,serif" font-size="14.00">drake/perception/DepthImageToPointCloud@00007fc89a990bf0</text>
<polyline fill="none" stroke="black" points="1027,-443 1397,-443 "/>
<text text-anchor="middle" x="1121" y="-427.8" font-family="Times,serif" font-size="14.00">depth_image</text>
<polyline fill="none" stroke="black" points="1027,-420 1215,-420 "/>
<text text-anchor="middle" x="1121" y="-404.8" font-family="Times,serif" font-size="14.00">color_image</text>
<polyline fill="none" stroke="black" points="1027,-397 1215,-397 "/>
<text text-anchor="middle" x="1121" y="-381.8" font-family="Times,serif" font-size="14.00">camera_pose</text>
<polyline fill="none" stroke="black" points="1215,-374 1215,-443 "/>
<text text-anchor="middle" x="1306" y="-404.8" font-family="Times,serif" font-size="14.00">point_cloud</text>
</g>
<!-- 140499525207040&#45;&gt;140499563908080 -->
<g id="edge5" class="edge">
<title>140499525207040:y1&#45;&gt;140499563908080:u0</title>
<path fill="none" stroke="black" d="M991,-385C1013.2,-385 1004.83,-418.46 1017.48,-428.92"/>
<polygon fill="black" stroke="black" points="1016.41,-432.25 1027,-432 1018.57,-425.59 1016.41,-432.25"/>
</g>
<!-- 140499525207040&#45;&gt;140499563908080 -->
<g id="edge6" class="edge">
<title>140499525207040:y0&#45;&gt;140499563908080:u1</title>
<path fill="none" stroke="black" d="M991,-408C1003,-408 1008.25,-408 1016.88,-408"/>
<polygon fill="black" stroke="black" points="1017,-411.5 1027,-408 1017,-404.5 1017,-411.5"/>
</g>
<!-- 140499563908080&#45;&gt;_140499563918016_y2 -->
<g id="edge10" class="edge">
<title>140499563908080:y0&#45;&gt;_140499563918016_y2</title>
<path fill="none" stroke="green" d="M1397,-408C1449.29,-408 1394.49,-484.63 1433,-520 1451.5,-536.99 1477.64,-544.98 1501.66,-548.55"/>
<polygon fill="green" stroke="green" points="1501.45,-552.05 1511.8,-549.82 1502.32,-545.1 1501.45,-552.05"/>
</g>
<!-- 140499563913264 -->
<g id="node9" class="node">
<title>140499563913264</title>
<polygon fill="none" stroke="black" points="1433,-397 1433,-443 1696,-443 1696,-397 1433,-397"/>
<text text-anchor="middle" x="1564.5" y="-427.8" font-family="Times,serif" font-size="14.00">meshcat_point_cloud_visualizer_point_cloud</text>
<polyline fill="none" stroke="black" points="1433,-420 1696,-420 "/>
<text text-anchor="middle" x="1517.5" y="-404.8" font-family="Times,serif" font-size="14.00">point_cloud_P</text>
<polyline fill="none" stroke="black" points="1602,-397 1602,-420 "/>
<text text-anchor="middle" x="1649" y="-404.8" font-family="Times,serif" font-size="14.00"> </text>
</g>
<!-- 140499563908080&#45;&gt;140499563913264 -->
<g id="edge7" class="edge">
<title>140499563908080:y0&#45;&gt;140499563913264:u0</title>
<path fill="none" stroke="black" d="M1397,-408C1409,-408 1414.25,-408 1422.88,-408"/>
<polygon fill="black" stroke="black" points="1423,-411.5 1433,-408 1423,-404.5 1423,-411.5"/>
</g>
</g>
</svg>
