<?xml version="1.0" encoding="UTF-8" standalone="no"?>
<!DOCTYPE svg PUBLIC "-//W3C//DTD SVG 1.1//EN"
 "http://www.w3.org/Graphics/SVG/1.1/DTD/svg11.dtd">
<!-- Generated by graphviz version 2.40.1 (20161225.0304)
 -->
<!-- Title: _187780864 Pages: 1 -->
<svg width="995pt" height="601pt"
 viewBox="0.00 0.00 995.00 601.00" xmlns="http://www.w3.org/2000/svg" xmlns:xlink="http://www.w3.org/1999/xlink">
<g id="graph0" class="graph" transform="scale(1 1) rotate(0) translate(4 597)">
<title>_187780864</title>
<polygon fill="#ffffff" stroke="transparent" points="-4,4 -4,-597 991,-597 991,4 -4,4"/>
<g id="clust1" class="cluster">
<title>cluster187780864diagram</title>
<polygon fill="none" stroke="#000000" points="8,-8 8,-585 979,-585 979,-8 8,-8"/>
<text text-anchor="middle" x="493.5" y="-569.8" font-family="Times,serif" font-size="14.00" fill="#000000">pick_and_place</text>
</g>
<g id="clust4" class="cluster">
<title>cluster187780864subsystems</title>
<polygon fill="none" stroke="#ffffff" points="16,-16 16,-554 971,-554 971,-16 16,-16"/>
</g>
<!-- 75271424 -->
<g id="node1" class="node">
<title>75271424</title>
<polygon fill="none" stroke="#000000" points="182,-24.5 182,-415.5 582,-415.5 582,-24.5 182,-24.5"/>
<text text-anchor="middle" x="382" y="-400.3" font-family="Times,serif" font-size="14.00" fill="#000000">manipulation_station</text>
<polyline fill="none" stroke="#000000" points="182,-392.5 582,-392.5 "/>
<text text-anchor="middle" x="279.5" y="-342.8" font-family="Times,serif" font-size="14.00" fill="#000000">iiwa_position</text>
<polyline fill="none" stroke="#000000" points="182,-300.5 377,-300.5 "/>
<text text-anchor="middle" x="279.5" y="-250.8" font-family="Times,serif" font-size="14.00" fill="#000000">iiwa_feedforward_torque</text>
<polyline fill="none" stroke="#000000" points="182,-208.5 377,-208.5 "/>
<text text-anchor="middle" x="279.5" y="-158.8" font-family="Times,serif" font-size="14.00" fill="#000000">wsg_position</text>
<polyline fill="none" stroke="#000000" points="182,-116.5 377,-116.5 "/>
<text text-anchor="middle" x="279.5" y="-66.8" font-family="Times,serif" font-size="14.00" fill="#000000">wsg_force_limit</text>
<polyline fill="none" stroke="#000000" points="377,-24.5 377,-392.5 "/>
<text text-anchor="middle" x="479.5" y="-377.3" font-family="Times,serif" font-size="14.00" fill="#000000">iiwa_position_commanded</text>
<polyline fill="none" stroke="#000000" points="377,-369.5 582,-369.5 "/>
<text text-anchor="middle" x="479.5" y="-354.3" font-family="Times,serif" font-size="14.00" fill="#000000">iiwa_position_measured</text>
<polyline fill="none" stroke="#000000" points="377,-346.5 582,-346.5 "/>
<text text-anchor="middle" x="479.5" y="-331.3" font-family="Times,serif" font-size="14.00" fill="#000000">iiwa_velocity_estimated</text>
<polyline fill="none" stroke="#000000" points="377,-323.5 582,-323.5 "/>
<text text-anchor="middle" x="479.5" y="-308.3" font-family="Times,serif" font-size="14.00" fill="#000000">iiwa_state_estimated</text>
<polyline fill="none" stroke="#000000" points="377,-300.5 582,-300.5 "/>
<text text-anchor="middle" x="479.5" y="-285.3" font-family="Times,serif" font-size="14.00" fill="#000000">iiwa_torque_commanded</text>
<polyline fill="none" stroke="#000000" points="377,-277.5 582,-277.5 "/>
<text text-anchor="middle" x="479.5" y="-262.3" font-family="Times,serif" font-size="14.00" fill="#000000">iiwa_torque_measured</text>
<polyline fill="none" stroke="#000000" points="377,-254.5 582,-254.5 "/>
<text text-anchor="middle" x="479.5" y="-239.3" font-family="Times,serif" font-size="14.00" fill="#000000">wsg_state_measured</text>
<polyline fill="none" stroke="#000000" points="377,-231.5 582,-231.5 "/>
<text text-anchor="middle" x="479.5" y="-216.3" font-family="Times,serif" font-size="14.00" fill="#000000">wsg_force_measured</text>
<polyline fill="none" stroke="#000000" points="377,-208.5 582,-208.5 "/>
<text text-anchor="middle" x="479.5" y="-193.3" font-family="Times,serif" font-size="14.00" fill="#000000">iiwa_torque_external</text>
<polyline fill="none" stroke="#000000" points="377,-185.5 582,-185.5 "/>
<text text-anchor="middle" x="479.5" y="-170.3" font-family="Times,serif" font-size="14.00" fill="#000000">camera_0_rgb_image</text>
<polyline fill="none" stroke="#000000" points="377,-162.5 582,-162.5 "/>
<text text-anchor="middle" x="479.5" y="-147.3" font-family="Times,serif" font-size="14.00" fill="#000000">camera_0_depth_image</text>
<polyline fill="none" stroke="#000000" points="377,-139.5 582,-139.5 "/>
<text text-anchor="middle" x="479.5" y="-124.3" font-family="Times,serif" font-size="14.00" fill="#000000">camera_0_label_image</text>
<polyline fill="none" stroke="#000000" points="377,-116.5 582,-116.5 "/>
<text text-anchor="middle" x="479.5" y="-101.3" font-family="Times,serif" font-size="14.00" fill="#000000">pose_bundle</text>
<polyline fill="none" stroke="#000000" points="377,-93.5 582,-93.5 "/>
<text text-anchor="middle" x="479.5" y="-78.3" font-family="Times,serif" font-size="14.00" fill="#000000">contact_results</text>
<polyline fill="none" stroke="#000000" points="377,-70.5 582,-70.5 "/>
<text text-anchor="middle" x="479.5" y="-55.3" font-family="Times,serif" font-size="14.00" fill="#000000">plant_continuous_state</text>
<polyline fill="none" stroke="#000000" points="377,-47.5 582,-47.5 "/>
<text text-anchor="middle" x="479.5" y="-32.3" font-family="Times,serif" font-size="14.00" fill="#000000">geometry_poses</text>
</g>
<!-- 117024384 -->
<g id="node4" class="node">
<title>117024384</title>
<polygon fill="none" stroke="#000000" points="618,-400 618,-492 838,-492 838,-400 618,-400"/>
<text text-anchor="middle" x="728" y="-476.8" font-family="Times,serif" font-size="14.00" fill="#000000">PseudoInverseController</text>
<polyline fill="none" stroke="#000000" points="618,-469 838,-469 "/>
<text text-anchor="middle" x="673" y="-453.8" font-family="Times,serif" font-size="14.00" fill="#000000">omega_WG</text>
<polyline fill="none" stroke="#000000" points="618,-446 728,-446 "/>
<text text-anchor="middle" x="673" y="-430.8" font-family="Times,serif" font-size="14.00" fill="#000000">v_WG</text>
<polyline fill="none" stroke="#000000" points="618,-423 728,-423 "/>
<text text-anchor="middle" x="673" y="-407.8" font-family="Times,serif" font-size="14.00" fill="#000000">iiwa_position</text>
<polyline fill="none" stroke="#000000" points="728,-400 728,-469 "/>
<text text-anchor="middle" x="783" y="-430.8" font-family="Times,serif" font-size="14.00" fill="#000000">iiwa_velocity</text>
</g>
<!-- 75271424&#45;&gt;117024384 -->
<g id="edge6" class="edge">
<title>75271424:y1&#45;&gt;117024384:u2</title>
<path fill="none" stroke="#000000" d="M582,-358C606.2488,-358 594.6552,-396.4334 608.2633,-407.8433"/>
<polygon fill="#000000" stroke="#000000" points="607.408,-411.2453 618,-411 609.5669,-404.5865 607.408,-411.2453"/>
</g>
<!-- 101671872 -->
<g id="node7" class="node">
<title>101671872</title>
<polygon fill="none" stroke="#000000" points="647.5,-94 647.5,-140 808.5,-140 808.5,-94 647.5,-94"/>
<text text-anchor="middle" x="728" y="-124.8" font-family="Times,serif" font-size="14.00" fill="#000000">meshcat_visualizer</text>
<polyline fill="none" stroke="#000000" points="647.5,-117 808.5,-117 "/>
<text text-anchor="middle" x="717.5" y="-101.8" font-family="Times,serif" font-size="14.00" fill="#000000">lcm_visualization</text>
<polyline fill="none" stroke="#000000" points="787.5,-94 787.5,-117 "/>
<text text-anchor="middle" x="798" y="-101.8" font-family="Times,serif" font-size="14.00" fill="#000000"> </text>
</g>
<!-- 75271424&#45;&gt;101671872 -->
<g id="edge3" class="edge">
<title>75271424:y12&#45;&gt;101671872:u0</title>
<path fill="none" stroke="#000000" d="M582,-105C607.1649,-105 615.8891,-105 636.8154,-105"/>
<polygon fill="#000000" stroke="#000000" points="637,-108.5001 647,-105 637,-101.5001 637,-108.5001"/>
</g>
<!-- 188379136 -->
<g id="node2" class="node">
<title>188379136</title>
<polygon fill="none" stroke="#000000" points="352.5,-435 352.5,-481 411.5,-481 411.5,-435 352.5,-435"/>
<text text-anchor="middle" x="382" y="-465.8" font-family="Times,serif" font-size="14.00" fill="#000000">v_WG</text>
<polyline fill="none" stroke="#000000" points="352.5,-458 411.5,-458 "/>
<text text-anchor="middle" x="364" y="-442.8" font-family="Times,serif" font-size="14.00" fill="#000000"> </text>
<polyline fill="none" stroke="#000000" points="375.5,-435 375.5,-458 "/>
<text text-anchor="middle" x="393.5" y="-442.8" font-family="Times,serif" font-size="14.00" fill="#000000">y0</text>
</g>
<!-- 188379136&#45;&gt;117024384 -->
<g id="edge5" class="edge">
<title>188379136:y0&#45;&gt;117024384:u1</title>
<path fill="none" stroke="#000000" d="M412,-446C500.2179,-446 524.4691,-434.8967 607.8145,-434.0509"/>
<polygon fill="#000000" stroke="#000000" points="608.0176,-437.55 618,-434 607.9826,-430.5501 608.0176,-437.55"/>
</g>
<!-- 188367616 -->
<g id="node3" class="node">
<title>188367616</title>
<polygon fill="none" stroke="#000000" points="333,-500 333,-546 431,-546 431,-500 333,-500"/>
<text text-anchor="middle" x="382" y="-530.8" font-family="Times,serif" font-size="14.00" fill="#000000">omega_WG</text>
<polyline fill="none" stroke="#000000" points="333,-523 431,-523 "/>
<text text-anchor="middle" x="354" y="-507.8" font-family="Times,serif" font-size="14.00" fill="#000000"> </text>
<polyline fill="none" stroke="#000000" points="375,-500 375,-523 "/>
<text text-anchor="middle" x="403" y="-507.8" font-family="Times,serif" font-size="14.00" fill="#000000">y0</text>
</g>
<!-- 188367616&#45;&gt;117024384 -->
<g id="edge4" class="edge">
<title>188367616:y0&#45;&gt;117024384:u0</title>
<path fill="none" stroke="#000000" d="M431,-511C498.6972,-511 520.6593,-519.6397 582,-491 597.8258,-483.611 597.4382,-466.7454 607.9926,-460.4392"/>
<polygon fill="#000000" stroke="#000000" points="609.1133,-463.7686 618,-458 607.4556,-456.9677 609.1133,-463.7686"/>
</g>
<!-- 187516992 -->
<g id="node5" class="node">
<title>187516992</title>
<polygon fill="none" stroke="#000000" points="874,-390 874,-436 963,-436 963,-390 874,-390"/>
<text text-anchor="middle" x="918.5" y="-420.8" font-family="Times,serif" font-size="14.00" fill="#000000">integrator</text>
<polyline fill="none" stroke="#000000" points="874,-413 963,-413 "/>
<text text-anchor="middle" x="896.5" y="-397.8" font-family="Times,serif" font-size="14.00" fill="#000000">u0</text>
<polyline fill="none" stroke="#000000" points="919,-390 919,-413 "/>
<text text-anchor="middle" x="941" y="-397.8" font-family="Times,serif" font-size="14.00" fill="#000000">y0</text>
</g>
<!-- 117024384&#45;&gt;187516992 -->
<g id="edge7" class="edge">
<title>117024384:y0&#45;&gt;187516992:u0</title>
<path fill="none" stroke="#000000" d="M838,-434C855.4658,-434 854.0789,-412.6318 864.1803,-404.2848"/>
<polygon fill="#000000" stroke="#000000" points="865.6269,-407.4916 874,-401 863.4062,-400.8532 865.6269,-407.4916"/>
</g>
<!-- 187516992&#45;&gt;75271424 -->
<g id="edge1" class="edge">
<title>187516992:y0&#45;&gt;75271424:u0</title>
<path fill="none" stroke="#000000" d="M941.5,-390C941.5,-360 903.9999,-389.9414 874,-390 760.2216,-390.2222 726.5121,-356.7845 618,-391 599.422,-396.8579 600.5894,-410.1784 582,-416 560.7934,-422.6412 197.7135,-431.7135 182,-416 173.5295,-407.5295 168.9354,-370.1799 174.6424,-354.2448"/>
<polygon fill="#000000" stroke="#000000" points="177.3301,-356.5102 182,-347 172.4188,-351.5223 177.3301,-356.5102"/>
</g>
<!-- 188028928 -->
<g id="node6" class="node">
<title>188028928</title>
<polygon fill="none" stroke="#000000" points="24,-151 24,-197 146,-197 146,-151 24,-151"/>
<text text-anchor="middle" x="85" y="-181.8" font-family="Times,serif" font-size="14.00" fill="#000000">wsg_command</text>
<polyline fill="none" stroke="#000000" points="24,-174 146,-174 "/>
<text text-anchor="middle" x="51" y="-158.8" font-family="Times,serif" font-size="14.00" fill="#000000"> </text>
<polyline fill="none" stroke="#000000" points="78,-151 78,-174 "/>
<text text-anchor="middle" x="112" y="-158.8" font-family="Times,serif" font-size="14.00" fill="#000000">y0</text>
</g>
<!-- 188028928&#45;&gt;75271424 -->
<g id="edge2" class="edge">
<title>188028928:y0&#45;&gt;75271424:u2</title>
<path fill="none" stroke="#000000" d="M146,-162C158,-162 163.25,-162 171.875,-162"/>
<polygon fill="#000000" stroke="#000000" points="172,-165.5001 182,-162 172,-158.5001 172,-165.5001"/>
</g>
</g>
</svg>
