<?xml version="1.0" encoding="utf-8" standalone="no"?>
<!DOCTYPE svg PUBLIC "-//W3C//DTD SVG 1.1//EN"
  "http://www.w3.org/Graphics/SVG/1.1/DTD/svg11.dtd">
<!-- Created with matplotlib (https://matplotlib.org/) -->
<svg height="288pt" version="1.1" viewBox="0 0 432 288" width="432pt" xmlns="http://www.w3.org/2000/svg" xmlns:xlink="http://www.w3.org/1999/xlink">
 <metadata>
  <rdf:RDF xmlns:cc="http://creativecommons.org/ns#" xmlns:dc="http://purl.org/dc/elements/1.1/" xmlns:rdf="http://www.w3.org/1999/02/22-rdf-syntax-ns#">
   <cc:Work>
    <dc:type rdf:resource="http://purl.org/dc/dcmitype/StillImage"/>
    <dc:date>2020-09-26T10:41:52.922582</dc:date>
    <dc:format>image/svg+xml</dc:format>
    <dc:creator>
     <cc:Agent>
      <dc:title>Matplotlib v3.3.1, https://matplotlib.org/</dc:title>
     </cc:Agent>
    </dc:creator>
   </cc:Work>
  </rdf:RDF>
 </metadata>
 <defs>
  <style type="text/css">*{stroke-linecap:butt;stroke-linejoin:round;}</style>
 </defs>
 <g id="figure_1">
  <g id="patch_1">
   <path d="M 0 288 
L 432 288 
L 432 0 
L 0 0 
z
" style="fill:none;"/>
  </g>
  <g id="axes_1">
   <g id="patch_2">
    <path clip-path="url(#pa486a56f04)" d="M 112.68 88.92 
L 143.742857 88.92 
L 174.805714 88.92 
L 205.868571 88.92 
L 236.931429 88.92 
L 267.994286 88.92 
L 299.057143 88.92 
L 330.12 88.92 
L 330.12 104.451429 
L 330.12 119.982857 
L 330.12 135.514286 
L 330.12 151.045714 
L 330.12 166.577143 
L 330.12 182.108571 
L 330.12 197.64 
L 299.057143 197.64 
L 267.994286 197.64 
L 236.931429 197.64 
L 205.868571 197.64 
L 174.805714 197.64 
L 143.742857 197.64 
L 112.68 197.64 
L 112.68 182.108571 
L 112.68 166.577143 
L 112.68 151.045714 
L 112.68 135.514286 
L 112.68 119.982857 
L 112.68 104.451429 
z
" style="fill:#add8e6;opacity:0.5;"/>
   </g>
   <g id="LineCollection_1"/>
   <g id="LineCollection_2">
    <path clip-path="url(#pa486a56f04)" d="M 92.062308 112.89563 
L 92.256648 111.90443 
L 91.414589 108.985772 
L 90.996148 106.067114 
L 90.975102 103.148456 
L 91.350129 100.229799 
L 92.144949 97.311141 
L 92.073429 95.851812 
L 91.309825 92.933154 
L 90.963584 90.014497 
L 91.012695 87.095839 
L 91.460252 84.177181 
L 92.334087 81.258523 
L 93.343893 78.995382 
L 93.687838 78.339866 
L 94.583174 76.880537 
L 95.636091 75.421208 
L 97.721879 73.146415 
L 99.910872 71.323611 
L 102.099866 69.926085 
L 104.288859 68.862309 
L 106.477852 68.079415 
L 108.666846 67.54995 
L 110.855839 67.252736 
L 113.044832 67.179064 
L 115.233826 67.326664 
L 117.422819 67.700037 
L 119.611812 68.311114 
L 122.582326 69.583893 
L 125.025662 71.043221 
L 128.367785 73.551278 
L 130.556779 71.635965 
L 132.745772 70.165444 
L 134.934765 69.041905 
L 137.433538 68.124564 
L 139.312752 67.632531 
L 141.501745 67.291931 
L 143.690738 67.176063 
L 145.879732 67.281372 
L 148.068725 67.611093 
L 150.257718 68.175089 
L 152.446711 68.996063 
L 154.635705 70.104513 
L 156.824698 71.556585 
L 159.013691 73.448518 
L 163.391678 70.416527 
L 165.580671 69.231628 
L 168.533159 68.124564 
L 169.958658 67.723607 
L 172.147651 67.339261 
L 174.336644 67.181065 
L 176.525638 67.244203 
L 178.714631 67.530622 
L 181.127032 68.124564 
L 183.092617 68.818973 
L 185.281611 69.868053 
L 187.470604 71.247663 
L 189.659597 73.047761 
L 191.848591 72.302519 
L 194.037584 70.679538 
L 196.226577 69.431641 
L 198.41557 68.494393 
L 200.604564 67.823269 
L 202.793557 67.394778 
L 204.98255 67.194078 
L 207.171544 67.215116 
L 209.360537 67.458543 
L 212.152415 68.124564 
L 213.738523 68.651803 
L 215.927517 69.64306 
L 218.240236 71.043221 
L 220.305503 72.663286 
L 222.494497 72.663286 
L 222.682131 72.50255 
L 224.68349 70.954677 
L 226.996347 69.583893 
L 229.061477 68.651803 
L 231.25047 67.931615 
L 233.439463 67.458543 
L 235.628456 67.215116 
L 237.81745 67.194078 
L 240.006443 67.394778 
L 243.197484 68.124564 
L 244.38443 68.494393 
L 246.85635 69.583893 
L 249.286541 71.043221 
L 250.951409 72.302519 
L 253.140403 73.047761 
L 255.329396 71.247663 
L 257.518389 69.868053 
L 259.707383 68.818973 
L 261.896376 68.048746 
L 264.085369 67.530622 
L 266.274362 67.244203 
L 268.463356 67.181065 
L 270.652349 67.339261 
L 272.841342 67.723607 
L 275.030336 68.346584 
L 277.899697 69.583893 
L 280.340747 71.043221 
L 283.786309 73.448518 
L 285.975302 71.556585 
L 288.164295 70.104513 
L 290.353289 68.996063 
L 292.733031 68.124564 
L 294.731275 67.611093 
L 296.920268 67.281372 
L 299.109262 67.176063 
L 301.298255 67.291931 
L 303.487248 67.632531 
L 305.676242 68.208222 
L 307.865235 69.041905 
L 310.054228 70.165444 
L 312.243221 71.635965 
L 314.432215 73.551278 
L 317.774338 71.043221 
L 318.810201 70.352646 
L 320.999195 69.183239 
L 323.841361 68.124564 
L 325.377181 67.700037 
L 327.566174 67.326664 
L 329.755168 67.179064 
L 331.944161 67.252736 
L 334.133154 67.54995 
L 336.453321 68.124564 
L 338.511141 68.862309 
L 340.700134 69.926085 
L 342.889128 71.323611 
L 345.078121 73.146415 
L 345.885061 73.961879 
L 347.267114 75.553434 
L 348.216826 76.880537 
L 349.456107 78.995382 
L 350.465913 81.258523 
L 351.339748 84.177181 
L 351.787305 87.095839 
L 351.836416 90.014497 
L 351.490175 92.933154 
L 350.726571 95.851812 
L 350.655051 97.311141 
L 351.449871 100.229799 
L 351.824898 103.148456 
L 351.803852 106.067114 
L 351.385411 108.985772 
L 350.543352 111.90443 
L 350.829476 113.363758 
L 351.546659 116.282416 
L 351.84993 119.201074 
L 351.758697 122.119732 
L 351.267188 125.038389 
L 350.504931 127.957047 
L 351.362849 130.875705 
L 351.795831 133.794362 
L 351.830908 136.71302 
L 351.470289 139.631678 
L 350.691104 142.550336 
L 350.691104 144.009664 
L 351.470289 146.928322 
L 351.830908 149.84698 
L 351.795831 152.765638 
L 351.362849 155.684295 
L 350.504931 158.602953 
L 351.645101 163.58308 
L 351.853433 165.899597 
L 351.74815 168.818255 
L 351.241909 171.736913 
L 350.829476 173.196242 
L 350.543352 174.65557 
L 351.385411 177.574228 
L 351.803852 180.492886 
L 351.824898 183.411544 
L 351.449871 186.330201 
L 350.655051 189.248859 
L 350.726571 190.708188 
L 351.490175 193.626846 
L 351.836416 196.545503 
L 351.787305 199.464161 
L 351.339748 202.382819 
L 350.465913 205.301477 
L 349.456107 207.564618 
L 349.112162 208.220134 
L 348.216826 209.679463 
L 347.163909 211.138792 
L 345.078121 213.413585 
L 342.889128 215.236389 
L 340.700134 216.633915 
L 338.511141 217.697691 
L 336.322148 218.480585 
L 334.133154 219.01005 
L 331.944161 219.307264 
L 329.755168 219.380936 
L 327.566174 219.233336 
L 325.377181 218.859963 
L 323.188188 218.248886 
L 320.217674 216.976107 
L 317.774338 215.516779 
L 314.432215 213.008722 
L 312.243221 214.924035 
L 310.054228 216.394556 
L 307.865235 217.518095 
L 305.366462 218.435436 
L 303.487248 218.927469 
L 301.298255 219.268069 
L 299.109262 219.383937 
L 296.920268 219.278628 
L 294.731275 218.948907 
L 292.542282 218.384911 
L 290.353289 217.563937 
L 288.164295 216.455487 
L 285.975302 215.003415 
L 283.786309 213.111482 
L 279.408322 216.143473 
L 277.219329 217.328372 
L 274.266841 218.435436 
L 272.841342 218.836393 
L 270.652349 219.220739 
L 268.463356 219.378935 
L 266.274362 219.315797 
L 264.085369 219.029378 
L 261.672968 218.435436 
L 259.707383 217.741027 
L 257.518389 216.691947 
L 255.329396 215.312337 
L 253.140403 213.512239 
L 250.951409 214.257481 
L 248.762416 215.880462 
L 246.573423 217.128359 
L 244.38443 218.065607 
L 242.195436 218.736731 
L 240.006443 219.165222 
L 237.81745 219.365922 
L 235.628456 219.344884 
L 233.439463 219.101457 
L 230.647585 218.435436 
L 229.061477 217.908197 
L 226.872483 216.91694 
L 224.559764 215.516779 
L 222.494497 213.896714 
L 220.305503 213.896714 
L 220.117869 214.05745 
L 218.11651 215.605323 
L 215.803653 216.976107 
L 213.738523 217.908197 
L 211.54953 218.628385 
L 209.360537 219.101457 
L 207.171544 219.344884 
L 204.98255 219.365922 
L 202.793557 219.165222 
L 199.602516 218.435436 
L 198.41557 218.065607 
L 195.94365 216.976107 
L 193.513459 215.516779 
L 191.848591 214.257481 
L 189.659597 213.512239 
L 187.470604 215.312337 
L 185.281611 216.691947 
L 183.092617 217.741027 
L 180.903624 218.511254 
L 178.714631 219.029378 
L 176.525638 219.315797 
L 174.336644 219.378935 
L 172.147651 219.220739 
L 169.958658 218.836393 
L 167.769664 218.213416 
L 164.900303 216.976107 
L 162.459253 215.516779 
L 159.013691 213.111482 
L 156.824698 215.003415 
L 154.635705 216.455487 
L 152.446711 217.563937 
L 150.066969 218.435436 
L 148.068725 218.948907 
L 145.879732 219.278628 
L 143.690738 219.383937 
L 141.501745 219.268069 
L 139.312752 218.927469 
L 137.123758 218.351778 
L 134.934765 217.518095 
L 132.745772 216.394556 
L 130.556779 214.924035 
L 128.367785 213.008722 
L 125.025662 215.516779 
L 123.989799 216.207354 
L 121.800805 217.376761 
L 118.958639 218.435436 
L 117.422819 218.859963 
L 115.233826 219.233336 
L 113.044832 219.380936 
L 110.855839 219.307264 
L 108.666846 219.01005 
L 106.346679 218.435436 
L 104.288859 217.697691 
L 102.099866 216.633915 
L 99.910872 215.236389 
L 97.721879 213.413585 
L 96.914939 212.598121 
L 95.532886 211.006566 
L 94.583174 209.679463 
L 93.343893 207.564618 
L 92.334087 205.301477 
L 91.460252 202.382819 
L 91.012695 199.464161 
L 90.963584 196.545503 
L 91.309825 193.626846 
L 92.073429 190.708188 
L 92.144949 189.248859 
L 91.350129 186.330201 
L 90.975102 183.411544 
L 90.996148 180.492886 
L 91.414589 177.574228 
L 92.256648 174.65557 
L 91.970524 173.196242 
L 91.253341 170.277584 
L 90.95007 167.358926 
L 91.041303 164.440268 
L 91.532812 161.521611 
L 92.295069 158.602953 
L 91.437151 155.684295 
L 91.004169 152.765638 
L 90.977566 152.182765 
L 90.977566 152.182765 
" style="fill:none;stroke:#3b528b;stroke-width:1.5;"/>
    <path clip-path="url(#pa486a56f04)" d="M 308.439499 121.474168 
L 308.390086 119.201074 
L 308.693971 116.282416 
L 309.694976 111.90443 
L 309.220399 110.445101 
L 308.142285 108.985772 
L 307.865235 108.799089 
L 305.676242 109.630884 
L 303.487248 110.207628 
L 301.298255 110.548166 
L 299.109262 110.663938 
L 296.157549 110.445101 
L 294.731275 110.229088 
L 292.542282 109.663932 
L 290.353289 108.84519 
L 287.825129 107.526443 
L 285.69814 106.067114 
L 283.786309 104.39474 
L 281.353484 106.067114 
L 279.23409 107.526443 
L 276.310941 108.985772 
L 275.030336 109.492941 
L 272.841342 110.116424 
L 270.652349 110.500897 
L 268.463356 110.658937 
L 266.274362 110.595844 
L 264.085369 110.309618 
L 261.896376 109.79044 
L 259.626146 108.985772 
L 256.777008 107.526443 
L 254.646928 106.067114 
L 253.140403 104.796266 
L 250.951409 105.534251 
L 248.762416 107.160265 
L 246.573423 108.40671 
L 244.38443 109.3457 
L 242.195436 110.016567 
L 240.006443 110.445469 
L 237.81745 110.645932 
L 235.628456 110.624908 
L 233.439463 110.381717 
L 231.25047 109.907944 
L 228.594989 108.985772 
L 226.872483 108.194503 
L 224.68349 106.881671 
L 222.494497 105.172878 
L 220.305503 105.172878 
L 218.11651 106.881671 
L 215.927517 108.194503 
L 213.738523 109.189025 
L 211.54953 109.907944 
L 208.795144 110.445101 
L 207.171544 110.624908 
L 204.98255 110.645932 
L 202.791637 110.445101 
L 200.604564 110.016567 
L 197.550132 108.985772 
L 196.226577 108.40671 
L 194.037584 107.160265 
L 191.848591 105.534251 
L 189.659597 104.796266 
L 187.470604 106.590266 
L 185.281611 107.971368 
L 183.092617 109.022775 
L 180.903624 109.79044 
L 177.686348 110.445101 
L 176.525638 110.595844 
L 174.336644 110.658937 
L 171.82467 110.445101 
L 169.958658 110.116424 
L 167.769664 109.492941 
L 165.580671 108.608177 
L 163.391678 107.426265 
L 159.013691 104.39474 
L 158.79124 104.607785 
L 156.824698 106.285837 
L 154.635705 107.737119 
L 152.084802 108.985772 
L 150.257718 109.663932 
L 148.068725 110.229088 
L 145.879732 110.558713 
L 143.690738 110.663938 
L 140.831281 110.445101 
L 139.312752 110.207628 
L 137.123758 109.630884 
L 134.934765 108.799089 
L 134.657715 108.985772 
L 133.579601 110.445101 
L 133.105024 111.90443 
L 133.389905 113.363758 
L 134.106029 116.282416 
L 134.409914 119.201074 
L 134.318519 122.119732 
L 133.826591 125.038389 
L 133.066802 127.957047 
L 133.922183 130.875705 
L 134.35573 133.794362 
L 134.390866 136.71302 
L 134.029616 139.631678 
L 133.252081 142.550336 
L 133.252081 144.009664 
L 134.029616 146.928322 
L 134.390866 149.84698 
L 134.35573 152.765638 
L 133.922183 155.684295 
L 133.066802 158.602953 
L 134.12382 162.98094 
L 134.413421 165.899597 
L 134.307946 168.818255 
L 133.80134 171.736913 
L 133.389905 173.196242 
L 133.105024 174.65557 
L 133.579601 176.114899 
L 134.657715 177.574228 
L 134.934765 177.760911 
L 137.123758 176.929116 
L 139.312752 176.352372 
L 141.501745 176.011834 
L 143.690738 175.896062 
L 146.642451 176.114899 
L 148.068725 176.330912 
L 150.257718 176.896068 
L 152.446711 177.71481 
L 154.974871 179.033557 
L 157.10186 180.492886 
L 159.013691 182.16526 
L 161.446516 180.492886 
L 163.56591 179.033557 
L 166.489059 177.574228 
L 167.769664 177.067059 
L 169.958658 176.443576 
L 172.147651 176.059103 
L 174.336644 175.901063 
L 176.525638 175.964156 
L 178.714631 176.250382 
L 180.903624 176.76956 
L 183.173854 177.574228 
L 186.022992 179.033557 
L 188.153072 180.492886 
L 189.659597 181.763734 
L 191.848591 181.025749 
L 194.037584 179.399735 
L 196.226577 178.15329 
L 198.41557 177.2143 
L 200.604564 176.543433 
L 202.793557 176.114531 
L 204.98255 175.914068 
L 207.171544 175.935092 
L 209.360537 176.178283 
L 211.54953 176.652056 
L 214.205011 177.574228 
L 215.927517 178.365497 
L 218.11651 179.678329 
L 220.305503 181.387122 
L 222.494497 181.387122 
L 224.68349 179.678329 
L 226.872483 178.365497 
L 229.061477 177.370975 
L 231.25047 176.652056 
L 234.004856 176.114899 
L 235.628456 175.935092 
L 237.81745 175.914068 
L 240.008363 176.114899 
L 242.195436 176.543433 
L 245.249868 177.574228 
L 246.573423 178.15329 
L 248.762416 179.399735 
L 250.951409 181.025749 
L 253.140403 181.763734 
L 255.329396 179.969734 
L 257.518389 178.588632 
L 259.707383 177.537225 
L 261.896376 176.76956 
L 265.113652 176.114899 
L 266.274362 175.964156 
L 268.463356 175.901063 
L 270.97533 176.114899 
L 272.841342 176.443576 
L 275.030336 177.067059 
L 277.219329 177.951823 
L 279.408322 179.133735 
L 283.786309 182.16526 
L 284.00876 181.952215 
L 285.975302 180.274163 
L 288.164295 178.822881 
L 290.715198 177.574228 
L 292.542282 176.896068 
L 294.731275 176.330912 
L 296.920268 176.001287 
L 299.109262 175.896062 
L 301.968719 176.114899 
L 303.487248 176.352372 
L 305.676242 176.929116 
L 307.865235 177.760911 
L 308.142285 177.574228 
L 309.220399 176.114899 
L 309.694976 174.65557 
L 309.410095 173.196242 
L 308.693971 170.277584 
L 308.390086 167.358926 
L 308.481481 164.440268 
L 308.973409 161.521611 
L 309.214337 160.650594 
L 309.214337 160.650594 
" style="fill:none;stroke:#3b528b;stroke-width:1.5;"/>
   </g>
   <g id="LineCollection_3">
    <path clip-path="url(#pa486a56f04)" d="M 373.492492 123.073053 
L 373.313073 125.038389 
L 372.945987 127.957047 
L 373.35986 130.875705 
L 373.573974 133.794362 
L 373.591474 136.71302 
L 373.412619 139.631678 
L 373.034769 142.550336 
L 373.034769 144.009664 
L 373.412619 146.928322 
L 373.591474 149.84698 
L 373.535034 153.456479 
L 373.35986 155.684295 
L 372.945987 158.602953 
L 373.555467 164.440268 
L 373.600972 167.358926 
L 373.450261 170.277584 
L 372.964266 174.65557 
L 373.37092 177.574228 
L 373.577975 180.492886 
L 373.588475 183.411544 
L 373.402575 186.330201 
L 373.017535 189.248859 
L 373.051743 190.708188 
L 373.422409 193.626846 
L 373.594224 196.545503 
L 373.535034 200.054493 
L 373.348546 202.382819 
L 372.927446 205.301477 
L 372.300535 208.220134 
L 371.34604 211.470598 
L 370.387907 214.05745 
L 369.072334 216.976107 
L 367.479228 219.894765 
L 365.576129 222.813423 
L 363.310438 225.732081 
L 362.018047 227.191409 
L 359.03847 230.110067 
L 357.30991 231.569396 
L 355.382203 233.028725 
L 353.200538 234.488054 
L 350.682865 235.947383 
L 347.703594 237.406711 
L 345.078121 238.473938 
L 342.889128 239.210698 
L 340.700134 239.821016 
L 338.426118 240.325369 
L 336.322148 240.683369 
L 331.944161 241.089714 
L 327.566174 241.052928 
L 325.377181 240.868532 
L 321.870361 240.325369 
L 320.999195 240.160671 
L 318.810201 239.631173 
L 314.432215 238.318623 
L 312.243221 239.080433 
L 310.054228 239.714184 
L 307.321467 240.325369 
L 305.676242 240.621227 
L 301.298255 241.070199 
L 296.920268 241.075454 
L 294.731275 240.912254 
L 290.784884 240.325369 
L 290.353289 240.248035 
L 288.164295 239.741303 
L 285.248828 238.86604 
L 283.786309 238.357902 
L 276.241868 240.325369 
L 272.841342 240.856966 
L 268.463356 241.125469 
L 264.085369 240.951919 
L 261.896376 240.698261 
L 259.680986 240.325369 
L 257.518389 239.84704 
L 254.190533 238.86604 
L 253.140403 238.512018 
L 250.761622 238.86604 
L 248.762416 239.487288 
L 245.183551 240.325369 
L 242.195436 240.808154 
L 237.81745 241.118971 
L 233.439463 240.987537 
L 231.25047 240.755257 
L 228.656557 240.325369 
L 226.872483 239.94841 
L 223.120788 238.86604 
L 222.494497 238.661362 
L 220.305503 238.661362 
L 218.11651 239.367167 
L 214.143443 240.325369 
L 211.54953 240.755257 
L 207.171544 241.108471 
L 202.793557 241.019117 
L 200.604564 240.808154 
L 197.616449 240.325369 
L 196.226577 240.045442 
L 192.038378 238.86604 
L 191.848591 238.805972 
L 189.659597 238.512018 
L 187.470604 239.242556 
L 185.281611 239.84704 
L 183.092617 240.331136 
L 180.903624 240.698261 
L 176.525638 241.093966 
L 172.147651 241.046668 
L 169.958658 240.856966 
L 166.558132 240.325369 
L 165.580671 240.138162 
L 163.391678 239.602951 
L 159.013691 238.357902 
L 156.824698 239.113425 
L 154.635705 239.741303 
L 152.015116 240.325369 
L 150.257718 240.637149 
L 145.879732 241.075454 
L 141.501745 241.070199 
L 139.312752 240.901704 
L 135.478533 240.325369 
L 134.934765 240.226594 
L 132.745772 239.714184 
L 129.931743 238.86604 
L 128.367785 238.318623 
L 123.989799 239.631173 
L 120.929639 240.325369 
L 117.422819 240.868532 
L 113.044832 241.126469 
L 108.666846 240.942383 
L 104.373882 240.325369 
L 104.288859 240.310764 
L 102.099866 239.821016 
L 98.876136 238.86604 
L 97.721879 238.473938 
L 95.096406 237.406711 
L 92.117135 235.947383 
L 89.599462 234.488054 
L 87.417797 233.028725 
L 85.49009 231.569396 
L 83.76153 230.110067 
L 82.19492 228.650738 
L 79.489562 225.732081 
L 77.223871 222.813423 
L 75.320772 219.894765 
L 73.642953 216.800677 
L 72.412093 214.05745 
L 71.340346 211.138792 
L 70.499465 208.220134 
L 69.872554 205.301477 
L 69.451454 202.382819 
L 69.230277 199.464161 
L 69.205776 196.545503 
L 69.377591 193.626846 
L 69.782465 189.248859 
L 69.397425 186.330201 
L 69.211525 183.411544 
L 69.264966 179.697247 
L 69.42908 177.574228 
L 69.835734 174.65557 
L 69.199028 167.358926 
L 69.264966 164.130432 
L 69.486927 161.521611 
L 69.854013 158.602953 
L 69.44014 155.684295 
L 69.226026 152.765638 
L 69.208526 149.84698 
L 69.387381 146.928322 
L 69.765231 144.009664 
L 69.765231 142.550336 
L 69.387381 139.631678 
L 69.208526 136.71302 
L 69.264966 133.103521 
L 69.44014 130.875705 
L 69.854013 127.957047 
L 69.244533 122.119732 
L 69.199028 119.201074 
L 69.349739 116.282416 
L 69.835734 111.90443 
L 69.42908 108.985772 
L 69.222025 106.067114 
L 69.211525 103.148456 
L 69.397425 100.229799 
L 69.782465 97.311141 
L 69.748257 95.851812 
L 69.377591 92.933154 
L 69.205776 90.014497 
L 69.264966 86.505507 
L 69.451454 84.177181 
L 69.872554 81.258523 
L 70.499465 78.339866 
L 71.45396 75.089402 
L 72.412093 72.50255 
L 73.727666 69.583893 
L 75.320772 66.665235 
L 77.223871 63.746577 
L 79.489562 60.827919 
L 80.781953 59.368591 
L 83.76153 56.449933 
L 85.49009 54.990604 
L 87.417797 53.531275 
L 89.599462 52.071946 
L 92.117135 50.612617 
L 95.096406 49.153289 
L 97.721879 48.086062 
L 99.910872 47.349302 
L 102.099866 46.738984 
L 104.373882 46.234631 
L 106.477852 45.876631 
L 110.855839 45.470286 
L 115.233826 45.507072 
L 117.422819 45.691468 
L 120.929639 46.234631 
L 121.800805 46.399329 
L 123.989799 46.928827 
L 128.367785 48.241377 
L 130.556779 47.479567 
L 132.745772 46.845816 
L 135.478533 46.234631 
L 137.123758 45.938773 
L 141.501745 45.489801 
L 145.879732 45.484546 
L 148.068725 45.647746 
L 152.015116 46.234631 
L 152.446711 46.311965 
L 154.635705 46.818697 
L 157.551172 47.69396 
L 159.013691 48.202098 
L 166.558132 46.234631 
L 169.958658 45.703034 
L 174.336644 45.434531 
L 178.714631 45.608081 
L 180.903624 45.861739 
L 183.119014 46.234631 
L 185.281611 46.71296 
L 188.609467 47.69396 
L 189.659597 48.047982 
L 192.038378 47.69396 
L 194.037584 47.072712 
L 197.616449 46.234631 
L 200.604564 45.751846 
L 204.98255 45.441029 
L 209.360537 45.572463 
L 211.54953 45.804743 
L 214.143443 46.234631 
L 215.927517 46.61159 
L 219.679212 47.69396 
L 220.305503 47.898638 
L 222.494497 47.898638 
L 224.68349 47.192833 
L 228.656557 46.234631 
L 231.25047 45.804743 
L 235.628456 45.451529 
L 240.006443 45.540883 
L 242.195436 45.751846 
L 245.183551 46.234631 
L 246.573423 46.514558 
L 250.761622 47.69396 
L 250.951409 47.754028 
L 253.140403 48.047982 
L 255.329396 47.317444 
L 257.518389 46.71296 
L 259.707383 46.228864 
L 261.896376 45.861739 
L 266.274362 45.466034 
L 270.652349 45.513332 
L 272.841342 45.703034 
L 276.241868 46.234631 
L 277.219329 46.421838 
L 279.408322 46.957049 
L 283.786309 48.202098 
L 285.975302 47.446575 
L 288.164295 46.818697 
L 290.784884 46.234631 
L 292.542282 45.922851 
L 296.920268 45.484546 
L 301.298255 45.489801 
L 303.487248 45.658296 
L 307.321467 46.234631 
L 307.865235 46.333406 
L 310.054228 46.845816 
L 312.868257 47.69396 
L 314.432215 48.241377 
L 318.810201 46.928827 
L 321.870361 46.234631 
L 325.377181 45.691468 
L 329.755168 45.433531 
L 334.133154 45.617617 
L 338.426118 46.234631 
L 338.511141 46.249236 
L 340.700134 46.738984 
L 343.923864 47.69396 
L 345.078121 48.086062 
L 347.703594 49.153289 
L 350.682865 50.612617 
L 353.200538 52.071946 
L 355.382203 53.531275 
L 357.30991 54.990604 
L 359.03847 56.449933 
L 360.60508 57.909262 
L 363.310438 60.827919 
L 365.576129 63.746577 
L 367.479228 66.665235 
L 369.157047 69.759323 
L 370.387907 72.50255 
L 371.459654 75.421208 
L 372.300535 78.339866 
L 372.927446 81.258523 
L 373.228477 83.231323 
L 373.228477 83.231323 
" style="fill:none;stroke:#21918c;stroke-width:1.5;"/>
    <path clip-path="url(#pa486a56f04)" d="M 253.845967 156.532514 
L 256.599535 155.684295 
L 257.518389 155.432839 
L 259.707383 154.949087 
L 261.896376 154.58174 
L 266.274362 154.186025 
L 270.652349 154.233309 
L 272.841342 154.423001 
L 275.030336 154.725114 
L 277.219329 155.14197 
L 279.434278 155.684295 
L 283.786309 156.921765 
L 285.975302 156.166774 
L 286.555 155.684295 
L 286.748436 154.224966 
L 286.632781 151.306309 
L 286.713356 148.387651 
L 286.991278 145.468993 
L 287.205324 144.009664 
L 287.205324 142.550336 
L 286.827473 139.631678 
L 286.648534 136.71302 
L 286.666043 133.794362 
L 286.748436 132.335034 
L 286.555 130.875705 
L 285.975302 130.393226 
L 283.786309 129.638235 
L 277.219329 131.41803 
L 275.030336 131.834886 
L 272.841342 132.136999 
L 268.463356 132.40547 
L 264.085369 132.231954 
L 261.896376 131.97826 
L 259.707383 131.610913 
L 256.599535 130.875705 
L 255.329396 130.52256 
L 253.140403 129.792014 
L 250.951409 130.085416 
L 248.343205 130.875705 
L 246.573423 131.325378 
L 244.38443 131.764415 
L 242.195436 132.088181 
L 237.81745 132.398973 
L 233.439463 132.267569 
L 231.25047 132.035273 
L 229.061477 131.689764 
L 225.535777 130.875705 
L 224.68349 130.647345 
L 222.494497 129.941062 
L 220.305503 129.941062 
L 217.264223 130.875705 
L 215.927517 131.22843 
L 213.738523 131.689764 
L 211.54953 132.035273 
L 207.171544 132.388475 
L 202.793557 132.299144 
L 200.604564 132.088181 
L 198.41557 131.764415 
L 194.456795 130.875705 
L 194.037584 130.767614 
L 191.848591 130.085416 
L 189.659597 129.792014 
L 186.200465 130.875705 
L 185.281611 131.127161 
L 183.092617 131.610913 
L 180.903624 131.97826 
L 176.525638 132.373975 
L 172.147651 132.326691 
L 169.958658 132.136999 
L 167.769664 131.834886 
L 165.580671 131.41803 
L 163.365722 130.875705 
L 159.013691 129.638235 
L 156.824698 130.393226 
L 156.245 130.875705 
L 156.051564 132.335034 
L 156.167219 135.253691 
L 156.086644 138.172349 
L 155.808722 141.091007 
L 155.594676 142.550336 
L 155.594676 144.009664 
L 155.972527 146.928322 
L 156.151466 149.84698 
L 156.133957 152.765638 
L 156.051564 154.224966 
L 156.245 155.684295 
L 156.824698 156.166774 
L 159.013691 156.921765 
L 165.580671 155.14197 
L 167.769664 154.725114 
L 169.958658 154.423001 
L 174.336644 154.15453 
L 178.714631 154.328046 
L 180.903624 154.58174 
L 183.092617 154.949087 
L 186.200465 155.684295 
L 187.470604 156.03744 
L 189.659597 156.767986 
L 191.848591 156.474584 
L 194.456795 155.684295 
L 196.226577 155.234622 
L 198.41557 154.795585 
L 200.604564 154.471819 
L 204.98255 154.161027 
L 209.360537 154.292431 
L 211.54953 154.524727 
L 215.621879 155.267157 
L 215.621879 155.267157 
" style="fill:none;stroke:#21918c;stroke-width:1.5;"/>
   </g>
   <g id="LineCollection_4">
    <path clip-path="url(#pa486a56f04)" d="M 76.632416 252 
L 75.831946 251.466354 
L 74.522797 250.540671 
L 73.642953 249.900258 
L 72.57691 249.081342 
L 71.45396 248.19122 
L 70.770422 247.622013 
L 69.264966 246.32528 
L 69.084518 246.162685 
L 67.515317 244.703356 
L 67.075973 244.279797 
L 66.044138 243.244027 
L 64.88698 242.034599 
L 64.656499 241.784698 
L 63.357219 240.325369 
L 62.697987 239.553016 
L 62.130378 238.86604 
L 60.973908 237.406711 
L 60.508993 236.794404 
L 59.88393 235.947383 
L 58.854835 234.488054 
L 58.32 233.693263 
" style="fill:none;stroke:#5ec962;stroke-width:1.5;"/>
    <path clip-path="url(#pa486a56f04)" d="M 384.48 233.693263 
L 383.945165 234.488054 
L 382.91607 235.947383 
L 382.291007 236.794404 
L 381.826092 237.406711 
L 380.669622 238.86604 
L 380.102013 239.553016 
L 379.442781 240.325369 
L 378.143501 241.784698 
L 377.91302 242.034599 
L 376.755862 243.244027 
L 375.724027 244.279797 
L 375.284683 244.703356 
L 373.715482 246.162685 
L 373.535034 246.32528 
L 372.029578 247.622013 
L 371.34604 248.19122 
L 370.22309 249.081342 
L 369.157047 249.900258 
L 368.277203 250.540671 
L 366.968054 251.466354 
L 366.167584 252 
" style="fill:none;stroke:#5ec962;stroke-width:1.5;"/>
    <path clip-path="url(#pa486a56f04)" d="M 58.32 52.866737 
L 58.854835 52.071946 
L 59.88393 50.612617 
L 60.508993 49.765596 
L 60.973908 49.153289 
L 62.130378 47.69396 
L 62.697987 47.006984 
L 63.357219 46.234631 
L 64.656499 44.775302 
L 64.88698 44.525401 
L 66.044138 43.315973 
L 67.075973 42.280203 
L 67.515317 41.856644 
L 69.084518 40.397315 
L 69.264966 40.23472 
L 70.770422 38.937987 
L 71.45396 38.36878 
L 72.57691 37.478658 
L 73.642953 36.659742 
L 74.522797 36.019329 
L 75.831946 35.093646 
L 76.632416 34.56 
" style="fill:none;stroke:#5ec962;stroke-width:1.5;"/>
    <path clip-path="url(#pa486a56f04)" d="M 366.167584 34.56 
L 366.968054 35.093646 
L 368.277203 36.019329 
L 369.157047 36.659742 
L 370.22309 37.478658 
L 371.34604 38.36878 
L 372.029578 38.937987 
L 373.535034 40.23472 
L 373.715482 40.397315 
L 375.284683 41.856644 
L 375.724027 42.280203 
L 376.755862 43.315973 
L 377.91302 44.525401 
L 378.143501 44.775302 
L 379.442781 46.234631 
L 380.102013 47.006984 
L 380.669622 47.69396 
L 381.826092 49.153289 
L 382.291007 49.765596 
L 382.91607 50.612617 
L 383.945165 52.071946 
L 384.48 52.866737 
" style="fill:none;stroke:#5ec962;stroke-width:1.5;"/>
   </g>
   <g id="LineCollection_5"/>
   <g id="line2d_1">
    <defs>
     <path d="M 0 1.5 
C 0.397805 1.5 0.77937 1.341951 1.06066 1.06066 
C 1.341951 0.77937 1.5 0.397805 1.5 0 
C 1.5 -0.397805 1.341951 -0.77937 1.06066 -1.06066 
C 0.77937 -1.341951 0.397805 -1.5 0 -1.5 
C -0.397805 -1.5 -0.77937 -1.341951 -1.06066 -1.06066 
C -1.341951 -0.77937 -1.5 -0.397805 -1.5 0 
C -1.5 0.397805 -1.341951 0.77937 -1.06066 1.06066 
C -0.77937 1.341951 -0.397805 1.5 0 1.5 
z
" id="me2256aa89e" style="stroke:#0000ff;"/>
    </defs>
    <g clip-path="url(#pa486a56f04)">
     <use style="fill:#0000ff;stroke:#0000ff;" x="112.68" xlink:href="#me2256aa89e" y="88.92"/>
     <use style="fill:#0000ff;stroke:#0000ff;" x="143.742857" xlink:href="#me2256aa89e" y="88.92"/>
     <use style="fill:#0000ff;stroke:#0000ff;" x="174.805714" xlink:href="#me2256aa89e" y="88.92"/>
     <use style="fill:#0000ff;stroke:#0000ff;" x="205.868571" xlink:href="#me2256aa89e" y="88.92"/>
     <use style="fill:#0000ff;stroke:#0000ff;" x="236.931429" xlink:href="#me2256aa89e" y="88.92"/>
     <use style="fill:#0000ff;stroke:#0000ff;" x="267.994286" xlink:href="#me2256aa89e" y="88.92"/>
     <use style="fill:#0000ff;stroke:#0000ff;" x="299.057143" xlink:href="#me2256aa89e" y="88.92"/>
     <use style="fill:#0000ff;stroke:#0000ff;" x="330.12" xlink:href="#me2256aa89e" y="88.92"/>
     <use style="fill:#0000ff;stroke:#0000ff;" x="330.12" xlink:href="#me2256aa89e" y="104.451429"/>
     <use style="fill:#0000ff;stroke:#0000ff;" x="330.12" xlink:href="#me2256aa89e" y="119.982857"/>
     <use style="fill:#0000ff;stroke:#0000ff;" x="330.12" xlink:href="#me2256aa89e" y="135.514286"/>
     <use style="fill:#0000ff;stroke:#0000ff;" x="330.12" xlink:href="#me2256aa89e" y="151.045714"/>
     <use style="fill:#0000ff;stroke:#0000ff;" x="330.12" xlink:href="#me2256aa89e" y="166.577143"/>
     <use style="fill:#0000ff;stroke:#0000ff;" x="330.12" xlink:href="#me2256aa89e" y="182.108571"/>
     <use style="fill:#0000ff;stroke:#0000ff;" x="330.12" xlink:href="#me2256aa89e" y="197.64"/>
     <use style="fill:#0000ff;stroke:#0000ff;" x="299.057143" xlink:href="#me2256aa89e" y="197.64"/>
     <use style="fill:#0000ff;stroke:#0000ff;" x="267.994286" xlink:href="#me2256aa89e" y="197.64"/>
     <use style="fill:#0000ff;stroke:#0000ff;" x="236.931429" xlink:href="#me2256aa89e" y="197.64"/>
     <use style="fill:#0000ff;stroke:#0000ff;" x="205.868571" xlink:href="#me2256aa89e" y="197.64"/>
     <use style="fill:#0000ff;stroke:#0000ff;" x="174.805714" xlink:href="#me2256aa89e" y="197.64"/>
     <use style="fill:#0000ff;stroke:#0000ff;" x="143.742857" xlink:href="#me2256aa89e" y="197.64"/>
     <use style="fill:#0000ff;stroke:#0000ff;" x="112.68" xlink:href="#me2256aa89e" y="197.64"/>
     <use style="fill:#0000ff;stroke:#0000ff;" x="112.68" xlink:href="#me2256aa89e" y="182.108571"/>
     <use style="fill:#0000ff;stroke:#0000ff;" x="112.68" xlink:href="#me2256aa89e" y="166.577143"/>
     <use style="fill:#0000ff;stroke:#0000ff;" x="112.68" xlink:href="#me2256aa89e" y="151.045714"/>
     <use style="fill:#0000ff;stroke:#0000ff;" x="112.68" xlink:href="#me2256aa89e" y="135.514286"/>
     <use style="fill:#0000ff;stroke:#0000ff;" x="112.68" xlink:href="#me2256aa89e" y="119.982857"/>
     <use style="fill:#0000ff;stroke:#0000ff;" x="112.68" xlink:href="#me2256aa89e" y="104.451429"/>
    </g>
   </g>
   <g id="text_1">
    <g clip-path="url(#pa486a56f04)">
     <!-- 0.400 -->
     <g style="fill:#3b528b;" transform="translate(88.27756 118.173599)rotate(-270.472563)scale(0.1 -0.1)">
      <defs>
       <path d="M 31.78125 66.40625 
Q 24.171875 66.40625 20.328125 58.90625 
Q 16.5 51.421875 16.5 36.375 
Q 16.5 21.390625 20.328125 13.890625 
Q 24.171875 6.390625 31.78125 6.390625 
Q 39.453125 6.390625 43.28125 13.890625 
Q 47.125 21.390625 47.125 36.375 
Q 47.125 51.421875 43.28125 58.90625 
Q 39.453125 66.40625 31.78125 66.40625 
z
M 31.78125 74.21875 
Q 44.046875 74.21875 50.515625 64.515625 
Q 56.984375 54.828125 56.984375 36.375 
Q 56.984375 17.96875 50.515625 8.265625 
Q 44.046875 -1.421875 31.78125 -1.421875 
Q 19.53125 -1.421875 13.0625 8.265625 
Q 6.59375 17.96875 6.59375 36.375 
Q 6.59375 54.828125 13.0625 64.515625 
Q 19.53125 74.21875 31.78125 74.21875 
z
" id="DejaVuSans-48"/>
       <path d="M 10.6875 12.40625 
L 21 12.40625 
L 21 0 
L 10.6875 0 
z
" id="DejaVuSans-46"/>
       <path d="M 37.796875 64.3125 
L 12.890625 25.390625 
L 37.796875 25.390625 
z
M 35.203125 72.90625 
L 47.609375 72.90625 
L 47.609375 25.390625 
L 58.015625 25.390625 
L 58.015625 17.1875 
L 47.609375 17.1875 
L 47.609375 0 
L 37.796875 0 
L 37.796875 17.1875 
L 4.890625 17.1875 
L 4.890625 26.703125 
z
" id="DejaVuSans-52"/>
      </defs>
      <use xlink:href="#DejaVuSans-48"/>
      <use x="63.623047" xlink:href="#DejaVuSans-46"/>
      <use x="95.410156" xlink:href="#DejaVuSans-52"/>
      <use x="159.033203" xlink:href="#DejaVuSans-48"/>
      <use x="222.65625" xlink:href="#DejaVuSans-48"/>
     </g>
    </g>
   </g>
   <g id="text_2">
    <g clip-path="url(#pa486a56f04)">
     <!-- 0.400 -->
     <g style="fill:#3b528b;" transform="translate(311.652684 155.44428)rotate(-89.153338)scale(0.1 -0.1)">
      <use xlink:href="#DejaVuSans-48"/>
      <use x="63.623047" xlink:href="#DejaVuSans-46"/>
      <use x="95.410156" xlink:href="#DejaVuSans-52"/>
      <use x="159.033203" xlink:href="#DejaVuSans-48"/>
      <use x="222.65625" xlink:href="#DejaVuSans-48"/>
     </g>
    </g>
   </g>
   <g id="text_3">
    <g clip-path="url(#pa486a56f04)">
     <!-- 0.800 -->
     <g style="fill:#21918c;" transform="translate(376.330133 117.465923)rotate(-89.929091)scale(0.1 -0.1)">
      <defs>
       <path d="M 31.78125 34.625 
Q 24.75 34.625 20.71875 30.859375 
Q 16.703125 27.09375 16.703125 20.515625 
Q 16.703125 13.921875 20.71875 10.15625 
Q 24.75 6.390625 31.78125 6.390625 
Q 38.8125 6.390625 42.859375 10.171875 
Q 46.921875 13.96875 46.921875 20.515625 
Q 46.921875 27.09375 42.890625 30.859375 
Q 38.875 34.625 31.78125 34.625 
z
M 21.921875 38.8125 
Q 15.578125 40.375 12.03125 44.71875 
Q 8.5 49.078125 8.5 55.328125 
Q 8.5 64.0625 14.71875 69.140625 
Q 20.953125 74.21875 31.78125 74.21875 
Q 42.671875 74.21875 48.875 69.140625 
Q 55.078125 64.0625 55.078125 55.328125 
Q 55.078125 49.078125 51.53125 44.71875 
Q 48 40.375 41.703125 38.8125 
Q 48.828125 37.15625 52.796875 32.3125 
Q 56.78125 27.484375 56.78125 20.515625 
Q 56.78125 9.90625 50.3125 4.234375 
Q 43.84375 -1.421875 31.78125 -1.421875 
Q 19.734375 -1.421875 13.25 4.234375 
Q 6.78125 9.90625 6.78125 20.515625 
Q 6.78125 27.484375 10.78125 32.3125 
Q 14.796875 37.15625 21.921875 38.8125 
z
M 18.3125 54.390625 
Q 18.3125 48.734375 21.84375 45.5625 
Q 25.390625 42.390625 31.78125 42.390625 
Q 38.140625 42.390625 41.71875 45.5625 
Q 45.3125 48.734375 45.3125 54.390625 
Q 45.3125 60.0625 41.71875 63.234375 
Q 38.140625 66.40625 31.78125 66.40625 
Q 25.390625 66.40625 21.84375 63.234375 
Q 18.3125 60.0625 18.3125 54.390625 
z
" id="DejaVuSans-56"/>
      </defs>
      <use xlink:href="#DejaVuSans-48"/>
      <use x="63.623047" xlink:href="#DejaVuSans-46"/>
      <use x="95.410156" xlink:href="#DejaVuSans-56"/>
      <use x="159.033203" xlink:href="#DejaVuSans-48"/>
      <use x="222.65625" xlink:href="#DejaVuSans-48"/>
     </g>
    </g>
   </g>
   <g id="text_4">
    <g clip-path="url(#pa486a56f04)">
     <!-- 0.800 -->
     <g style="fill:#21918c;" transform="translate(220.416415 157.330715)rotate(-1.389835)scale(0.1 -0.1)">
      <use xlink:href="#DejaVuSans-48"/>
      <use x="63.623047" xlink:href="#DejaVuSans-46"/>
      <use x="95.410156" xlink:href="#DejaVuSans-56"/>
      <use x="159.033203" xlink:href="#DejaVuSans-48"/>
      <use x="222.65625" xlink:href="#DejaVuSans-48"/>
     </g>
    </g>
   </g>
  </g>
 </g>
 <defs>
  <clipPath id="pa486a56f04">
   <rect height="217.44" width="334.8" x="54" y="34.56"/>
  </clipPath>
 </defs>
</svg>
