<?xml version="1.0" encoding="utf-8" standalone="no"?>
<!DOCTYPE svg PUBLIC "-//W3C//DTD SVG 1.1//EN"
  "http://www.w3.org/Graphics/SVG/1.1/DTD/svg11.dtd">
<!-- Created with matplotlib (https://matplotlib.org/) -->
<svg height="288pt" version="1.1" viewBox="0 0 432 288" width="432pt" xmlns="http://www.w3.org/2000/svg" xmlns:xlink="http://www.w3.org/1999/xlink">
 <metadata>
  <rdf:RDF xmlns:cc="http://creativecommons.org/ns#" xmlns:dc="http://purl.org/dc/elements/1.1/" xmlns:rdf="http://www.w3.org/1999/02/22-rdf-syntax-ns#">
   <cc:Work>
    <dc:type rdf:resource="http://purl.org/dc/dcmitype/StillImage"/>
    <dc:date>2020-09-26T10:32:56.829273</dc:date>
    <dc:format>image/svg+xml</dc:format>
    <dc:creator>
     <cc:Agent>
      <dc:title>Matplotlib v3.3.1, https://matplotlib.org/</dc:title>
     </cc:Agent>
    </dc:creator>
   </cc:Work>
  </rdf:RDF>
 </metadata>
 <defs>
  <style type="text/css">*{stroke-linecap:butt;stroke-linejoin:round;}</style>
 </defs>
 <g id="figure_1">
  <g id="patch_1">
   <path d="M 0 288 
L 432 288 
L 432 0 
L 0 0 
z
" style="fill:none;"/>
  </g>
  <g id="axes_1">
   <g id="patch_2">
    <path clip-path="url(#p15797c82aa)" d="M 112.68 88.92 
L 143.742857 88.92 
L 174.805714 88.92 
L 205.868571 88.92 
L 236.931429 88.92 
L 267.994286 88.92 
L 299.057143 88.92 
L 330.12 88.92 
L 330.12 104.451429 
L 330.12 119.982857 
L 330.12 135.514286 
L 330.12 151.045714 
L 330.12 166.577143 
L 330.12 182.108571 
L 330.12 197.64 
L 299.057143 197.64 
L 267.994286 197.64 
L 236.931429 197.64 
L 205.868571 197.64 
L 174.805714 197.64 
L 143.742857 197.64 
L 112.68 197.64 
L 112.68 182.108571 
L 112.68 166.577143 
L 112.68 151.045714 
L 112.68 135.514286 
L 112.68 119.982857 
L 112.68 104.451429 
z
" style="fill:#add8e6;opacity:0.5;"/>
   </g>
   <g id="LineCollection_1"/>
   <g id="LineCollection_2">
    <path clip-path="url(#p15797c82aa)" d="M 264.601888 132.408 
L 285.975302 132.480966 
L 286.632 133.794362 
L 286.632 152.765638 
L 285.975302 154.079034 
L 281.597315 154.152 
L 156.824698 154.079034 
L 156.168 152.765638 
L 156.168 133.794362 
L 156.824698 132.480966 
L 161.202685 132.408 
L 219.788985 132.408 
L 219.788985 132.408 
" style="fill:none;stroke:#46327e;stroke-width:1.5;"/>
   </g>
   <g id="LineCollection_3">
    <path clip-path="url(#p15797c82aa)" d="M 221.977978 175.896 
L 137.123758 175.896 
L 134.934765 175.677101 
L 134.424 174.65557 
L 134.424 111.90443 
L 134.934765 110.882899 
L 137.123758 110.664 
L 305.676242 110.664 
L 307.865235 110.882899 
L 308.376 111.90443 
L 308.376 174.65557 
L 307.865235 175.677101 
L 305.676242 175.896 
L 266.790881 175.896 
L 266.790881 175.896 
" style="fill:none;stroke:#365c8d;stroke-width:1.5;"/>
   </g>
   <g id="LineCollection_4">
    <path clip-path="url(#p15797c82aa)" d="M 112.68 112.335034 
L 112.68 90.014497 
L 113.044832 89.284832 
L 115.233826 88.92 
L 327.566174 88.92 
L 329.755168 89.284832 
L 330.12 90.014497 
L 330.12 196.545503 
L 329.755168 197.275168 
L 327.566174 197.64 
L 115.233826 197.64 
L 113.044832 197.275168 
L 112.68 196.545503 
L 112.68 152.335034 
L 112.68 152.335034 
" style="fill:none;stroke:#277f8e;stroke-width:1.5;"/>
   </g>
   <g id="LineCollection_5">
    <path clip-path="url(#p15797c82aa)" d="M 90.936 144.440268 
L 91.012695 87.095839 
L 91.460252 84.177181 
L 92.334087 81.258523 
L 93.343893 78.995382 
L 93.687838 78.339866 
L 94.583174 76.880537 
L 95.636091 75.421208 
L 97.721879 73.146415 
L 99.910872 71.323611 
L 102.099866 69.926085 
L 104.288859 68.862309 
L 106.477852 68.079415 
L 108.666846 67.54995 
L 110.855839 67.252736 
L 115.233826 67.176 
L 331.944161 67.252736 
L 334.133154 67.54995 
L 336.453321 68.124564 
L 338.511141 68.862309 
L 340.700134 69.926085 
L 342.889128 71.323611 
L 345.078121 73.146415 
L 345.885061 73.961879 
L 347.267114 75.553434 
L 348.216826 76.880537 
L 349.456107 78.995382 
L 350.465913 81.258523 
L 351.339748 84.177181 
L 351.787305 87.095839 
L 351.864 90.014497 
L 351.787305 199.464161 
L 351.339748 202.382819 
L 350.465913 205.301477 
L 349.456107 207.564618 
L 349.112162 208.220134 
L 348.216826 209.679463 
L 347.163909 211.138792 
L 345.078121 213.413585 
L 342.889128 215.236389 
L 340.700134 216.633915 
L 338.511141 217.697691 
L 336.322148 218.480585 
L 334.133154 219.01005 
L 331.944161 219.307264 
L 327.566174 219.384 
L 110.855839 219.307264 
L 108.666846 219.01005 
L 106.346679 218.435436 
L 104.288859 217.697691 
L 102.099866 216.633915 
L 99.910872 215.236389 
L 97.721879 213.413585 
L 96.914939 212.598121 
L 95.532886 211.006566 
L 94.583174 209.679463 
L 93.343893 207.564618 
L 92.334087 205.301477 
L 91.460252 202.382819 
L 91.012695 199.464161 
L 90.936 196.545503 
L 90.936 184.440268 
L 90.936 184.440268 
" style="fill:none;stroke:#1fa187;stroke-width:1.5;"/>
   </g>
   <g id="LineCollection_6">
    <path clip-path="url(#p15797c82aa)" d="M 69.192 93.363758 
L 69.264966 86.505507 
L 69.451454 84.177181 
L 69.872554 81.258523 
L 70.499465 78.339866 
L 71.45396 75.089402 
L 72.412093 72.50255 
L 73.727666 69.583893 
L 75.320772 66.665235 
L 77.223871 63.746577 
L 79.489562 60.827919 
L 80.781953 59.368591 
L 83.76153 56.449933 
L 85.49009 54.990604 
L 87.417797 53.531275 
L 89.599462 52.071946 
L 92.117135 50.612617 
L 95.096406 49.153289 
L 97.721879 48.086062 
L 99.910872 47.349302 
L 102.099866 46.738984 
L 104.373882 46.234631 
L 106.477852 45.876631 
L 110.855839 45.470286 
L 117.422819 45.432 
L 331.944161 45.470286 
L 334.133154 45.617617 
L 338.426118 46.234631 
L 338.511141 46.249236 
L 340.700134 46.738984 
L 343.923864 47.69396 
L 345.078121 48.086062 
L 347.703594 49.153289 
L 350.682865 50.612617 
L 353.200538 52.071946 
L 355.382203 53.531275 
L 357.30991 54.990604 
L 359.03847 56.449933 
L 360.60508 57.909262 
L 363.310438 60.827919 
L 365.576129 63.746577 
L 367.479228 66.665235 
L 369.157047 69.759323 
L 370.387907 72.50255 
L 371.459654 75.421208 
L 372.300535 78.339866 
L 372.927446 81.258523 
L 373.348546 84.177181 
L 373.569723 87.095839 
L 373.608 92.933154 
L 373.535034 200.054493 
L 373.348546 202.382819 
L 372.927446 205.301477 
L 372.300535 208.220134 
L 371.34604 211.470598 
L 370.387907 214.05745 
L 369.072334 216.976107 
L 367.479228 219.894765 
L 365.576129 222.813423 
L 363.310438 225.732081 
L 362.018047 227.191409 
L 359.03847 230.110067 
L 357.30991 231.569396 
L 355.382203 233.028725 
L 353.200538 234.488054 
L 350.682865 235.947383 
L 347.703594 237.406711 
L 345.078121 238.473938 
L 342.889128 239.210698 
L 340.700134 239.821016 
L 338.426118 240.325369 
L 336.322148 240.683369 
L 331.944161 241.089714 
L 325.377181 241.128 
L 110.855839 241.089714 
L 108.666846 240.942383 
L 104.373882 240.325369 
L 104.288859 240.310764 
L 102.099866 239.821016 
L 98.876136 238.86604 
L 97.721879 238.473938 
L 95.096406 237.406711 
L 92.117135 235.947383 
L 89.599462 234.488054 
L 87.417797 233.028725 
L 85.49009 231.569396 
L 83.76153 230.110067 
L 82.19492 228.650738 
L 79.489562 225.732081 
L 77.223871 222.813423 
L 75.320772 219.894765 
L 73.642953 216.800677 
L 72.412093 214.05745 
L 71.340346 211.138792 
L 70.499465 208.220134 
L 69.872554 205.301477 
L 69.451454 202.382819 
L 69.230277 199.464161 
L 69.192 193.626846 
L 69.192 133.363758 
L 69.192 133.363758 
" style="fill:none;stroke:#4ac16d;stroke-width:1.5;"/>
   </g>
   <g id="LineCollection_7">
    <path clip-path="url(#p15797c82aa)" d="M 76.632416 252 
L 75.831946 251.466354 
L 74.522797 250.540671 
L 73.642953 249.900258 
L 72.57691 249.081342 
L 71.45396 248.19122 
L 70.770422 247.622013 
L 69.264966 246.32528 
L 69.084518 246.162685 
L 67.515317 244.703356 
L 67.075973 244.279797 
L 66.044138 243.244027 
L 64.88698 242.034599 
L 64.656499 241.784698 
L 63.357219 240.325369 
L 62.697987 239.553016 
L 62.130378 238.86604 
L 60.973908 237.406711 
L 60.508993 236.794404 
L 59.88393 235.947383 
L 58.854835 234.488054 
L 58.32 233.693263 
" style="fill:none;stroke:#a0da39;stroke-width:1.5;"/>
    <path clip-path="url(#p15797c82aa)" d="M 384.48 233.693263 
L 383.945165 234.488054 
L 382.91607 235.947383 
L 382.291007 236.794404 
L 381.826092 237.406711 
L 380.669622 238.86604 
L 380.102013 239.553016 
L 379.442781 240.325369 
L 378.143501 241.784698 
L 377.91302 242.034599 
L 376.755862 243.244027 
L 375.724027 244.279797 
L 375.284683 244.703356 
L 373.715482 246.162685 
L 373.535034 246.32528 
L 372.029578 247.622013 
L 371.34604 248.19122 
L 370.22309 249.081342 
L 369.157047 249.900258 
L 368.277203 250.540671 
L 366.968054 251.466354 
L 366.167584 252 
" style="fill:none;stroke:#a0da39;stroke-width:1.5;"/>
    <path clip-path="url(#p15797c82aa)" d="M 58.32 52.866737 
L 58.854835 52.071946 
L 59.88393 50.612617 
L 60.508993 49.765596 
L 60.973908 49.153289 
L 62.130378 47.69396 
L 62.697987 47.006984 
L 63.357219 46.234631 
L 64.656499 44.775302 
L 64.88698 44.525401 
L 66.044138 43.315973 
L 67.075973 42.280203 
L 67.515317 41.856644 
L 69.084518 40.397315 
L 69.264966 40.23472 
L 70.770422 38.937987 
L 71.45396 38.36878 
L 72.57691 37.478658 
L 73.642953 36.659742 
L 74.522797 36.019329 
L 75.831946 35.093646 
L 76.632416 34.56 
" style="fill:none;stroke:#a0da39;stroke-width:1.5;"/>
    <path clip-path="url(#p15797c82aa)" d="M 366.167584 34.56 
L 366.968054 35.093646 
L 368.277203 36.019329 
L 369.157047 36.659742 
L 370.22309 37.478658 
L 371.34604 38.36878 
L 372.029578 38.937987 
L 373.535034 40.23472 
L 373.715482 40.397315 
L 375.284683 41.856644 
L 375.724027 42.280203 
L 376.755862 43.315973 
L 377.91302 44.525401 
L 378.143501 44.775302 
L 379.442781 46.234631 
L 380.102013 47.006984 
L 380.669622 47.69396 
L 381.826092 49.153289 
L 382.291007 49.765596 
L 382.91607 50.612617 
L 383.945165 52.071946 
L 384.48 52.866737 
" style="fill:none;stroke:#a0da39;stroke-width:1.5;"/>
   </g>
   <g id="LineCollection_8"/>
   <g id="line2d_1">
    <path clip-path="url(#p15797c82aa)" d="M 112.68 88.92 
L 143.742857 88.92 
L 174.805714 88.92 
L 205.868571 88.92 
L 236.931429 88.92 
L 267.994286 88.92 
L 299.057143 88.92 
L 330.12 88.92 
L 330.12 104.451429 
L 330.12 119.982857 
L 330.12 135.514286 
L 330.12 151.045714 
L 330.12 166.577143 
L 330.12 182.108571 
L 330.12 197.64 
L 299.057143 197.64 
L 267.994286 197.64 
L 236.931429 197.64 
L 205.868571 197.64 
L 174.805714 197.64 
L 143.742857 197.64 
L 112.68 197.64 
L 112.68 182.108571 
L 112.68 166.577143 
L 112.68 151.045714 
L 112.68 135.514286 
L 112.68 119.982857 
L 112.68 104.451429 
L 112.68 88.92 
" style="fill:none;stroke:#0000ff;stroke-linecap:square;stroke-width:1.5;"/>
   </g>
   <g id="text_1">
    <g clip-path="url(#p15797c82aa)">
     <!-- -0.800 -->
     <g style="fill:#46327e;" transform="translate(226.077467 135.167375)scale(0.1 -0.1)">
      <defs>
       <path d="M 4.890625 31.390625 
L 31.203125 31.390625 
L 31.203125 23.390625 
L 4.890625 23.390625 
z
" id="DejaVuSans-45"/>
       <path d="M 31.78125 66.40625 
Q 24.171875 66.40625 20.328125 58.90625 
Q 16.5 51.421875 16.5 36.375 
Q 16.5 21.390625 20.328125 13.890625 
Q 24.171875 6.390625 31.78125 6.390625 
Q 39.453125 6.390625 43.28125 13.890625 
Q 47.125 21.390625 47.125 36.375 
Q 47.125 51.421875 43.28125 58.90625 
Q 39.453125 66.40625 31.78125 66.40625 
z
M 31.78125 74.21875 
Q 44.046875 74.21875 50.515625 64.515625 
Q 56.984375 54.828125 56.984375 36.375 
Q 56.984375 17.96875 50.515625 8.265625 
Q 44.046875 -1.421875 31.78125 -1.421875 
Q 19.53125 -1.421875 13.0625 8.265625 
Q 6.59375 17.96875 6.59375 36.375 
Q 6.59375 54.828125 13.0625 64.515625 
Q 19.53125 74.21875 31.78125 74.21875 
z
" id="DejaVuSans-48"/>
       <path d="M 10.6875 12.40625 
L 21 12.40625 
L 21 0 
L 10.6875 0 
z
" id="DejaVuSans-46"/>
       <path d="M 31.78125 34.625 
Q 24.75 34.625 20.71875 30.859375 
Q 16.703125 27.09375 16.703125 20.515625 
Q 16.703125 13.921875 20.71875 10.15625 
Q 24.75 6.390625 31.78125 6.390625 
Q 38.8125 6.390625 42.859375 10.171875 
Q 46.921875 13.96875 46.921875 20.515625 
Q 46.921875 27.09375 42.890625 30.859375 
Q 38.875 34.625 31.78125 34.625 
z
M 21.921875 38.8125 
Q 15.578125 40.375 12.03125 44.71875 
Q 8.5 49.078125 8.5 55.328125 
Q 8.5 64.0625 14.71875 69.140625 
Q 20.953125 74.21875 31.78125 74.21875 
Q 42.671875 74.21875 48.875 69.140625 
Q 55.078125 64.0625 55.078125 55.328125 
Q 55.078125 49.078125 51.53125 44.71875 
Q 48 40.375 41.703125 38.8125 
Q 48.828125 37.15625 52.796875 32.3125 
Q 56.78125 27.484375 56.78125 20.515625 
Q 56.78125 9.90625 50.3125 4.234375 
Q 43.84375 -1.421875 31.78125 -1.421875 
Q 19.734375 -1.421875 13.25 4.234375 
Q 6.78125 9.90625 6.78125 20.515625 
Q 6.78125 27.484375 10.78125 32.3125 
Q 14.796875 37.15625 21.921875 38.8125 
z
M 18.3125 54.390625 
Q 18.3125 48.734375 21.84375 45.5625 
Q 25.390625 42.390625 31.78125 42.390625 
Q 38.140625 42.390625 41.71875 45.5625 
Q 45.3125 48.734375 45.3125 54.390625 
Q 45.3125 60.0625 41.71875 63.234375 
Q 38.140625 66.40625 31.78125 66.40625 
Q 25.390625 66.40625 21.84375 63.234375 
Q 18.3125 60.0625 18.3125 54.390625 
z
" id="DejaVuSans-56"/>
      </defs>
      <use xlink:href="#DejaVuSans-45"/>
      <use x="36.083984" xlink:href="#DejaVuSans-48"/>
      <use x="99.707031" xlink:href="#DejaVuSans-46"/>
      <use x="131.494141" xlink:href="#DejaVuSans-56"/>
      <use x="195.117188" xlink:href="#DejaVuSans-48"/>
      <use x="258.740234" xlink:href="#DejaVuSans-48"/>
     </g>
    </g>
   </g>
   <g id="text_2">
    <g clip-path="url(#p15797c82aa)">
     <!-- -0.400 -->
     <g style="fill:#365c8d;" transform="translate(228.266461 178.655375)scale(0.1 -0.1)">
      <defs>
       <path d="M 37.796875 64.3125 
L 12.890625 25.390625 
L 37.796875 25.390625 
z
M 35.203125 72.90625 
L 47.609375 72.90625 
L 47.609375 25.390625 
L 58.015625 25.390625 
L 58.015625 17.1875 
L 47.609375 17.1875 
L 47.609375 0 
L 37.796875 0 
L 37.796875 17.1875 
L 4.890625 17.1875 
L 4.890625 26.703125 
z
" id="DejaVuSans-52"/>
      </defs>
      <use xlink:href="#DejaVuSans-45"/>
      <use x="36.083984" xlink:href="#DejaVuSans-48"/>
      <use x="99.707031" xlink:href="#DejaVuSans-46"/>
      <use x="131.494141" xlink:href="#DejaVuSans-52"/>
      <use x="195.117188" xlink:href="#DejaVuSans-48"/>
      <use x="258.740234" xlink:href="#DejaVuSans-48"/>
     </g>
    </g>
   </g>
   <g id="text_3">
    <g clip-path="url(#p15797c82aa)">
     <!-- 0.000 -->
     <g style="fill:#277f8e;" transform="translate(109.920625 118.020971)rotate(-270)scale(0.1 -0.1)">
      <use xlink:href="#DejaVuSans-48"/>
      <use x="63.623047" xlink:href="#DejaVuSans-46"/>
      <use x="95.410156" xlink:href="#DejaVuSans-48"/>
      <use x="159.033203" xlink:href="#DejaVuSans-48"/>
      <use x="222.65625" xlink:href="#DejaVuSans-48"/>
     </g>
    </g>
   </g>
   <g id="text_4">
    <g clip-path="url(#p15797c82aa)">
     <!-- 0.400 -->
     <g style="fill:#1fa187;" transform="translate(88.176625 150.126206)rotate(-270)scale(0.1 -0.1)">
      <use xlink:href="#DejaVuSans-48"/>
      <use x="63.623047" xlink:href="#DejaVuSans-46"/>
      <use x="95.410156" xlink:href="#DejaVuSans-52"/>
      <use x="159.033203" xlink:href="#DejaVuSans-48"/>
      <use x="222.65625" xlink:href="#DejaVuSans-48"/>
     </g>
    </g>
   </g>
   <g id="text_5">
    <g clip-path="url(#p15797c82aa)">
     <!-- 0.800 -->
     <g style="fill:#4ac16d;" transform="translate(66.432625 99.049696)rotate(-270)scale(0.1 -0.1)">
      <use xlink:href="#DejaVuSans-48"/>
      <use x="63.623047" xlink:href="#DejaVuSans-46"/>
      <use x="95.410156" xlink:href="#DejaVuSans-56"/>
      <use x="159.033203" xlink:href="#DejaVuSans-48"/>
      <use x="222.65625" xlink:href="#DejaVuSans-48"/>
     </g>
    </g>
   </g>
  </g>
 </g>
 <defs>
  <clipPath id="p15797c82aa">
   <rect height="217.44" width="334.8" x="54" y="34.56"/>
  </clipPath>
 </defs>
</svg>
